<svg xmlns="http://www.w3.org/2000/svg" xmlns:xlink="http://www.w3.org/1999/xlink" width="500" zoomAndPan="magnify" viewBox="0 0 375 374.999991" height="500" preserveAspectRatio="xMidYMid meet" version="1.0"><defs><g/><clipPath id="8e6f71c87f"><path d="M 149 110.265625 L 226 110.265625 L 226 169.484375 L 149 169.484375 Z M 149 110.265625 " clip-rule="nonzero"/></clipPath><clipPath id="2c09018ea1"><path d="M 112 254.667969 L 263 254.667969 L 263 264.417969 L 112 264.417969 Z M 112 254.667969 " clip-rule="nonzero"/></clipPath></defs><rect x="-37.5" width="450" fill="#ffffff" y="-37.499999" height="449.999989" fill-opacity="1"/><rect x="-37.5" width="450" fill="#ffffff" y="-37.499999" height="449.999989" fill-opacity="1"/><g clip-path="url(#8e6f71c87f)"><path fill="#841773" d="M 223.460938 129.871094 C 218.746094 121.902344 210.367188 119.492188 205.792969 118.761719 C 202.230469 118.199219 199.414062 118.457031 197.335938 119.523438 C 194.867188 113.125 190.15625 110.242188 187.351562 110.242188 C 184.550781 110.242188 179.835938 113.125 177.367188 119.507812 C 175.292969 118.441406 172.472656 118.183594 168.914062 118.746094 C 164.335938 119.476562 155.960938 121.902344 151.246094 129.855469 C 148.351562 134.746094 149.019531 141.421875 153.082031 148.1875 C 155.203125 151.707031 157.929688 154.769531 160.777344 156.980469 C 160.566406 157.359375 160.382812 157.726562 160.214844 158.046875 C 158.109375 162.253906 157.566406 165.910156 158.761719 167.585938 C 159.640625 168.804688 161.808594 169.476562 164.714844 169.476562 C 165.792969 169.476562 166.972656 169.382812 168.230469 169.203125 C 171.082031 168.773438 176.566406 167.496094 182.214844 163.625 C 182.335938 163.808594 182.445312 163.988281 182.503906 164.203125 C 183.351562 166.746094 185.203125 168.332031 187.351562 168.332031 C 189.503906 168.332031 191.351562 166.746094 192.203125 164.1875 C 192.261719 163.988281 192.367188 163.792969 192.488281 163.625 C 198.140625 167.496094 203.625 168.789062 206.472656 169.203125 C 207.730469 169.382812 208.914062 169.476562 209.988281 169.476562 C 212.898438 169.476562 215.066406 168.820312 215.945312 167.585938 C 217.15625 165.910156 216.59375 162.253906 214.488281 158.046875 C 214.324219 157.726562 214.140625 157.375 213.929688 156.980469 C 216.761719 154.769531 219.503906 151.707031 221.625 148.1875 C 225.6875 141.421875 226.351562 134.746094 223.460938 129.871094 Z M 204.960938 159.039062 C 203.203125 158.945312 201.898438 158 201.082031 156.25 C 200.460938 154.921875 199.960938 153.6875 199.460938 152.46875 C 198.019531 148.964844 196.882812 146.191406 194.519531 145.597656 C 194.382812 145.566406 194.246094 145.582031 194.109375 145.613281 C 193.824219 145.6875 193.582031 145.902344 193.503906 146.207031 C 193.398438 146.648438 193.65625 147.105469 194.109375 147.226562 C 195.65625 147.625 196.65625 150.046875 197.914062 153.125 C 198.019531 153.382812 198.125 153.65625 198.246094 153.933594 C 198.640625 154.890625 199.082031 155.914062 199.566406 156.964844 C 200.65625 159.296875 202.488281 160.589844 204.851562 160.714844 C 204.972656 160.714844 205.09375 160.730469 205.214844 160.730469 C 207.429688 160.730469 210.003906 159.722656 212.550781 157.984375 C 212.703125 158.273438 212.851562 158.566406 212.972656 158.808594 C 214.914062 162.695312 215.246094 165.679688 214.566406 166.625 C 213.882812 167.570312 210.960938 168.195312 206.6875 167.554688 C 204.035156 167.160156 198.945312 165.972656 193.65625 162.421875 C 193.882812 162.253906 194.050781 162.160156 194.050781 162.160156 L 197.777344 160.195312 L 194.414062 159.265625 L 193.851562 159.113281 C 194.003906 157.085938 193.398438 153.871094 190.445312 148.996094 C 190.1875 148.507812 189.882812 147.578125 190.535156 146.722656 C 190.550781 146.710938 191.503906 145.628906 193.730469 144.148438 C 195.050781 143.265625 196.824219 142.257812 199.109375 141.238281 C 199.535156 141.054688 199.714844 140.554688 199.535156 140.140625 C 199.351562 139.714844 198.851562 139.53125 198.445312 139.714844 C 196.324219 140.660156 194.640625 141.589844 193.308594 142.441406 C 190.535156 144.210938 189.351562 145.566406 189.261719 145.671875 C 188.335938 146.863281 188.246094 148.355469 188.988281 149.789062 C 190.09375 151.9375 190.140625 152.410156 189.398438 154.070312 C 188.460938 156.171875 188.582031 158.261719 188.882812 159.691406 C 188.292969 159.996094 187.761719 160.347656 187.335938 160.667969 C 186.914062 160.347656 186.398438 159.996094 185.792969 159.691406 C 186.09375 158.261719 186.230469 156.171875 185.277344 154.070312 C 184.535156 152.421875 184.582031 151.9375 185.703125 149.789062 C 186.445312 148.355469 186.335938 146.863281 185.398438 145.644531 C 185.324219 145.566406 184.140625 144.210938 181.367188 142.441406 C 180.035156 141.589844 178.351562 140.660156 176.230469 139.714844 C 175.808594 139.53125 175.324219 139.714844 175.140625 140.140625 C 174.960938 140.566406 175.140625 141.054688 175.566406 141.238281 C 177.851562 142.257812 179.625 143.265625 180.945312 144.148438 C 183.15625 145.628906 184.109375 146.695312 184.109375 146.695312 C 184.792969 147.5625 184.488281 148.507812 184.230469 148.996094 C 181.292969 153.855469 180.6875 157.070312 180.835938 159.097656 L 180.277344 159.25 L 176.898438 160.179688 L 180.625 162.144531 C 180.714844 162.191406 180.867188 162.28125 181.019531 162.40625 C 175.730469 165.957031 170.640625 167.144531 167.972656 167.539062 C 163.703125 168.179688 160.777344 167.554688 160.09375 166.609375 C 159.414062 165.667969 159.746094 162.679688 161.6875 158.792969 C 161.808594 158.550781 161.960938 158.261719 162.109375 157.96875 C 164.671875 159.707031 167.230469 160.714844 169.445312 160.714844 C 169.566406 160.714844 169.6875 160.714844 169.808594 160.699219 C 172.1875 160.578125 174.019531 159.28125 175.09375 156.949219 C 175.582031 155.898438 176.019531 154.878906 176.414062 153.917969 C 176.535156 153.644531 176.640625 153.367188 176.746094 153.109375 C 178.003906 150.03125 179.003906 147.609375 180.550781 147.210938 C 180.988281 147.105469 181.261719 146.648438 181.15625 146.191406 C 181.082031 145.886719 180.835938 145.671875 180.550781 145.597656 C 180.414062 145.566406 180.277344 145.550781 180.140625 145.582031 C 177.777344 146.175781 176.640625 148.949219 175.203125 152.453125 C 174.703125 153.65625 174.203125 154.90625 173.582031 156.234375 C 172.761719 157.984375 171.460938 158.929688 169.703125 159.023438 C 165.246094 159.25 158.535156 154.117188 154.460938 147.304688 C 150.730469 141.085938 150.066406 135.035156 152.625 130.707031 C 157.050781 123.347656 164.882812 121.09375 169.171875 120.40625 C 173.082031 119.78125 175.945312 120.210938 177.65625 121.6875 C 179.066406 122.90625 179.792969 124.917969 179.792969 127.660156 C 179.792969 128.5 179.761719 129.214844 179.730469 129.855469 C 179.609375 132.550781 179.535156 134.183594 182.367188 136.910156 C 182.472656 137.015625 182.609375 137.0625 182.746094 137.109375 C 183.035156 137.183594 183.335938 137.109375 183.550781 136.878906 C 183.867188 136.546875 183.851562 136.011719 183.519531 135.691406 C 181.230469 133.496094 181.277344 132.523438 181.398438 129.929688 C 181.414062 129.597656 181.429688 129.246094 181.445312 128.878906 C 181.460938 128.5 181.460938 128.101562 181.460938 127.660156 C 181.460938 124.445312 180.566406 122.023438 178.808594 120.484375 C 181.003906 114.496094 185.246094 111.917969 187.351562 111.917969 C 189.472656 111.917969 193.703125 114.496094 195.898438 120.484375 C 194.140625 122.039062 193.246094 124.445312 193.246094 127.660156 C 193.246094 128.101562 193.261719 128.5 193.261719 128.878906 C 193.277344 129.261719 193.292969 129.613281 193.308594 129.929688 C 193.429688 132.539062 193.472656 133.496094 191.1875 135.691406 C 190.851562 136.011719 190.835938 136.546875 191.15625 136.878906 C 191.367188 137.109375 191.6875 137.171875 191.960938 137.09375 C 192.09375 137.0625 192.214844 137.003906 192.335938 136.894531 C 195.171875 134.167969 195.09375 132.539062 194.972656 129.839844 C 194.945312 129.199219 194.914062 128.484375 194.914062 127.644531 C 194.914062 124.886719 195.625 122.890625 197.050781 121.671875 C 198.761719 120.195312 201.625 119.765625 205.535156 120.390625 C 209.824219 121.078125 217.671875 123.332031 222.035156 130.707031 C 224.59375 135.035156 223.929688 141.101562 220.203125 147.304688 C 216.109375 154.128906 209.398438 159.28125 204.960938 159.039062 Z M 190.625 163.65625 C 189.988281 165.558594 188.730469 166.65625 187.351562 166.65625 C 185.988281 166.65625 184.714844 165.574219 184.082031 163.65625 C 183.445312 161.75 181.398438 160.667969 181.398438 160.667969 C 181.808594 160.5625 182.203125 160.5 182.582031 160.5 C 185.261719 160.5 187.351562 162.878906 187.351562 162.878906 C 187.351562 162.878906 189.445312 160.5 192.125 160.5 C 192.503906 160.5 192.898438 160.546875 193.308594 160.667969 C 193.308594 160.683594 191.261719 161.75 190.625 163.65625 Z M 183.519531 154.070312 C 183.59375 154.28125 183.6875 154.496094 183.792969 154.738281 C 184.503906 156.308594 184.445312 157.910156 184.230469 159.066406 C 183.714844 158.929688 183.171875 158.839844 182.582031 158.839844 C 182.550781 158.839844 182.519531 158.839844 182.488281 158.839844 C 182.445312 157.789062 182.640625 156.25 183.519531 154.070312 Z M 190.914062 154.738281 C 191.019531 154.511719 191.109375 154.28125 191.1875 154.070312 C 192.050781 156.234375 192.246094 157.789062 192.1875 158.839844 C 192.171875 158.839844 192.140625 158.839844 192.125 158.839844 C 191.550781 158.839844 190.988281 158.929688 190.472656 159.066406 C 190.261719 157.910156 190.214844 156.308594 190.914062 154.738281 Z M 187.351562 136.453125 C 185.65625 136.453125 184.277344 137.839844 184.277344 139.546875 C 184.277344 141.253906 185.65625 142.640625 187.351562 142.640625 C 189.050781 142.640625 190.429688 141.253906 190.429688 139.546875 C 190.429688 137.839844 189.050781 136.453125 187.351562 136.453125 Z M 187.351562 140.964844 C 186.582031 140.964844 185.945312 140.324219 185.945312 139.546875 C 185.945312 138.753906 186.582031 138.128906 187.351562 138.128906 C 188.140625 138.128906 188.761719 138.769531 188.761719 139.546875 C 188.761719 140.339844 188.125 140.964844 187.351562 140.964844 Z M 187.351562 140.964844 " fill-opacity="1" fill-rule="nonzero"/></g><path fill="#ec3092" d="M 192.914062 120.894531 C 192.882812 120.515625 193.15625 120.195312 193.519531 120.164062 C 193.898438 120.117188 194.214844 120.40625 194.246094 120.773438 C 194.277344 121.152344 194.003906 121.472656 193.625 121.503906 C 193.609375 121.503906 193.59375 121.503906 193.566406 121.503906 C 193.230469 121.519531 192.945312 121.246094 192.914062 120.894531 Z M 191.671875 118.304688 C 191.445312 117.894531 191.59375 117.390625 192.003906 117.160156 C 192.414062 116.949219 192.914062 117.101562 193.140625 117.496094 C 193.351562 117.910156 193.203125 118.410156 192.808594 118.625 C 192.6875 118.699219 192.535156 118.730469 192.414062 118.730469 C 192.109375 118.730469 191.824219 118.578125 191.671875 118.304688 Z M 189.882812 115.988281 C 189.503906 115.59375 189.503906 114.96875 189.898438 114.585938 C 190.292969 114.207031 190.914062 114.21875 191.308594 114.601562 C 191.6875 114.996094 191.671875 115.636719 191.277344 116.019531 C 191.09375 116.203125 190.835938 116.308594 190.59375 116.308594 C 190.335938 116.292969 190.082031 116.1875 189.882812 115.988281 Z M 186.6875 123.621094 C 186.6875 123.242188 186.988281 122.953125 187.351562 122.953125 C 187.730469 122.953125 188.019531 123.257812 188.019531 123.621094 C 188.019531 124.003906 187.714844 124.308594 187.351562 124.308594 C 186.988281 124.292969 186.6875 123.988281 186.6875 123.621094 Z M 186.519531 120.4375 C 186.519531 119.980469 186.898438 119.601562 187.351562 119.601562 C 187.808594 119.601562 188.1875 119.980469 188.1875 120.4375 C 188.1875 120.894531 187.808594 121.277344 187.351562 121.277344 C 186.898438 121.261719 186.519531 120.894531 186.519531 120.4375 Z M 186.519531 117.253906 C 186.519531 116.796875 186.898438 116.414062 187.351562 116.414062 C 187.808594 116.414062 188.1875 116.796875 188.1875 117.253906 C 188.1875 117.710938 187.808594 118.089844 187.351562 118.089844 C 186.898438 118.074219 186.519531 117.710938 186.519531 117.253906 Z M 186.367188 114.066406 C 186.367188 113.519531 186.808594 113.078125 187.351562 113.078125 C 187.898438 113.078125 188.335938 113.519531 188.335938 114.066406 C 188.335938 114.617188 187.898438 115.058594 187.351562 115.058594 C 186.808594 115.058594 186.367188 114.617188 186.367188 114.066406 Z M 210.324219 153.046875 C 210.109375 152.636719 210.261719 152.132812 210.671875 151.921875 C 211.082031 151.707031 211.59375 151.859375 211.792969 152.269531 C 212.003906 152.683594 211.851562 153.1875 211.445312 153.398438 C 211.324219 153.460938 211.1875 153.492188 211.050781 153.492188 C 210.746094 153.503906 210.460938 153.339844 210.324219 153.046875 Z M 213.082031 151.496094 C 212.824219 151.113281 212.929688 150.59375 213.308594 150.335938 C 213.6875 150.078125 214.203125 150.183594 214.460938 150.566406 C 214.714844 150.945312 214.609375 151.464844 214.230469 151.722656 C 214.09375 151.8125 213.929688 151.859375 213.777344 151.859375 C 213.503906 151.859375 213.246094 151.738281 213.082031 151.496094 Z M 215.671875 149.648438 C 215.382812 149.285156 215.429688 148.765625 215.777344 148.476562 C 216.140625 148.1875 216.65625 148.234375 216.945312 148.597656 C 217.230469 148.949219 217.1875 149.484375 216.835938 149.773438 C 216.6875 149.894531 216.503906 149.96875 216.308594 149.96875 C 216.066406 149.96875 215.835938 149.847656 215.671875 149.648438 Z M 218.082031 147.578125 C 217.761719 147.242188 217.761719 146.722656 218.09375 146.390625 C 218.414062 146.070312 218.945312 146.070312 219.261719 146.40625 C 219.582031 146.722656 219.582031 147.257812 219.261719 147.578125 C 219.109375 147.746094 218.882812 147.820312 218.671875 147.820312 C 218.445312 147.820312 218.230469 147.746094 218.082031 147.578125 Z M 219.246094 147.578125 Z M 203.035156 149.800781 C 202.988281 149.34375 203.324219 148.933594 203.777344 148.875 C 204.230469 148.828125 204.640625 149.164062 204.703125 149.621094 C 204.746094 150.078125 204.414062 150.488281 203.960938 150.535156 C 203.929688 150.550781 203.898438 150.550781 203.867188 150.550781 C 203.445312 150.550781 203.082031 150.230469 203.035156 149.800781 Z M 200.535156 150.152344 C 200.171875 150.03125 199.972656 149.664062 200.082031 149.300781 C 200.1875 148.949219 200.566406 148.75 200.929688 148.859375 C 201.277344 148.964844 201.472656 149.34375 201.367188 149.695312 C 201.277344 149.984375 201.003906 150.167969 200.714844 150.167969 C 200.65625 150.183594 200.59375 150.167969 200.535156 150.152344 Z M 206.171875 149.316406 C 206.050781 148.875 206.292969 148.402344 206.746094 148.277344 C 207.1875 148.15625 207.65625 148.414062 207.777344 148.859375 C 207.898438 149.300781 207.640625 149.773438 207.203125 149.894531 C 207.125 149.925781 207.050781 149.925781 206.972656 149.925781 C 206.59375 149.910156 206.261719 149.679688 206.171875 149.316406 Z M 209.1875 148.355469 C 209.019531 147.929688 209.230469 147.441406 209.65625 147.273438 C 210.082031 147.089844 210.566406 147.320312 210.746094 147.746094 C 210.914062 148.171875 210.703125 148.660156 210.277344 148.828125 C 210.171875 148.875 210.066406 148.886719 209.972656 148.886719 C 209.625 148.875 209.324219 148.675781 209.1875 148.355469 Z M 212.109375 147.105469 C 211.898438 146.695312 212.066406 146.191406 212.488281 145.976562 C 212.898438 145.78125 213.398438 145.949219 213.609375 146.359375 C 213.824219 146.769531 213.65625 147.273438 213.230469 147.472656 C 213.109375 147.53125 212.988281 147.5625 212.851562 147.5625 C 212.535156 147.578125 212.246094 147.410156 212.109375 147.105469 Z M 214.914062 145.644531 C 214.671875 145.246094 214.808594 144.726562 215.203125 144.5 C 215.59375 144.269531 216.109375 144.394531 216.335938 144.789062 C 216.582031 145.183594 216.445312 145.703125 216.050781 145.933594 C 215.929688 146.007812 215.777344 146.054688 215.625 146.054688 C 215.335938 146.054688 215.066406 145.902344 214.914062 145.644531 Z M 217.609375 143.964844 C 217.351562 143.585938 217.445312 143.066406 217.824219 142.808594 C 218.203125 142.535156 218.714844 142.625 218.972656 143.007812 C 219.230469 143.386719 219.140625 143.90625 218.761719 144.179688 C 218.625 144.269531 218.460938 144.332031 218.292969 144.332031 C 218.035156 144.332031 217.761719 144.195312 217.609375 143.964844 Z M 220.050781 142.199219 C 219.6875 141.773438 219.730469 141.148438 220.15625 140.796875 C 220.566406 140.429688 221.1875 140.476562 221.550781 140.902344 C 221.898438 141.316406 221.851562 141.953125 221.445312 142.304688 C 221.261719 142.472656 221.035156 142.550781 220.808594 142.550781 C 220.519531 142.535156 220.246094 142.410156 220.050781 142.199219 Z M 204.640625 144.4375 C 204.566406 144.074219 204.792969 143.707031 205.15625 143.632812 C 205.519531 143.539062 205.882812 143.785156 205.960938 144.148438 C 206.035156 144.515625 205.808594 144.867188 205.460938 144.957031 C 205.414062 144.972656 205.351562 144.972656 205.308594 144.972656 C 204.988281 144.972656 204.714844 144.742188 204.640625 144.4375 Z M 207.566406 143.738281 C 207.445312 143.296875 207.703125 142.824219 208.140625 142.703125 C 208.582031 142.578125 209.050781 142.824219 209.171875 143.28125 C 209.292969 143.722656 209.035156 144.195312 208.59375 144.316406 C 208.519531 144.347656 208.445312 144.347656 208.367188 144.347656 C 208.003906 144.347656 207.6875 144.101562 207.566406 143.738281 Z M 210.609375 142.824219 C 210.472656 142.382812 210.703125 141.910156 211.125 141.757812 C 211.566406 141.621094 212.035156 141.847656 212.171875 142.289062 C 212.324219 142.730469 212.082031 143.203125 211.65625 143.339844 C 211.566406 143.371094 211.472656 143.386719 211.398438 143.386719 C 211.050781 143.402344 210.730469 143.175781 210.609375 142.824219 Z M 213.59375 141.789062 C 213.429688 141.34375 213.65625 140.871094 214.082031 140.707031 C 214.503906 140.539062 214.988281 140.765625 215.15625 141.191406 C 215.324219 141.621094 215.109375 142.105469 214.6875 142.273438 L 214.6875 142.289062 C 214.59375 142.320312 214.488281 142.335938 214.382812 142.335938 C 214.050781 142.320312 213.730469 142.121094 213.59375 141.789062 Z M 216.550781 140.628906 C 216.367188 140.203125 216.566406 139.714844 216.988281 139.53125 C 217.414062 139.347656 217.898438 139.546875 218.082031 139.972656 C 218.261719 140.402344 218.066406 140.886719 217.640625 141.070312 C 217.535156 141.117188 217.414062 141.148438 217.308594 141.148438 C 217.003906 141.132812 216.6875 140.933594 216.550781 140.628906 Z M 201.808594 139.730469 C 201.746094 139.363281 201.988281 139.015625 202.351562 138.9375 C 202.714844 138.875 203.066406 139.121094 203.125 139.484375 C 203.1875 139.867188 202.945312 140.203125 202.582031 140.277344 C 202.535156 140.277344 202.503906 140.292969 202.460938 140.292969 C 202.140625 140.292969 201.851562 140.050781 201.808594 139.730469 Z M 204.761719 139.179688 C 204.671875 138.722656 204.972656 138.296875 205.429688 138.207031 C 205.882812 138.113281 206.324219 138.417969 206.398438 138.863281 C 206.472656 139.320312 206.1875 139.761719 205.730469 139.835938 C 205.671875 139.835938 205.625 139.851562 205.582031 139.851562 C 205.1875 139.867188 204.835938 139.59375 204.761719 139.179688 Z M 207.882812 138.585938 C 207.792969 138.128906 208.082031 137.703125 208.535156 137.597656 C 208.988281 137.503906 209.414062 137.808594 209.519531 138.25 C 209.609375 138.710938 209.324219 139.152344 208.867188 139.242188 C 208.808594 139.257812 208.761719 139.257812 208.703125 139.257812 C 208.308594 139.257812 207.960938 138.984375 207.882812 138.585938 Z M 210.988281 137.976562 C 210.898438 137.519531 211.203125 137.078125 211.65625 137.003906 C 212.109375 136.910156 212.550781 137.214844 212.625 137.65625 C 212.714844 138.113281 212.414062 138.558594 211.960938 138.632812 C 211.914062 138.648438 211.851562 138.648438 211.808594 138.648438 C 211.414062 138.648438 211.066406 138.375 210.988281 137.976562 Z M 214.09375 137.382812 C 214.019531 136.925781 214.324219 136.5 214.761719 136.421875 C 215.214844 136.332031 215.65625 136.636719 215.730469 137.09375 C 215.808594 137.550781 215.503906 137.976562 215.066406 138.054688 C 215.019531 138.070312 214.972656 138.070312 214.914062 138.070312 C 214.519531 138.085938 214.171875 137.792969 214.09375 137.382812 Z M 217.214844 136.835938 C 217.140625 136.378906 217.445312 135.949219 217.898438 135.875 C 218.351562 135.796875 218.792969 136.101562 218.851562 136.558594 C 218.929688 137.015625 218.625 137.445312 218.171875 137.519531 C 218.125 137.535156 218.082031 137.535156 218.035156 137.535156 C 217.640625 137.535156 217.292969 137.246094 217.214844 136.835938 Z M 220.1875 136.347656 C 220.09375 135.8125 220.460938 135.296875 221.003906 135.203125 C 221.535156 135.113281 222.050781 135.492188 222.140625 136.027344 C 222.230469 136.574219 221.867188 137.078125 221.324219 137.171875 C 221.261719 137.183594 221.203125 137.183594 221.15625 137.183594 C 220.6875 137.171875 220.261719 136.820312 220.1875 136.347656 Z M 202.988281 134.367188 C 202.929688 134 203.171875 133.648438 203.535156 133.589844 C 203.898438 133.527344 204.246094 133.773438 204.308594 134.136719 C 204.367188 134.503906 204.125 134.855469 203.761719 134.929688 C 203.714844 134.929688 203.6875 134.929688 203.640625 134.929688 C 203.324219 134.929688 203.050781 134.703125 202.988281 134.367188 Z M 205.960938 133.894531 C 205.898438 133.4375 206.230469 133.023438 206.6875 132.964844 C 207.140625 132.902344 207.550781 133.222656 207.609375 133.695312 C 207.65625 134.152344 207.335938 134.578125 206.882812 134.625 C 206.835938 134.625 206.808594 134.640625 206.777344 134.640625 C 206.367188 134.640625 206.003906 134.320312 205.960938 133.894531 Z M 209.109375 133.542969 C 209.066406 133.085938 209.398438 132.675781 209.867188 132.628906 C 210.324219 132.582031 210.730469 132.917969 210.777344 133.390625 C 210.824219 133.847656 210.472656 134.257812 210.019531 134.304688 C 209.988281 134.304688 209.972656 134.320312 209.945312 134.320312 C 209.503906 134.304688 209.140625 133.96875 209.109375 133.542969 Z M 212.261719 133.285156 C 212.230469 132.828125 212.59375 132.429688 213.050781 132.414062 C 213.503906 132.386719 213.898438 132.75 213.914062 133.207031 C 213.945312 133.664062 213.582031 134.0625 213.125 134.078125 C 213.109375 134.078125 213.09375 134.078125 213.082031 134.078125 C 212.65625 134.078125 212.292969 133.742188 212.261719 133.285156 Z M 216.261719 134 C 215.808594 134 215.429688 133.621094 215.445312 133.164062 C 215.460938 132.703125 215.824219 132.324219 216.277344 132.339844 C 216.730469 132.355469 217.109375 132.71875 217.09375 133.175781 C 217.082031 133.632812 216.714844 134 216.261719 134 Z M 218.746094 131.472656 C 218.230469 131.273438 217.988281 130.695312 218.1875 130.175781 C 218.367188 129.65625 218.945312 129.414062 219.460938 129.613281 C 219.972656 129.792969 220.230469 130.375 220.035156 130.890625 C 219.882812 131.289062 219.503906 131.53125 219.09375 131.53125 C 218.988281 131.53125 218.867188 131.5 218.746094 131.472656 Z M 215.898438 130.464844 C 215.445312 130.375 215.15625 129.917969 215.261719 129.472656 C 215.367188 129.015625 215.808594 128.726562 216.246094 128.835938 C 216.703125 128.925781 216.988281 129.382812 216.882812 129.824219 C 216.792969 130.222656 216.460938 130.480469 216.066406 130.480469 C 216.019531 130.480469 215.960938 130.480469 215.898438 130.464844 Z M 212.851562 129.976562 C 212.398438 129.929688 212.066406 129.519531 212.109375 129.046875 C 212.15625 128.589844 212.566406 128.253906 213.035156 128.300781 C 213.488281 128.347656 213.824219 128.757812 213.777344 129.230469 C 213.730469 129.65625 213.367188 129.976562 212.945312 129.976562 C 212.914062 129.976562 212.882812 129.976562 212.851562 129.976562 Z M 209.761719 129.765625 C 209.308594 129.75 208.945312 129.367188 208.960938 128.910156 C 208.972656 128.453125 209.351562 128.085938 209.808594 128.101562 C 210.261719 128.117188 210.625 128.515625 210.609375 128.972656 C 210.59375 129.414062 210.214844 129.777344 209.777344 129.777344 C 209.777344 129.765625 209.761719 129.765625 209.761719 129.765625 Z M 205.945312 128.941406 C 205.945312 128.558594 206.230469 128.253906 206.59375 128.238281 C 206.972656 128.226562 207.277344 128.53125 207.292969 128.894531 C 207.308594 129.277344 207.003906 129.582031 206.640625 129.597656 L 206.625 129.597656 C 206.261719 129.597656 205.960938 129.308594 205.945312 128.941406 Z M 214.914062 126.746094 C 214.488281 126.578125 214.261719 126.105469 214.429688 125.664062 C 214.582031 125.238281 215.066406 125.007812 215.503906 125.175781 C 215.945312 125.328125 216.15625 125.816406 215.988281 126.257812 C 215.867188 126.59375 215.550781 126.792969 215.214844 126.792969 C 215.109375 126.808594 215.003906 126.792969 214.914062 126.746094 Z M 211.988281 125.847656 C 211.550781 125.742188 211.261719 125.285156 211.382812 124.84375 C 211.488281 124.398438 211.945312 124.109375 212.382812 124.230469 C 212.824219 124.339844 213.109375 124.796875 212.988281 125.238281 C 212.898438 125.617188 212.550781 125.878906 212.1875 125.878906 C 212.125 125.863281 212.050781 125.863281 211.988281 125.847656 Z M 211.308594 166.078125 C 210.914062 165.878906 210.761719 165.390625 210.960938 164.996094 C 211.15625 164.597656 211.640625 164.460938 212.019531 164.660156 C 212.019531 164.660156 212.019531 164.660156 212.035156 164.660156 C 212.429688 164.859375 212.566406 165.347656 212.367188 165.726562 C 212.214844 166.015625 211.914062 166.167969 211.609375 166.152344 C 211.503906 166.152344 211.398438 166.125 211.308594 166.078125 Z M 208.582031 164.507812 C 208.214844 164.265625 208.09375 163.777344 208.324219 163.410156 C 208.566406 163.046875 209.050781 162.921875 209.414062 163.152344 C 209.414062 163.152344 209.414062 163.152344 209.429688 163.152344 C 209.792969 163.394531 209.914062 163.882812 209.6875 164.265625 C 209.519531 164.523438 209.230469 164.644531 208.960938 164.628906 C 208.808594 164.628906 208.6875 164.585938 208.582031 164.507812 Z M 206.109375 162.617188 C 205.835938 162.40625 205.777344 161.992188 205.988281 161.703125 C 206.203125 161.429688 206.609375 161.367188 206.898438 161.582031 C 207.171875 161.796875 207.230469 162.207031 207.019531 162.496094 C 206.882812 162.679688 206.671875 162.753906 206.472656 162.742188 C 206.351562 162.742188 206.214844 162.710938 206.109375 162.617188 Z M 212.335938 163.609375 C 212.09375 163.242188 212.1875 162.742188 212.550781 162.496094 C 212.914062 162.253906 213.398438 162.359375 213.640625 162.710938 C 213.882812 163.074219 213.792969 163.5625 213.429688 163.808594 C 213.292969 163.898438 213.140625 163.945312 212.988281 163.945312 C 212.746094 163.960938 212.488281 163.835938 212.335938 163.609375 Z M 210.625 161.324219 C 210.351562 161.078125 210.335938 160.683594 210.566406 160.410156 C 210.808594 160.148438 211.214844 160.121094 211.472656 160.363281 C 211.730469 160.605469 211.761719 161.019531 211.519531 161.277344 C 211.398438 161.414062 211.214844 161.492188 211.050781 161.492188 C 210.914062 161.492188 210.746094 161.445312 210.625 161.324219 Z M 207.640625 166.839844 C 207.230469 166.703125 207.003906 166.246094 207.140625 165.832031 C 207.277344 165.421875 207.730469 165.195312 208.140625 165.332031 C 208.550781 165.484375 208.777344 165.925781 208.640625 166.335938 C 208.535156 166.671875 208.214844 166.886719 207.882812 166.886719 C 207.808594 166.871094 207.714844 166.855469 207.640625 166.839844 Z M 204.730469 165.757812 C 204.335938 165.589844 204.15625 165.117188 204.324219 164.707031 C 204.488281 164.308594 204.960938 164.113281 205.367188 164.292969 C 205.761719 164.460938 205.960938 164.933594 205.777344 165.347656 C 205.640625 165.636719 205.367188 165.820312 205.050781 165.820312 C 204.945312 165.820312 204.835938 165.804688 204.730469 165.757812 Z M 201.972656 164.28125 C 201.609375 164.050781 201.488281 163.5625 201.714844 163.183594 C 201.945312 162.816406 202.429688 162.695312 202.808594 162.9375 C 203.171875 163.167969 203.292969 163.65625 203.066406 164.035156 C 202.914062 164.28125 202.65625 164.417969 202.382812 164.417969 C 202.246094 164.402344 202.109375 164.371094 201.972656 164.28125 Z M 199.519531 162.40625 C 199.230469 162.191406 199.171875 161.78125 199.398438 161.507812 C 199.609375 161.214844 200.003906 161.15625 200.292969 161.367188 C 200.582031 161.582031 200.640625 161.992188 200.414062 162.269531 C 200.292969 162.433594 200.09375 162.527344 199.898438 162.527344 C 199.777344 162.542969 199.640625 162.496094 199.519531 162.40625 Z M 163.65625 153.503906 C 163.519531 153.503906 163.398438 153.476562 163.261719 153.414062 C 162.851562 153.199219 162.703125 152.699219 162.914062 152.285156 C 163.125 151.875 163.625 151.722656 164.035156 151.9375 C 164.445312 152.148438 164.59375 152.652344 164.382812 153.0625 C 164.246094 153.339844 163.960938 153.503906 163.65625 153.503906 Z M 160.929688 151.859375 C 160.777344 151.859375 160.609375 151.8125 160.472656 151.722656 C 160.09375 151.464844 159.988281 150.945312 160.246094 150.566406 C 160.503906 150.183594 161.019531 150.078125 161.398438 150.335938 C 161.777344 150.59375 161.882812 151.113281 161.625 151.496094 C 161.460938 151.738281 161.203125 151.859375 160.929688 151.859375 Z M 158.398438 149.96875 C 158.203125 149.96875 158.019531 149.910156 157.867188 149.773438 C 157.519531 149.484375 157.460938 148.949219 157.761719 148.597656 C 158.050781 148.234375 158.582031 148.1875 158.929688 148.476562 C 159.277344 148.765625 159.335938 149.300781 159.035156 149.648438 C 158.867188 149.847656 158.640625 149.96875 158.398438 149.96875 Z M 156.050781 147.820312 C 155.835938 147.820312 155.625 147.746094 155.460938 147.578125 C 155.140625 147.257812 155.125 146.722656 155.445312 146.40625 C 155.761719 146.085938 156.292969 146.070312 156.609375 146.390625 C 156.945312 146.710938 156.945312 147.242188 156.625 147.578125 C 156.472656 147.746094 156.261719 147.820312 156.050781 147.820312 Z M 155.460938 147.578125 Z M 170.835938 150.550781 C 170.808594 150.550781 170.777344 150.550781 170.746094 150.535156 C 170.292969 150.488281 169.960938 150.078125 170.003906 149.621094 C 170.066406 149.164062 170.460938 148.828125 170.929688 148.875 C 171.382812 148.917969 171.714844 149.332031 171.671875 149.800781 C 171.625 150.230469 171.261719 150.550781 170.835938 150.550781 Z M 173.988281 150.183594 C 173.703125 150.183594 173.429688 150 173.335938 149.710938 C 173.230469 149.359375 173.429688 148.980469 173.777344 148.875 C 174.140625 148.765625 174.519531 148.964844 174.625 149.316406 C 174.730469 149.679688 174.535156 150.046875 174.171875 150.167969 C 174.109375 150.167969 174.050781 150.183594 173.988281 150.183594 Z M 167.746094 149.910156 C 167.671875 149.910156 167.59375 149.910156 167.519531 149.878906 C 167.082031 149.757812 166.824219 149.285156 166.945312 148.84375 C 167.066406 148.402344 167.535156 148.140625 167.972656 148.261719 C 168.414062 148.386719 168.671875 148.859375 168.550781 149.300781 C 168.445312 149.679688 168.109375 149.910156 167.746094 149.910156 Z M 164.746094 148.875 C 164.640625 148.875 164.535156 148.859375 164.445312 148.8125 C 164.019531 148.644531 163.808594 148.15625 163.972656 147.730469 C 164.15625 147.304688 164.625 147.089844 165.066406 147.257812 C 165.488281 147.425781 165.703125 147.914062 165.535156 148.339844 C 165.382812 148.675781 165.082031 148.875 164.746094 148.875 Z M 161.851562 147.578125 C 161.730469 147.578125 161.59375 147.546875 161.472656 147.488281 C 161.066406 147.289062 160.898438 146.785156 161.09375 146.375 C 161.308594 145.960938 161.792969 145.796875 162.214844 145.992188 C 162.625 146.207031 162.792969 146.710938 162.59375 147.121094 C 162.460938 147.410156 162.171875 147.578125 161.851562 147.578125 Z M 159.082031 146.054688 C 158.945312 146.054688 158.792969 146.007812 158.65625 145.933594 C 158.261719 145.6875 158.125 145.183594 158.367188 144.789062 C 158.609375 144.394531 159.109375 144.269531 159.503906 144.5 C 159.898438 144.742188 160.035156 145.246094 159.792969 145.644531 C 159.640625 145.902344 159.367188 146.054688 159.082031 146.054688 Z M 156.414062 144.332031 C 156.246094 144.332031 156.082031 144.269531 155.945312 144.179688 C 155.566406 143.90625 155.472656 143.386719 155.730469 143.007812 C 155.988281 142.625 156.519531 142.535156 156.882812 142.808594 C 157.261719 143.066406 157.351562 143.585938 157.09375 143.964844 C 156.945312 144.195312 156.671875 144.332031 156.414062 144.332031 Z M 153.898438 142.535156 C 153.671875 142.535156 153.445312 142.457031 153.261719 142.289062 C 152.851562 141.941406 152.808594 141.300781 153.15625 140.886719 C 153.519531 140.476562 154.140625 140.429688 154.550781 140.78125 C 154.972656 141.132812 155.019531 141.757812 154.65625 142.183594 C 154.460938 142.410156 154.1875 142.535156 153.898438 142.535156 Z M 169.398438 144.972656 C 169.351562 144.972656 169.308594 144.972656 169.246094 144.957031 C 168.882812 144.878906 168.65625 144.515625 168.746094 144.148438 C 168.824219 143.785156 169.1875 143.554688 169.550781 143.632812 C 169.914062 143.707031 170.140625 144.074219 170.066406 144.4375 C 169.988281 144.742188 169.714844 144.972656 169.398438 144.972656 Z M 166.324219 144.347656 C 166.246094 144.347656 166.171875 144.347656 166.09375 144.316406 C 165.65625 144.195312 165.398438 143.722656 165.519531 143.28125 C 165.640625 142.839844 166.109375 142.578125 166.550781 142.703125 C 166.988281 142.824219 167.246094 143.296875 167.125 143.738281 C 167.019531 144.101562 166.703125 144.347656 166.324219 144.347656 Z M 163.308594 143.402344 C 163.214844 143.402344 163.140625 143.386719 163.050781 143.355469 C 162.609375 143.21875 162.382812 142.730469 162.535156 142.304688 C 162.671875 141.863281 163.15625 141.636719 163.582031 141.773438 C 164.019531 141.910156 164.246094 142.398438 164.109375 142.839844 C 163.972656 143.175781 163.65625 143.402344 163.308594 143.402344 Z M 160.324219 142.320312 C 160.214844 142.320312 160.109375 142.304688 160.019531 142.273438 L 160.019531 142.257812 C 159.59375 142.105469 159.382812 141.621094 159.550781 141.175781 C 159.703125 140.75 160.1875 140.523438 160.625 140.691406 C 161.050781 140.859375 161.277344 141.328125 161.109375 141.773438 C 160.972656 142.121094 160.65625 142.320312 160.324219 142.320312 Z M 157.382812 141.132812 C 157.277344 141.132812 157.15625 141.101562 157.050781 141.054688 C 156.625 140.871094 156.429688 140.386719 156.609375 139.957031 C 156.792969 139.53125 157.277344 139.332031 157.703125 139.515625 C 158.125 139.699219 158.324219 140.1875 158.140625 140.613281 C 158.019531 140.933594 157.703125 141.132812 157.382812 141.132812 Z M 172.230469 140.292969 C 172.1875 140.292969 172.15625 140.292969 172.109375 140.277344 C 171.746094 140.21875 171.503906 139.867188 171.566406 139.484375 C 171.625 139.121094 171.972656 138.875 172.335938 138.9375 C 172.703125 139 172.960938 139.347656 172.882812 139.730469 C 172.851562 140.050781 172.566406 140.292969 172.230469 140.292969 Z M 169.125 139.867188 C 169.066406 139.867188 169.019531 139.851562 168.972656 139.851562 C 168.519531 139.761719 168.230469 139.320312 168.308594 138.875 C 168.398438 138.417969 168.835938 138.128906 169.277344 138.222656 C 169.730469 138.296875 170.035156 138.738281 169.945312 139.195312 C 169.867188 139.59375 169.519531 139.867188 169.125 139.867188 Z M 166.019531 139.257812 C 165.960938 139.257812 165.914062 139.242188 165.851562 139.242188 C 165.398438 139.152344 165.109375 138.710938 165.203125 138.25 C 165.292969 137.808594 165.730469 137.503906 166.1875 137.597656 C 166.640625 137.6875 166.929688 138.128906 166.835938 138.585938 C 166.746094 138.984375 166.398438 139.257812 166.019531 139.257812 Z M 162.898438 138.648438 C 162.851562 138.648438 162.792969 138.632812 162.746094 138.632812 C 162.292969 138.542969 161.988281 138.113281 162.082031 137.65625 C 162.171875 137.199219 162.59375 136.910156 163.050781 137.003906 C 163.035156 137.003906 163.035156 137.003906 163.035156 137.003906 C 163.488281 137.078125 163.792969 137.519531 163.703125 137.976562 C 163.640625 138.375 163.292969 138.648438 162.898438 138.648438 Z M 159.792969 138.085938 C 159.730469 138.085938 159.6875 138.085938 159.640625 138.070312 C 159.1875 137.992188 158.882812 137.566406 158.972656 137.109375 C 159.050781 136.652344 159.488281 136.347656 159.945312 136.4375 C 160.398438 136.515625 160.703125 136.941406 160.609375 137.398438 C 160.535156 137.792969 160.1875 138.085938 159.792969 138.085938 Z M 156.65625 137.535156 C 156.609375 137.535156 156.566406 137.519531 156.519531 137.519531 C 156.066406 137.445312 155.761719 137.015625 155.835938 136.558594 C 155.914062 136.101562 156.335938 135.796875 156.792969 135.875 C 157.246094 135.949219 157.550781 136.378906 157.472656 136.835938 C 157.414062 137.246094 157.066406 137.535156 156.65625 137.535156 Z M 153.535156 137.171875 C 153.488281 137.171875 153.429688 137.171875 153.367188 137.15625 C 152.835938 137.0625 152.460938 136.546875 152.550781 136.011719 C 152.640625 135.476562 153.140625 135.097656 153.6875 135.1875 C 154.230469 135.28125 154.59375 135.796875 154.503906 136.332031 C 154.445312 136.820312 154.019531 137.171875 153.535156 137.171875 Z M 171.050781 134.929688 C 171.019531 134.929688 170.972656 134.929688 170.929688 134.929688 C 170.566406 134.867188 170.308594 134.519531 170.382812 134.136719 C 170.445312 133.773438 170.792969 133.527344 171.15625 133.589844 C 171.535156 133.648438 171.777344 134 171.703125 134.367188 C 171.65625 134.703125 171.382812 134.929688 171.050781 134.929688 Z M 167.929688 134.640625 C 167.898438 134.640625 167.867188 134.625 167.824219 134.625 C 167.367188 134.5625 167.050781 134.152344 167.09375 133.695312 C 167.15625 133.238281 167.566406 132.917969 168.019531 132.964844 C 168.472656 133.011719 168.808594 133.4375 168.746094 133.894531 C 168.703125 134.320312 168.335938 134.640625 167.929688 134.640625 Z M 164.777344 134.304688 C 164.746094 134.304688 164.730469 134.289062 164.703125 134.289062 C 164.246094 134.246094 163.898438 133.847656 163.945312 133.375 C 163.988281 132.917969 164.382812 132.582031 164.851562 132.613281 C 165.308594 132.660156 165.65625 133.054688 165.609375 133.527344 C 165.566406 133.96875 165.203125 134.304688 164.777344 134.304688 Z M 161.609375 134.078125 C 161.59375 134.078125 161.582031 134.078125 161.566406 134.078125 C 161.109375 134.046875 160.761719 133.664062 160.777344 133.207031 C 160.808594 132.75 161.1875 132.386719 161.640625 132.414062 C 162.09375 132.445312 162.460938 132.828125 162.429688 133.285156 C 162.414062 133.742188 162.050781 134.078125 161.609375 134.078125 Z M 158.445312 134 C 157.988281 134 157.625 133.632812 157.609375 133.175781 C 157.59375 132.71875 157.972656 132.339844 158.429688 132.339844 C 158.882812 132.339844 159.261719 132.703125 159.261719 133.164062 C 159.277344 133.621094 158.914062 134 158.445312 134 Z M 155.59375 131.53125 C 155.1875 131.53125 154.808594 131.289062 154.65625 130.890625 C 154.460938 130.375 154.714844 129.792969 155.230469 129.613281 C 155.746094 129.414062 156.324219 129.671875 156.503906 130.175781 C 156.703125 130.695312 156.445312 131.273438 155.945312 131.472656 C 155.835938 131.5 155.714844 131.53125 155.59375 131.53125 Z M 158.640625 130.480469 C 158.246094 130.480469 157.914062 130.222656 157.824219 129.824219 C 157.730469 129.382812 158.019531 128.925781 158.460938 128.835938 C 158.898438 128.726562 159.351562 129.015625 159.445312 129.472656 C 159.535156 129.929688 159.246094 130.375 158.808594 130.464844 C 158.746094 130.480469 158.6875 130.480469 158.640625 130.480469 Z M 161.761719 129.976562 C 161.335938 129.976562 160.972656 129.65625 160.929688 129.230469 C 160.882812 128.773438 161.214844 128.363281 161.671875 128.300781 C 162.125 128.253906 162.535156 128.589844 162.59375 129.046875 C 162.65625 129.503906 162.324219 129.917969 161.851562 129.976562 C 161.824219 129.976562 161.792969 129.976562 161.761719 129.976562 Z M 164.914062 129.765625 C 164.472656 129.765625 164.09375 129.414062 164.082031 128.957031 C 164.066406 128.5 164.429688 128.101562 164.882812 128.085938 C 165.335938 128.074219 165.714844 128.4375 165.730469 128.894531 C 165.746094 129.351562 165.382812 129.734375 164.929688 129.75 C 164.945312 129.765625 164.929688 129.765625 164.914062 129.765625 Z M 168.082031 129.597656 C 167.6875 129.582031 167.398438 129.277344 167.414062 128.894531 C 167.429688 128.515625 167.730469 128.226562 168.109375 128.238281 C 168.488281 128.253906 168.777344 128.558594 168.761719 128.941406 C 168.746094 129.308594 168.445312 129.597656 168.082031 129.597656 Z M 159.488281 126.808594 C 159.15625 126.808594 158.835938 126.59375 158.714844 126.273438 C 158.550781 125.847656 158.761719 125.359375 159.203125 125.191406 C 159.625 125.023438 160.109375 125.253906 160.277344 125.679688 C 160.445312 126.105469 160.214844 126.59375 159.792969 126.761719 C 159.703125 126.792969 159.59375 126.808594 159.488281 126.808594 Z M 162.519531 125.863281 C 162.140625 125.863281 161.808594 125.605469 161.714844 125.222656 C 161.609375 124.78125 161.882812 124.324219 162.324219 124.21875 C 162.761719 124.109375 163.214844 124.386719 163.324219 124.828125 C 163.429688 125.285156 163.15625 125.726562 162.714844 125.832031 C 162.65625 125.863281 162.582031 125.863281 162.519531 125.863281 Z M 163.09375 166.152344 C 162.792969 166.167969 162.472656 166.015625 162.335938 165.726562 C 162.140625 165.332031 162.292969 164.859375 162.671875 164.660156 C 162.6875 164.660156 162.6875 164.660156 162.6875 164.660156 C 163.082031 164.460938 163.550781 164.613281 163.746094 164.996094 C 163.945312 165.390625 163.792969 165.878906 163.398438 166.078125 C 163.308594 166.125 163.203125 166.152344 163.09375 166.152344 Z M 165.761719 164.628906 C 165.488281 164.644531 165.203125 164.523438 165.035156 164.265625 C 164.808594 163.898438 164.914062 163.394531 165.292969 163.152344 C 165.65625 162.921875 166.140625 163.046875 166.382812 163.410156 C 166.609375 163.777344 166.488281 164.265625 166.125 164.507812 C 166.019531 164.585938 165.898438 164.628906 165.761719 164.628906 Z M 168.230469 162.753906 C 168.035156 162.769531 167.824219 162.679688 167.6875 162.511719 C 167.472656 162.222656 167.519531 161.824219 167.808594 161.597656 C 168.082031 161.382812 168.488281 161.429688 168.714844 161.71875 C 168.929688 162.007812 168.882812 162.40625 168.59375 162.632812 C 168.488281 162.710938 168.351562 162.742188 168.230469 162.753906 Z M 161.703125 163.960938 C 161.550781 163.960938 161.398438 163.914062 161.261719 163.820312 C 160.898438 163.578125 160.808594 163.089844 161.050781 162.726562 C 161.292969 162.359375 161.777344 162.269531 162.140625 162.511719 C 162.503906 162.753906 162.59375 163.242188 162.351562 163.625 C 162.214844 163.835938 161.960938 163.960938 161.703125 163.960938 Z M 163.640625 161.492188 C 163.472656 161.492188 163.292969 161.414062 163.171875 161.277344 C 162.929688 161.019531 162.960938 160.605469 163.214844 160.363281 C 163.472656 160.132812 163.882812 160.148438 164.125 160.410156 C 164.351562 160.683594 164.335938 161.078125 164.066406 161.324219 C 163.960938 161.445312 163.808594 161.492188 163.640625 161.492188 Z M 166.824219 166.871094 C 166.488281 166.871094 166.1875 166.65625 166.066406 166.320312 C 165.929688 165.910156 166.15625 165.453125 166.566406 165.316406 C 166.972656 165.179688 167.429688 165.40625 167.566406 165.820312 C 167.703125 166.230469 167.472656 166.6875 167.066406 166.824219 C 166.988281 166.855469 166.898438 166.871094 166.824219 166.871094 Z M 169.65625 165.820312 C 169.351562 165.820312 169.066406 165.636719 168.929688 165.347656 C 168.746094 164.949219 168.945312 164.476562 169.335938 164.292969 C 169.730469 164.113281 170.203125 164.308594 170.382812 164.707031 C 170.550781 165.101562 170.367188 165.574219 169.972656 165.757812 C 169.867188 165.804688 169.761719 165.820312 169.65625 165.820312 Z M 172.324219 164.402344 C 172.066406 164.402344 171.792969 164.265625 171.640625 164.019531 C 171.414062 163.65625 171.519531 163.152344 171.898438 162.921875 C 172.277344 162.695312 172.761719 162.800781 172.988281 163.167969 C 173.214844 163.546875 173.09375 164.035156 172.730469 164.265625 C 172.59375 164.371094 172.460938 164.402344 172.324219 164.402344 Z M 174.792969 162.542969 C 174.59375 162.542969 174.398438 162.449219 174.277344 162.28125 C 174.066406 161.992188 174.125 161.597656 174.398438 161.382812 C 174.6875 161.171875 175.082031 161.230469 175.292969 161.519531 C 175.503906 161.8125 175.445312 162.207031 175.171875 162.421875 C 175.066406 162.496094 174.929688 162.542969 174.792969 162.542969 Z M 190.851562 124.21875 C 190.761719 123.851562 190.972656 123.484375 191.324219 123.378906 C 191.671875 123.273438 192.050781 123.484375 192.15625 123.851562 C 192.246094 124.21875 192.035156 124.582031 191.6875 124.691406 C 191.625 124.703125 191.566406 124.71875 191.503906 124.71875 C 191.203125 124.71875 190.929688 124.523438 190.851562 124.21875 Z M 189.851562 121.183594 C 189.730469 120.742188 189.988281 120.285156 190.429688 120.164062 C 190.867188 120.042969 191.335938 120.300781 191.445312 120.742188 C 191.566406 121.183594 191.308594 121.65625 190.867188 121.777344 C 190.792969 121.792969 190.714844 121.808594 190.640625 121.808594 C 190.292969 121.792969 189.960938 121.566406 189.851562 121.183594 Z M 189.003906 118.121094 C 188.882812 117.679688 189.140625 117.207031 189.59375 117.101562 C 190.035156 116.980469 190.488281 117.238281 190.609375 117.679688 C 190.730469 118.121094 190.472656 118.59375 190.035156 118.699219 C 189.960938 118.730469 189.882812 118.730469 189.808594 118.730469 C 189.460938 118.730469 189.109375 118.488281 189.003906 118.121094 Z M 181.066406 121.519531 C 180.703125 121.488281 180.429688 121.152344 180.460938 120.789062 C 180.488281 120.421875 180.808594 120.132812 181.1875 120.179688 C 181.550781 120.210938 181.835938 120.542969 181.792969 120.910156 C 181.761719 121.261719 181.472656 121.519531 181.125 121.519531 C 181.109375 121.519531 181.09375 121.519531 181.066406 121.519531 Z M 181.914062 118.625 C 181.503906 118.394531 181.351562 117.894531 181.582031 117.496094 C 181.792969 117.085938 182.308594 116.933594 182.703125 117.160156 C 183.109375 117.390625 183.261719 117.894531 183.035156 118.304688 C 182.882812 118.578125 182.59375 118.746094 182.308594 118.746094 C 182.171875 118.730469 182.035156 118.699219 181.914062 118.625 Z M 183.414062 116.003906 C 183.019531 115.621094 183.003906 114.996094 183.398438 114.601562 C 183.777344 114.207031 184.398438 114.191406 184.792969 114.570312 C 185.1875 114.953125 185.203125 115.578125 184.824219 115.972656 C 184.625 116.171875 184.367188 116.277344 184.109375 116.277344 C 183.867188 116.292969 183.609375 116.203125 183.414062 116.003906 Z M 183.019531 124.691406 C 182.65625 124.597656 182.445312 124.21875 182.550781 123.851562 C 182.65625 123.484375 183.019531 123.273438 183.382812 123.378906 C 183.730469 123.46875 183.945312 123.851562 183.851562 124.21875 C 183.761719 124.507812 183.503906 124.71875 183.203125 124.71875 C 183.140625 124.71875 183.082031 124.703125 183.019531 124.691406 Z M 183.824219 121.765625 C 183.382812 121.640625 183.125 121.183594 183.246094 120.742188 C 183.367188 120.300781 183.824219 120.042969 184.261719 120.164062 C 184.703125 120.285156 184.960938 120.742188 184.835938 121.183594 C 184.746094 121.566406 184.398438 121.792969 184.035156 121.792969 C 183.972656 121.792969 183.898438 121.792969 183.824219 121.765625 Z M 184.671875 118.699219 C 184.230469 118.578125 183.972656 118.121094 184.09375 117.679688 C 184.214844 117.238281 184.671875 116.964844 185.109375 117.101562 C 185.550781 117.222656 185.824219 117.679688 185.6875 118.121094 C 185.582031 118.488281 185.246094 118.730469 184.882812 118.730469 C 184.808594 118.730469 184.746094 118.730469 184.671875 118.699219 Z M 184.671875 118.699219 " fill-opacity="1" fill-rule="nonzero"/><g fill="#841773" fill-opacity="1"><g transform="translate(86.650515, 212.731082)"><g><path d="M 9.03125 -2.234375 C 8.582031 -0.910156 8.132812 0.476562 7.6875 1.9375 C 7.25 3.40625 6.753906 5.078125 6.203125 6.953125 C 7.203125 6.515625 8.003906 6.140625 8.609375 5.828125 C 9.210938 5.523438 9.820312 5.238281 10.4375 4.96875 C 14.46875 3.03125 18.484375 1.082031 22.484375 -0.875 C 26.484375 -2.832031 30.523438 -4.75 34.609375 -6.625 C 36.316406 -7.394531 38.066406 -8.082031 39.859375 -8.6875 C 41.660156 -9.300781 43.472656 -9.882812 45.296875 -10.4375 C 46.617188 -10.875 47.664062 -11.050781 48.4375 -10.96875 C 49.207031 -10.882812 50.285156 -10.625 51.671875 -10.1875 C 51.441406 -9.96875 51.226562 -9.785156 51.03125 -9.640625 C 50.84375 -9.503906 50.640625 -9.410156 50.421875 -9.359375 C 43.191406 -6.597656 36.207031 -3.382812 29.46875 0.28125 C 22.738281 3.957031 16.117188 7.835938 9.609375 11.921875 C 8.503906 12.640625 7.425781 13.398438 6.375 14.203125 C 5.320312 15.003906 4.160156 15.597656 2.890625 15.984375 C 1.785156 16.253906 0.65625 16.363281 -0.5 16.3125 C -0.882812 16.257812 -1.253906 16.109375 -1.609375 15.859375 C -1.972656 15.609375 -2.347656 15.398438 -2.734375 15.234375 C -2.617188 14.347656 -2.3125 13.65625 -1.8125 13.15625 C -1.320312 12.664062 -0.828125 12.195312 -0.328125 11.75 C 0.109375 11.425781 0.4375 11.054688 0.65625 10.640625 C 0.882812 10.222656 1.023438 9.738281 1.078125 9.1875 C 1.296875 6.59375 1.75 4.050781 2.4375 1.5625 C 3.132812 -0.914062 3.835938 -3.394531 4.546875 -5.875 C 6.984375 -13.988281 9.734375 -21.976562 12.796875 -29.84375 C 15.859375 -37.707031 19.15625 -45.476562 22.6875 -53.15625 C 24.0625 -56.300781 25.476562 -59.40625 26.9375 -62.46875 C 28.40625 -65.53125 29.882812 -68.582031 31.375 -71.625 C 31.875 -72.613281 32.410156 -73.5625 32.984375 -74.46875 C 33.566406 -75.382812 34.164062 -76.285156 34.78125 -77.171875 C 35.769531 -78.660156 37.066406 -79.019531 38.671875 -78.25 C 38.941406 -77.414062 38.925781 -76.640625 38.625 -75.921875 C 38.320312 -75.203125 38.03125 -74.515625 37.75 -73.859375 C 35.925781 -69.492188 34.0625 -65.144531 32.15625 -60.8125 C 30.257812 -56.476562 28.398438 -52.132812 26.578125 -47.78125 C 23.378906 -40.320312 20.300781 -32.796875 17.34375 -25.203125 C 14.394531 -17.617188 11.625 -9.960938 9.03125 -2.234375 Z M 9.03125 -2.234375 "/></g></g></g><g fill="#841773" fill-opacity="1"><g transform="translate(139.30239, 212.731082)"><g><path d="M 27.078125 -15.40625 C 26.859375 -13.914062 26.582031 -12.421875 26.25 -10.921875 C 25.914062 -9.429688 25.664062 -7.941406 25.5 -6.453125 C 25.332031 -4.859375 25.222656 -3.234375 25.171875 -1.578125 C 25.117188 0.078125 25.0625 1.707031 25 3.3125 C 25 4.132812 25.148438 4.921875 25.453125 5.671875 C 25.765625 6.421875 26.304688 7.039062 27.078125 7.53125 C 25.304688 7.59375 24.046875 7.375 23.296875 6.875 C 22.554688 6.375 22.019531 5.320312 21.6875 3.71875 C 20.96875 0.25 20.773438 -3.140625 21.109375 -6.453125 C 21.273438 -7.835938 21.441406 -9.21875 21.609375 -10.59375 C 21.773438 -11.976562 21.914062 -13.359375 22.03125 -14.734375 C 22.082031 -14.953125 22.078125 -15.195312 22.015625 -15.46875 C 21.960938 -15.75 21.9375 -16.113281 21.9375 -16.5625 C 21.445312 -16.0625 21.003906 -15.628906 20.609375 -15.265625 C 20.222656 -14.910156 19.867188 -14.566406 19.546875 -14.234375 C 18.378906 -12.972656 17.226562 -11.707031 16.09375 -10.4375 C 14.96875 -9.164062 13.796875 -7.921875 12.578125 -6.703125 C 11.703125 -5.878906 10.789062 -5.09375 9.84375 -4.34375 C 8.90625 -3.601562 7.941406 -2.898438 6.953125 -2.234375 C 6.234375 -1.679688 5.457031 -1.265625 4.625 -0.984375 C 3.800781 -0.710938 2.945312 -0.578125 2.0625 -0.578125 C -0.300781 -0.691406 -1.457031 -1.878906 -1.40625 -4.140625 C -1.289062 -5.515625 -1.070312 -6.753906 -0.75 -7.859375 C 0.414062 -11.117188 1.90625 -14.171875 3.71875 -17.015625 C 5.539062 -19.859375 7.722656 -22.46875 10.265625 -24.84375 C 10.867188 -25.445312 11.554688 -25.984375 12.328125 -26.453125 C 13.109375 -26.921875 13.882812 -27.320312 14.65625 -27.65625 C 15.207031 -27.925781 15.8125 -28.101562 16.46875 -28.1875 C 17.132812 -28.269531 17.769531 -28.285156 18.375 -28.234375 C 19.757812 -28.179688 20.671875 -27.835938 21.109375 -27.203125 C 21.554688 -26.566406 21.722656 -25.503906 21.609375 -24.015625 C 21.609375 -23.847656 21.617188 -23.664062 21.640625 -23.46875 C 21.671875 -23.28125 21.71875 -23.046875 21.78125 -22.765625 C 22.164062 -23.097656 22.492188 -23.398438 22.765625 -23.671875 C 23.046875 -23.953125 23.320312 -24.234375 23.59375 -24.515625 C 24.3125 -25.171875 25.25 -25.472656 26.40625 -25.421875 C 27.894531 -25.304688 28.5625 -24.585938 28.40625 -23.265625 C 28.238281 -21.941406 28.039062 -20.628906 27.8125 -19.328125 C 27.59375 -18.035156 27.347656 -16.726562 27.078125 -15.40625 Z M 3.140625 -3.390625 C 4.742188 -4.109375 6.46875 -5.265625 8.3125 -6.859375 C 10.164062 -8.460938 11.945312 -10.285156 13.65625 -12.328125 C 15.375 -14.378906 16.8125 -16.394531 17.96875 -18.375 C 17.414062 -18.988281 17.164062 -19.679688 17.21875 -20.453125 C 17.269531 -21.222656 17.335938 -22.007812 17.421875 -22.8125 C 17.503906 -23.613281 17.300781 -24.34375 16.8125 -25 C 14.875 -23.84375 12.894531 -22.019531 10.875 -19.53125 C 8.863281 -17.050781 7.003906 -14.128906 5.296875 -10.765625 C 4.691406 -9.660156 4.140625 -8.523438 3.640625 -7.359375 C 3.140625 -6.203125 2.972656 -4.878906 3.140625 -3.390625 Z M 3.140625 -3.390625 "/></g></g></g><g fill="#841773" fill-opacity="1"><g transform="translate(168.939715, 212.731082)"><g><path d="M 24.265625 -23.4375 C 24.816406 -21.113281 24.757812 -18.875 24.09375 -16.71875 C 24.039062 -16.5625 23.898438 -16.359375 23.671875 -16.109375 C 23.453125 -15.859375 23.289062 -15.757812 23.1875 -15.8125 C 22.519531 -15.925781 22.019531 -16.226562 21.6875 -16.71875 C 21.519531 -17 21.394531 -17.332031 21.3125 -17.71875 C 21.238281 -18.101562 21.144531 -18.488281 21.03125 -18.875 C 20.863281 -19.320312 20.695312 -19.789062 20.53125 -20.28125 C 20.363281 -20.78125 20.171875 -21.332031 19.953125 -21.9375 C 19.566406 -21.550781 19.191406 -21.21875 18.828125 -20.9375 C 18.472656 -20.664062 18.160156 -20.363281 17.890625 -20.03125 C 16.722656 -18.539062 15.5625 -17.050781 14.40625 -15.5625 C 13.25 -14.070312 12.085938 -12.554688 10.921875 -11.015625 C 10.046875 -9.847656 9.175781 -8.644531 8.3125 -7.40625 C 7.457031 -6.164062 6.5625 -4.9375 5.625 -3.71875 C 5.1875 -3.113281 4.703125 -2.546875 4.171875 -2.015625 C 3.648438 -1.492188 3.113281 -0.957031 2.5625 -0.40625 C 1.675781 0.46875 0.519531 0.878906 -0.90625 0.828125 C -2.78125 0.828125 -3.523438 -0.0546875 -3.140625 -1.828125 C -2.921875 -2.867188 -2.5625 -3.941406 -2.0625 -5.046875 C -0.800781 -8.085938 0.460938 -11.109375 1.734375 -14.109375 C 3.003906 -17.117188 4.300781 -20.113281 5.625 -23.09375 C 5.789062 -23.539062 5.96875 -23.957031 6.15625 -24.34375 C 6.351562 -24.726562 6.566406 -25.085938 6.796875 -25.421875 C 7.453125 -26.578125 8.550781 -26.851562 10.09375 -26.25 C 9.988281 -24.257812 9.550781 -22.335938 8.78125 -20.484375 C 8.007812 -18.640625 7.566406 -16.585938 7.453125 -14.328125 C 7.953125 -14.878906 8.363281 -15.347656 8.6875 -15.734375 C 9.019531 -16.117188 9.328125 -16.445312 9.609375 -16.71875 C 10.648438 -17.988281 11.695312 -19.257812 12.75 -20.53125 C 13.800781 -21.800781 14.847656 -23.046875 15.890625 -24.265625 C 16.992188 -25.585938 18.40625 -26.300781 20.125 -26.40625 C 22.382812 -26.632812 23.765625 -25.644531 24.265625 -23.4375 Z M 24.265625 -23.4375 "/></g></g></g><g fill="#841773" fill-opacity="1"><g transform="translate(195.845108, 212.731082)"><g><path d="M 27.078125 -15.40625 C 26.859375 -13.914062 26.582031 -12.421875 26.25 -10.921875 C 25.914062 -9.429688 25.664062 -7.941406 25.5 -6.453125 C 25.332031 -4.859375 25.222656 -3.234375 25.171875 -1.578125 C 25.117188 0.078125 25.0625 1.707031 25 3.3125 C 25 4.132812 25.148438 4.921875 25.453125 5.671875 C 25.765625 6.421875 26.304688 7.039062 27.078125 7.53125 C 25.304688 7.59375 24.046875 7.375 23.296875 6.875 C 22.554688 6.375 22.019531 5.320312 21.6875 3.71875 C 20.96875 0.25 20.773438 -3.140625 21.109375 -6.453125 C 21.273438 -7.835938 21.441406 -9.21875 21.609375 -10.59375 C 21.773438 -11.976562 21.914062 -13.359375 22.03125 -14.734375 C 22.082031 -14.953125 22.078125 -15.195312 22.015625 -15.46875 C 21.960938 -15.75 21.9375 -16.113281 21.9375 -16.5625 C 21.445312 -16.0625 21.003906 -15.628906 20.609375 -15.265625 C 20.222656 -14.910156 19.867188 -14.566406 19.546875 -14.234375 C 18.378906 -12.972656 17.226562 -11.707031 16.09375 -10.4375 C 14.96875 -9.164062 13.796875 -7.921875 12.578125 -6.703125 C 11.703125 -5.878906 10.789062 -5.09375 9.84375 -4.34375 C 8.90625 -3.601562 7.941406 -2.898438 6.953125 -2.234375 C 6.234375 -1.679688 5.457031 -1.265625 4.625 -0.984375 C 3.800781 -0.710938 2.945312 -0.578125 2.0625 -0.578125 C -0.300781 -0.691406 -1.457031 -1.878906 -1.40625 -4.140625 C -1.289062 -5.515625 -1.070312 -6.753906 -0.75 -7.859375 C 0.414062 -11.117188 1.90625 -14.171875 3.71875 -17.015625 C 5.539062 -19.859375 7.722656 -22.46875 10.265625 -24.84375 C 10.867188 -25.445312 11.554688 -25.984375 12.328125 -26.453125 C 13.109375 -26.921875 13.882812 -27.320312 14.65625 -27.65625 C 15.207031 -27.925781 15.8125 -28.101562 16.46875 -28.1875 C 17.132812 -28.269531 17.769531 -28.285156 18.375 -28.234375 C 19.757812 -28.179688 20.671875 -27.835938 21.109375 -27.203125 C 21.554688 -26.566406 21.722656 -25.503906 21.609375 -24.015625 C 21.609375 -23.847656 21.617188 -23.664062 21.640625 -23.46875 C 21.671875 -23.28125 21.71875 -23.046875 21.78125 -22.765625 C 22.164062 -23.097656 22.492188 -23.398438 22.765625 -23.671875 C 23.046875 -23.953125 23.320312 -24.234375 23.59375 -24.515625 C 24.3125 -25.171875 25.25 -25.472656 26.40625 -25.421875 C 27.894531 -25.304688 28.5625 -24.585938 28.40625 -23.265625 C 28.238281 -21.941406 28.039062 -20.628906 27.8125 -19.328125 C 27.59375 -18.035156 27.347656 -16.726562 27.078125 -15.40625 Z M 3.140625 -3.390625 C 4.742188 -4.109375 6.46875 -5.265625 8.3125 -6.859375 C 10.164062 -8.460938 11.945312 -10.285156 13.65625 -12.328125 C 15.375 -14.378906 16.8125 -16.394531 17.96875 -18.375 C 17.414062 -18.988281 17.164062 -19.679688 17.21875 -20.453125 C 17.269531 -21.222656 17.335938 -22.007812 17.421875 -22.8125 C 17.503906 -23.613281 17.300781 -24.34375 16.8125 -25 C 14.875 -23.84375 12.894531 -22.019531 10.875 -19.53125 C 8.863281 -17.050781 7.003906 -14.128906 5.296875 -10.765625 C 4.691406 -9.660156 4.140625 -8.523438 3.640625 -7.359375 C 3.140625 -6.203125 2.972656 -4.878906 3.140625 -3.390625 Z M 3.140625 -3.390625 "/></g></g></g><g fill="#841773" fill-opacity="1"><g transform="translate(225.482433, 212.731082)"><g><path d="M 28.640625 -9.265625 C 29.972656 -10.097656 31.269531 -11.023438 32.53125 -12.046875 C 33.800781 -13.066406 35.378906 -13.6875 37.265625 -13.90625 C 37.035156 -13.570312 36.863281 -13.304688 36.75 -13.109375 C 36.644531 -12.921875 36.539062 -12.773438 36.4375 -12.671875 C 34.382812 -10.953125 32.335938 -9.238281 30.296875 -7.53125 C 28.253906 -5.820312 26.210938 -4.140625 24.171875 -2.484375 C 23.128906 -1.648438 21.941406 -0.957031 20.609375 -0.40625 C 20.171875 -0.25 19.6875 -0.15625 19.15625 -0.125 C 18.632812 -0.09375 18.15625 -0.109375 17.71875 -0.171875 C 16.28125 -0.328125 15.59375 -1.097656 15.65625 -2.484375 C 15.65625 -3.148438 15.691406 -3.828125 15.765625 -4.515625 C 15.847656 -5.203125 16.003906 -5.878906 16.234375 -6.546875 C 16.835938 -8.472656 17.46875 -10.390625 18.125 -12.296875 C 18.789062 -14.203125 19.425781 -16.117188 20.03125 -18.046875 C 20.195312 -18.546875 20.40625 -19.054688 20.65625 -19.578125 C 20.90625 -20.109375 20.890625 -20.757812 20.609375 -21.53125 C 19.835938 -20.863281 19.078125 -20.238281 18.328125 -19.65625 C 17.585938 -19.082031 16.890625 -18.492188 16.234375 -17.890625 C 15.128906 -16.835938 14.035156 -15.769531 12.953125 -14.6875 C 11.878906 -13.613281 10.816406 -12.554688 9.765625 -11.515625 C 9.109375 -10.898438 8.460938 -10.289062 7.828125 -9.6875 C 7.191406 -9.082031 6.515625 -8.503906 5.796875 -7.953125 C 5.410156 -7.671875 4.992188 -7.40625 4.546875 -7.15625 C 4.109375 -6.914062 3.640625 -6.738281 3.140625 -6.625 C 1.765625 -6.34375 0.757812 -6.503906 0.125 -7.109375 C -0.507812 -7.722656 -0.632812 -8.75 -0.25 -10.1875 C 0.25 -12.113281 0.785156 -14.039062 1.359375 -15.96875 C 1.941406 -17.90625 2.507812 -19.84375 3.0625 -21.78125 C 3.34375 -21.882812 3.601562 -21.988281 3.84375 -22.09375 C 4.09375 -22.207031 4.328125 -22.296875 4.546875 -22.359375 C 5.816406 -22.359375 6.660156 -22.125 7.078125 -21.65625 C 7.492188 -21.1875 7.5625 -20.34375 7.28125 -19.125 C 7.007812 -18.070312 6.691406 -16.976562 6.328125 -15.84375 C 5.972656 -14.71875 5.578125 -13.46875 5.140625 -12.09375 C 5.691406 -12.414062 6.101562 -12.660156 6.375 -12.828125 C 6.65625 -12.992188 6.90625 -13.1875 7.125 -13.40625 C 8.164062 -14.457031 9.222656 -15.519531 10.296875 -16.59375 C 11.378906 -17.675781 12.472656 -18.710938 13.578125 -19.703125 C 14.515625 -20.585938 15.476562 -21.398438 16.46875 -22.140625 C 17.46875 -22.890625 18.492188 -23.648438 19.546875 -24.421875 C 20.585938 -25.191406 21.882812 -25.550781 23.4375 -25.5 C 25.75 -25.445312 26.738281 -24.34375 26.40625 -22.1875 C 26.300781 -21.53125 26.148438 -20.867188 25.953125 -20.203125 C 25.765625 -19.535156 25.554688 -18.875 25.328125 -18.21875 C 24.671875 -16.445312 23.992188 -14.675781 23.296875 -12.90625 C 22.609375 -11.144531 21.960938 -9.382812 21.359375 -7.625 C 21.140625 -7.007812 20.945312 -6.382812 20.78125 -5.75 C 20.613281 -5.113281 20.421875 -4.382812 20.203125 -3.5625 C 21.910156 -4.382812 23.410156 -5.320312 24.703125 -6.375 C 26.003906 -7.425781 27.316406 -8.390625 28.640625 -9.265625 Z M 28.640625 -9.265625 "/></g></g></g><g fill="#841773" fill-opacity="1"><g transform="translate(256.60991, 212.731082)"><g><path d="M 27.078125 -15.40625 C 26.859375 -13.914062 26.582031 -12.421875 26.25 -10.921875 C 25.914062 -9.429688 25.664062 -7.941406 25.5 -6.453125 C 25.332031 -4.859375 25.222656 -3.234375 25.171875 -1.578125 C 25.117188 0.078125 25.0625 1.707031 25 3.3125 C 25 4.132812 25.148438 4.921875 25.453125 5.671875 C 25.765625 6.421875 26.304688 7.039062 27.078125 7.53125 C 25.304688 7.59375 24.046875 7.375 23.296875 6.875 C 22.554688 6.375 22.019531 5.320312 21.6875 3.71875 C 20.96875 0.25 20.773438 -3.140625 21.109375 -6.453125 C 21.273438 -7.835938 21.441406 -9.21875 21.609375 -10.59375 C 21.773438 -11.976562 21.914062 -13.359375 22.03125 -14.734375 C 22.082031 -14.953125 22.078125 -15.195312 22.015625 -15.46875 C 21.960938 -15.75 21.9375 -16.113281 21.9375 -16.5625 C 21.445312 -16.0625 21.003906 -15.628906 20.609375 -15.265625 C 20.222656 -14.910156 19.867188 -14.566406 19.546875 -14.234375 C 18.378906 -12.972656 17.226562 -11.707031 16.09375 -10.4375 C 14.96875 -9.164062 13.796875 -7.921875 12.578125 -6.703125 C 11.703125 -5.878906 10.789062 -5.09375 9.84375 -4.34375 C 8.90625 -3.601562 7.941406 -2.898438 6.953125 -2.234375 C 6.234375 -1.679688 5.457031 -1.265625 4.625 -0.984375 C 3.800781 -0.710938 2.945312 -0.578125 2.0625 -0.578125 C -0.300781 -0.691406 -1.457031 -1.878906 -1.40625 -4.140625 C -1.289062 -5.515625 -1.070312 -6.753906 -0.75 -7.859375 C 0.414062 -11.117188 1.90625 -14.171875 3.71875 -17.015625 C 5.539062 -19.859375 7.722656 -22.46875 10.265625 -24.84375 C 10.867188 -25.445312 11.554688 -25.984375 12.328125 -26.453125 C 13.109375 -26.921875 13.882812 -27.320312 14.65625 -27.65625 C 15.207031 -27.925781 15.8125 -28.101562 16.46875 -28.1875 C 17.132812 -28.269531 17.769531 -28.285156 18.375 -28.234375 C 19.757812 -28.179688 20.671875 -27.835938 21.109375 -27.203125 C 21.554688 -26.566406 21.722656 -25.503906 21.609375 -24.015625 C 21.609375 -23.847656 21.617188 -23.664062 21.640625 -23.46875 C 21.671875 -23.28125 21.71875 -23.046875 21.78125 -22.765625 C 22.164062 -23.097656 22.492188 -23.398438 22.765625 -23.671875 C 23.046875 -23.953125 23.320312 -24.234375 23.59375 -24.515625 C 24.3125 -25.171875 25.25 -25.472656 26.40625 -25.421875 C 27.894531 -25.304688 28.5625 -24.585938 28.40625 -23.265625 C 28.238281 -21.941406 28.039062 -20.628906 27.8125 -19.328125 C 27.59375 -18.035156 27.347656 -16.726562 27.078125 -15.40625 Z M 3.140625 -3.390625 C 4.742188 -4.109375 6.46875 -5.265625 8.3125 -6.859375 C 10.164062 -8.460938 11.945312 -10.285156 13.65625 -12.328125 C 15.375 -14.378906 16.8125 -16.394531 17.96875 -18.375 C 17.414062 -18.988281 17.164062 -19.679688 17.21875 -20.453125 C 17.269531 -21.222656 17.335938 -22.007812 17.421875 -22.8125 C 17.503906 -23.613281 17.300781 -24.34375 16.8125 -25 C 14.875 -23.84375 12.894531 -22.019531 10.875 -19.53125 C 8.863281 -17.050781 7.003906 -14.128906 5.296875 -10.765625 C 4.691406 -9.660156 4.140625 -8.523438 3.640625 -7.359375 C 3.140625 -6.203125 2.972656 -4.878906 3.140625 -3.390625 Z M 3.140625 -3.390625 "/></g></g></g><g clip-path="url(#2c09018ea1)"><path fill="#ec3092" d="M 183.332031 258.175781 L 131.585938 258.175781 C 126.027344 258.175781 120.480469 258.035156 114.949219 257.753906 L 112.144531 257.597656 L 114.949219 257.453125 C 120.476562 257.171875 126.023438 257.03125 131.585938 257.03125 L 183.332031 257.03125 Z M 260.046875 257.457031 C 254.519531 257.175781 248.972656 257.035156 243.40625 257.035156 L 191.664062 257.035156 L 191.664062 258.179688 L 243.40625 258.179688 C 248.96875 258.179688 254.511719 258.039062 260.046875 257.757812 L 262.851562 257.613281 Z M 190.421875 257.597656 L 187.496094 254.679688 L 184.574219 257.597656 L 187.496094 260.527344 Z M 189.074219 263.152344 L 187.496094 261.582031 L 185.921875 263.15625 L 187.496094 264.734375 Z M 185.75 260.761719 L 184.171875 259.183594 L 182.597656 260.761719 L 184.171875 262.339844 Z M 192.398438 260.761719 L 190.820312 259.183594 L 189.246094 260.761719 L 190.820312 262.339844 Z M 192.398438 260.761719 " fill-opacity="1" fill-rule="nonzero"/></g><g fill="#841773" fill-opacity="1"><g transform="translate(119.288792, 244.088365)"><g><path d="M 9.40625 -7.8125 C 9.40625 -6.644531 8.929688 -5.847656 7.984375 -5.421875 C 8.859375 -5.128906 9.457031 -4.597656 9.78125 -3.828125 C 9.894531 -3.523438 9.953125 -3.179688 9.953125 -2.796875 C 9.953125 -1.503906 9.273438 -0.644531 7.921875 -0.21875 C 7.472656 -0.0703125 6.941406 0 6.328125 0 L 1.296875 0 L 1.296875 -10.609375 L 6.0625 -10.609375 C 7.207031 -10.609375 8.078125 -10.300781 8.671875 -9.6875 C 9.160156 -9.195312 9.40625 -8.570312 9.40625 -7.8125 Z M 2.5 -5.875 L 6.0625 -5.875 C 7.039062 -5.875 7.695312 -6.207031 8.03125 -6.875 C 8.144531 -7.113281 8.203125 -7.367188 8.203125 -7.640625 C 8.203125 -7.910156 8.164062 -8.148438 8.09375 -8.359375 C 8.019531 -8.566406 7.90625 -8.75 7.75 -8.90625 C 7.394531 -9.28125 6.875 -9.46875 6.1875 -9.46875 L 2.5 -9.46875 Z M 6.453125 -1.140625 C 7.191406 -1.140625 7.757812 -1.289062 8.15625 -1.59375 C 8.550781 -1.894531 8.75 -2.328125 8.75 -2.890625 C 8.75 -3.421875 8.554688 -3.859375 8.171875 -4.203125 C 7.742188 -4.585938 7.128906 -4.78125 6.328125 -4.78125 L 2.5 -4.78125 L 2.5 -1.140625 Z M 6.453125 -1.140625 "/></g></g></g><g fill="#841773" fill-opacity="1"><g transform="translate(131.691478, 244.088365)"><g><path d="M 2.5 -9.453125 L 2.5 -5.90625 L 8.40625 -5.90625 L 8.40625 -4.734375 L 2.5 -4.734375 L 2.5 -1.15625 L 9.109375 -1.15625 L 9.109375 0 L 1.296875 0 L 1.296875 -10.609375 L 9.109375 -10.609375 L 9.109375 -9.453125 Z M 2.5 -9.453125 "/></g></g></g><g fill="#841773" fill-opacity="1"><g transform="translate(143.228963, 244.088365)"><g><path d="M 10.5625 0 L 9.234375 0 L 7.9375 -3.078125 L 2.671875 -3.078125 L 1.375 0 L 0.046875 0 L 4.546875 -10.609375 L 6.0625 -10.609375 Z M 7.46875 -4.1875 L 5.3125 -9.359375 L 3.140625 -4.1875 Z M 7.46875 -4.1875 "/></g></g></g><g fill="#841773" fill-opacity="1"><g transform="translate(155.631649, 244.088365)"><g><path d="M 10.203125 -10.609375 L 10.203125 -4.5625 C 10.203125 -3.15625 9.78125 -2.019531 8.9375 -1.15625 C 8.09375 -0.300781 7.003906 0.125 5.671875 0.125 C 4.347656 0.125 3.265625 -0.300781 2.421875 -1.15625 C 1.585938 -2.019531 1.171875 -3.15625 1.171875 -4.5625 L 1.171875 -10.609375 L 2.375 -10.609375 L 2.375 -4.53125 C 2.375 -3.394531 2.71875 -2.503906 3.40625 -1.859375 C 3.988281 -1.316406 4.742188 -1.046875 5.671875 -1.046875 C 6.597656 -1.046875 7.363281 -1.316406 7.96875 -1.859375 C 8.65625 -2.492188 9 -3.382812 9 -4.53125 L 9 -10.609375 Z M 10.203125 -10.609375 "/></g></g></g><g fill="#841773" fill-opacity="1"><g transform="translate(168.787387, 244.088365)"><g><path d="M 8.828125 -9.453125 L 5.125 -9.453125 L 5.125 0 L 3.921875 0 L 3.921875 -9.453125 L 0.21875 -9.453125 L 0.21875 -10.609375 L 8.828125 -10.609375 Z M 8.828125 -9.453125 "/></g></g></g><g fill="#841773" fill-opacity="1"><g transform="translate(179.635917, 244.088365)"><g><path d="M 5.640625 0 L 4.4375 0 L 4.4375 -4.203125 L -0.015625 -10.609375 L 1.4375 -10.609375 L 5.03125 -5.453125 L 8.625 -10.609375 L 10.078125 -10.609375 L 5.640625 -4.203125 Z M 5.640625 0 "/></g></g></g><g fill="#841773" fill-opacity="1"><g transform="translate(191.509871, 244.088365)"><g/></g></g><g fill="#841773" fill-opacity="1"><g transform="translate(196.718568, 244.088365)"><g><path d="M 6.03125 -1.046875 C 6.789062 -1.046875 7.453125 -1.238281 8.015625 -1.625 C 8.585938 -2.007812 9.015625 -2.523438 9.296875 -3.171875 L 10.5625 -3.171875 C 10.207031 -2.171875 9.625 -1.378906 8.8125 -0.796875 C 7.945312 -0.179688 6.925781 0.125 5.75 0.125 C 4.207031 0.125 2.953125 -0.398438 1.984375 -1.453125 C 1.078125 -2.472656 0.625 -3.753906 0.625 -5.296875 C 0.625 -6.847656 1.078125 -8.132812 1.984375 -9.15625 C 2.953125 -10.207031 4.207031 -10.734375 5.75 -10.734375 C 6.925781 -10.734375 7.945312 -10.425781 8.8125 -9.8125 C 9.625 -9.238281 10.207031 -8.445312 10.5625 -7.4375 L 9.296875 -7.4375 C 9.015625 -8.09375 8.585938 -8.613281 8.015625 -9 C 7.453125 -9.382812 6.789062 -9.578125 6.03125 -9.578125 C 5.269531 -9.578125 4.632812 -9.460938 4.125 -9.234375 C 3.625 -9.015625 3.207031 -8.71875 2.875 -8.34375 C 2.175781 -7.5625 1.828125 -6.550781 1.828125 -5.3125 C 1.828125 -4.070312 2.175781 -3.0625 2.875 -2.28125 C 3.59375 -1.457031 4.644531 -1.046875 6.03125 -1.046875 Z M 6.03125 -1.046875 "/></g></g></g><g fill="#841773" fill-opacity="1"><g transform="translate(209.569876, 244.088365)"><g><path d="M 2.5 -10.609375 L 2.5 -1.15625 L 8.28125 -1.15625 L 8.28125 0 L 1.296875 0 L 1.296875 -10.609375 Z M 2.5 -10.609375 "/></g></g></g><g fill="#841773" fill-opacity="1"><g transform="translate(219.905694, 244.088365)"><g><path d="M 2.5 0 L 1.296875 0 L 1.296875 -10.609375 L 2.5 -10.609375 Z M 2.5 0 "/></g></g></g><g fill="#841773" fill-opacity="1"><g transform="translate(225.498927, 244.088365)"><g><path d="M 10.453125 -10.609375 L 10.453125 0 L 9.0625 0 L 2.5 -8.96875 L 2.5 0 L 1.296875 0 L 1.296875 -10.609375 L 2.6875 -10.609375 L 9.25 -1.6875 L 9.25 -10.609375 Z M 10.453125 -10.609375 "/></g></g></g><g fill="#841773" fill-opacity="1"><g transform="translate(239.039193, 244.088365)"><g><path d="M 2.5 0 L 1.296875 0 L 1.296875 -10.609375 L 2.5 -10.609375 Z M 2.5 0 "/></g></g></g><g fill="#841773" fill-opacity="1"><g transform="translate(244.632426, 244.088365)"><g><path d="M 6.03125 -1.046875 C 6.789062 -1.046875 7.453125 -1.238281 8.015625 -1.625 C 8.585938 -2.007812 9.015625 -2.523438 9.296875 -3.171875 L 10.5625 -3.171875 C 10.207031 -2.171875 9.625 -1.378906 8.8125 -0.796875 C 7.945312 -0.179688 6.925781 0.125 5.75 0.125 C 4.207031 0.125 2.953125 -0.398438 1.984375 -1.453125 C 1.078125 -2.472656 0.625 -3.753906 0.625 -5.296875 C 0.625 -6.847656 1.078125 -8.132812 1.984375 -9.15625 C 2.953125 -10.207031 4.207031 -10.734375 5.75 -10.734375 C 6.925781 -10.734375 7.945312 -10.425781 8.8125 -9.8125 C 9.625 -9.238281 10.207031 -8.445312 10.5625 -7.4375 L 9.296875 -7.4375 C 9.015625 -8.09375 8.585938 -8.613281 8.015625 -9 C 7.453125 -9.382812 6.789062 -9.578125 6.03125 -9.578125 C 5.269531 -9.578125 4.632812 -9.460938 4.125 -9.234375 C 3.625 -9.015625 3.207031 -8.71875 2.875 -8.34375 C 2.175781 -7.5625 1.828125 -6.550781 1.828125 -5.3125 C 1.828125 -4.070312 2.175781 -3.0625 2.875 -2.28125 C 3.59375 -1.457031 4.644531 -1.046875 6.03125 -1.046875 Z M 6.03125 -1.046875 "/></g></g></g></svg>