<svg xmlns="http://www.w3.org/2000/svg" xmlns:xlink="http://www.w3.org/1999/xlink" width="500" zoomAndPan="magnify" viewBox="0 0 375 374.999991" height="500" preserveAspectRatio="xMidYMid meet" version="1.0"><defs><g/><clipPath id="44600747fa"><path d="M 48 140 L 336 140 L 336 241 L 48 241 Z M 48 140 " clip-rule="nonzero"/></clipPath><clipPath id="3bf5e40a1a"><path d="M 42.316406 163.183594 L 330.050781 125.054688 L 342.367188 217.992188 L 54.632812 256.121094 Z M 42.316406 163.183594 " clip-rule="nonzero"/></clipPath><clipPath id="0a9e05e07b"><path d="M 42.316406 163.183594 L 330.050781 125.054688 L 342.367188 217.992188 L 54.632812 256.121094 Z M 42.316406 163.183594 " clip-rule="nonzero"/></clipPath><clipPath id="4424486bec"><path d="M 45 153 L 71.761719 153 L 71.761719 178.46875 L 45 178.46875 Z M 45 153 " clip-rule="nonzero"/></clipPath><clipPath id="f4e350f998"><path d="M 38 177.558594 L 51.480469 177.558594 L 51.480469 190.308594 L 38 190.308594 Z M 38 177.558594 " clip-rule="nonzero"/></clipPath><clipPath id="8d175ea040"><path d="M 269 117 L 291 117 L 291 137.699219 L 269 137.699219 Z M 269 117 " clip-rule="nonzero"/></clipPath><clipPath id="21ffe06bf4"><path d="M 301.164062 215.496094 L 314.664062 215.496094 L 314.664062 228.246094 L 301.164062 228.246094 Z M 301.164062 215.496094 " clip-rule="nonzero"/></clipPath></defs><rect x="-37.5" width="450" fill="#ffffff" y="-37.499999" height="449.999989" fill-opacity="1"/><rect x="-37.5" width="450" fill="#ffffff" y="-37.499999" height="449.999989" fill-opacity="1"/><g clip-path="url(#44600747fa)"><g clip-path="url(#3bf5e40a1a)"><g clip-path="url(#0a9e05e07b)"><path fill="#ff1ba7" d="M 185.984375 144.148438 C 106.726562 154.648438 45.226562 183.914062 48.613281 209.476562 C 52 235.039062 119 247.277344 198.257812 236.773438 C 277.515625 226.269531 339.015625 197.007812 335.628906 171.445312 C 332.238281 145.882812 265.242188 133.644531 185.984375 144.148438 Z M 198.070312 235.351562 C 131.933594 244.117188 75.660156 231.125 72.375 206.355469 C 69.09375 181.585938 120.039062 154.359375 186.175781 145.59375 C 252.3125 136.832031 308.585938 149.820312 311.871094 174.59375 C 315.152344 199.363281 264.199219 226.5625 198.066406 235.324219 Z M 198.070312 235.351562 " fill-opacity="1" fill-rule="nonzero"/></g></g></g><path stroke-linecap="butt" transform="matrix(2.039349, 0, 0, 2.039349, 35.215933, 112.028825)" fill="none" stroke-linejoin="miter" d="M 42.740578 15.85528 C 44.372533 14.719425 46.111752 13.86897 47.962066 13.303915 C 49.810465 12.731199 51.693342 12.445798 53.612612 12.445798 C 55.114316 12.445798 56.510672 12.622019 57.803593 12.978291 C 59.106092 13.334562 60.226624 13.834492 61.163274 14.476164 C 62.109501 15.110175 62.846945 15.85528 63.377522 16.715313 C 63.906183 17.565768 64.170513 18.487094 64.170513 19.475461 C 64.170513 21.402393 63.381352 22.934744 61.801115 24.072515 C 60.220878 25.208371 58.117725 25.777256 55.487827 25.777256 C 54.740806 25.777256 54.079979 25.75044 53.507263 25.698723 C 52.944124 25.647006 52.331183 25.533995 51.672272 25.361606 C 51.011445 25.177724 50.256762 24.917224 49.406307 24.580107 C 48.555852 24.241074 47.471714 23.785199 46.151976 23.212483 C 46.08302 23.39445 46.046627 23.545769 46.046627 23.668357 C 46.046627 23.78903 46.046627 23.905872 46.046627 24.018883 C 46.046627 25.009165 46.793648 26.054995 48.287691 27.158288 C 48.391124 27.227244 48.494558 27.30003 48.599907 27.378563 C 48.712918 27.447519 48.925532 27.583515 49.237749 27.782721 C 49.557627 27.974265 50.03074 28.263496 50.657089 28.654246 C 51.281522 29.044996 52.179863 29.579403 53.352112 30.255553 C 55.416956 31.496758 56.910998 32.839481 57.830409 34.279891 C 58.759397 35.720302 59.222934 37.400142 59.222934 39.317497 C 59.222934 41.384256 58.759397 43.272879 57.830409 44.981451 C 56.910998 46.682361 55.595092 48.145756 53.884604 49.369722 C 52.176033 50.60135 50.139921 51.553323 47.778184 52.221811 C 45.418363 52.897961 42.796126 53.236994 39.915305 53.236994 C 37.388841 53.236994 35.101806 52.959255 33.054202 52.403778 C 31.014259 51.855962 29.255886 51.08404 27.780997 50.086096 C 26.304194 49.095814 25.168338 47.889088 24.3696 46.465916 C 23.570862 45.042745 23.170535 43.479746 23.170535 41.778836 C 23.170535 40.355665 23.471259 39.022519 24.068876 37.781314 C 24.677986 36.532448 25.497794 35.438732 26.530216 34.500167 C 27.562637 33.55394 28.769364 32.816496 30.150396 32.287834 C 31.539089 31.749596 33.031217 31.479519 34.628693 31.479519 C 35.661115 31.479519 36.672467 31.596361 37.662749 31.83196 C 38.660693 32.057982 39.541795 32.35679 40.306055 32.730301 C 41.077977 33.103811 41.70241 33.53287 42.18127 34.019391 C 42.658215 34.496336 42.895729 34.982857 42.895729 35.477041 C 42.895729 35.659008 42.888067 35.802665 42.870828 35.906099 C 42.853589 36.011448 42.792295 36.118713 42.688862 36.231724 C 42.583512 36.337073 42.414954 36.461577 42.18127 36.609065 C 41.945671 36.748892 41.633455 36.923197 41.242705 37.130065 C 40.461206 37.520815 40.070456 38.181641 40.070456 39.110629 C 40.070456 39.926606 40.426728 40.619995 41.139271 41.192712 C 41.849899 41.757766 42.72334 42.039336 43.755761 42.039336 C 44.893532 42.039336 45.851252 41.713711 46.632751 41.062462 C 47.41425 40.403551 47.805 39.591404 47.805 38.627938 C 47.805 38.202711 47.732213 37.794722 47.582809 37.403973 C 47.444897 37.013223 47.205467 36.614812 46.86835 36.206823 C 46.529317 35.789257 46.063866 35.350622 45.47391 34.890916 C 44.893532 34.431211 44.177158 33.896803 43.326703 33.289609 C 41.122032 31.83196 39.555203 30.456674 38.626215 29.161837 C 37.706804 27.861254 37.245183 26.394028 37.245183 24.762073 C 37.245183 24.04953 37.350532 23.356141 37.5574 22.678075 C 37.77576 22.001925 38.17034 21.094007 38.743057 19.958151 C 37.814069 19.567402 37.080455 19.310733 36.542217 19.19006 C 36.013556 19.067472 35.500218 19.006178 35.006035 19.006178 C 34.155579 19.006178 33.435374 19.262847 32.845419 19.774269 C 32.263125 20.287607 31.971979 20.93311 31.971979 21.714609 C 31.971979 22.427153 32.211409 23.007531 32.688353 23.459575 C 33.165297 23.902041 33.812716 24.15871 34.628693 24.227666 C 35.557681 24.333015 36.021217 24.687371 36.021217 25.296481 C 36.021217 25.721708 35.825843 26.112458 35.435093 26.466814 C 35.046259 26.823086 34.519513 27.14488 33.860602 27.43028 C 33.201691 27.717596 32.4336 27.937872 31.556328 28.094938 C 30.688634 28.252004 29.776885 28.328621 28.821081 28.328621 C 27.294476 28.328621 25.905782 28.125585 24.655 27.717596 C 23.413796 27.309608 22.346896 26.73306 21.452386 25.986039 C 20.567453 25.239018 19.877895 24.354085 19.381796 23.329325 C 18.887613 22.296903 18.640521 21.155301 18.640521 19.904519 C 18.640521 18.663314 18.904852 17.500643 19.433513 16.416504 C 19.96409 15.33045 20.680464 14.389969 21.582636 13.591231 C 22.494385 12.792493 23.561285 12.162313 24.78525 11.702608 C 26.018793 11.233325 27.346193 10.999642 28.769364 10.999642 C 29.44743 10.999642 30.085271 11.037951 30.682888 11.116484 C 31.291998 11.185439 31.950909 11.321436 32.663452 11.520641 C 33.37408 11.712185 34.165157 11.976516 35.032851 12.315549 C 35.900545 12.645004 36.925305 13.077893 38.105215 13.616132 C 38.704748 13.86897 39.206593 14.094992 39.614582 14.294197 C 40.02257 14.483826 40.396081 14.661962 40.735113 14.82669 C 41.074146 14.983756 41.394025 15.140822 41.698579 15.295972 C 42.003134 15.453038 42.349829 15.638836 42.740578 15.85528 Z M 49.718524 19.423744 C 52.105161 20.38721 53.760101 20.867985 54.679512 20.867985 C 55.070261 20.867985 55.416956 20.747312 55.721511 20.504052 C 56.02415 20.253129 56.177385 19.965813 56.177385 19.644019 C 56.177385 19.184314 55.899647 18.810803 55.344169 18.525403 C 54.796353 18.238087 54.116373 18.096344 53.300395 18.096344 C 52.059191 18.096344 50.863957 18.538811 49.718524 19.423744 Z M 63.804665 29.188654 C 63.908098 28.797904 63.97897 28.468448 64.013447 28.198371 C 64.047925 27.93021 64.065164 27.708019 64.065164 27.535629 C 64.065164 27.14488 63.9828 26.826917 63.818073 26.583656 C 63.661007 26.332733 63.36986 26.047333 62.944632 25.725539 C 64.369719 24.622246 65.622416 23.842662 66.708471 23.381042 C 67.792609 22.913674 68.920803 22.678075 70.093052 22.678075 C 71.090996 22.678075 71.855256 22.896435 72.385833 23.329325 C 72.922156 23.754552 73.192233 24.340677 73.192233 25.087698 C 73.192233 25.22561 73.182655 25.413323 73.165416 25.647006 C 73.148178 25.873028 73.100292 26.112458 73.023674 26.363381 L 72.657825 28.276904 C 73.692162 27.566276 74.607742 27.070178 75.40648 26.792439 C 76.203303 26.507038 77.063335 26.363381 77.982746 26.363381 C 79.909678 26.363381 81.459269 27.031869 82.631518 28.368845 C 83.803766 29.696245 84.389891 31.427802 84.389891 33.563517 C 84.389891 35.480872 84.050858 37.390565 83.374708 39.292596 C 82.696643 41.192712 81.771485 42.889791 80.601152 44.383834 C 79.785175 45.416255 78.798724 46.218824 77.645629 46.791541 C 76.490619 47.356595 75.287723 47.638165 74.038857 47.638165 C 72.935564 47.638165 71.985506 47.433213 71.186768 47.025224 C 70.388029 46.617236 69.58163 45.950663 68.765652 45.021675 L 66.83872 53.614336 C 66.560982 54.968551 66.091699 55.935848 65.432788 56.518142 C 64.771961 57.108097 63.87362 57.403075 62.737765 57.403075 L 60.444984 57.403075 C 60.090628 57.403075 59.776496 57.420314 59.508334 57.454791 C 59.238257 57.489269 58.983504 57.567802 58.740243 57.69039 C 58.487405 57.818725 58.223074 57.989199 57.945336 58.197982 C 57.659935 58.414427 57.338141 58.682588 56.98187 59.004382 Z M 73.72664 31.805144 C 73.014097 31.805144 72.362847 32.170993 71.772892 32.898859 C 71.190599 33.628642 70.861143 34.46952 70.78261 35.425324 C 70.748132 36.032518 70.901367 36.532448 71.238485 36.923197 C 71.577517 37.313947 72.033392 37.509322 72.606108 37.509322 C 73.387607 37.509322 74.069504 37.126234 74.649882 36.361974 C 75.239837 35.599629 75.53673 34.718527 75.53673 33.718667 C 75.53673 33.155528 75.366256 32.695823 75.027223 32.339551 C 74.690106 31.983279 74.255301 31.805144 73.72664 31.805144 Z M 86.416426 33.029109 C 86.588815 32.213132 86.676925 31.644247 86.676925 31.324368 C 86.676925 30.577347 86.268937 29.973984 85.45296 29.514278 C 87.943031 27.447519 90.308598 26.415097 92.547747 26.415097 C 93.469073 26.415097 94.202686 26.64495 94.748587 27.104656 C 95.304064 27.566276 95.581803 28.207949 95.581803 29.031587 C 95.581803 29.309326 95.581803 29.504701 95.581803 29.617712 C 95.581803 29.723061 95.547325 29.860973 95.478369 30.035278 L 93.668279 38.524505 C 93.599323 38.809905 93.54186 39.079982 93.497805 39.330905 C 93.463327 39.574165 93.446088 39.782948 93.446088 39.955338 C 93.446088 40.493576 93.589746 40.92455 93.877062 41.244429 C 94.162462 41.558561 94.553212 41.713711 95.047395 41.713711 C 95.265755 41.713711 95.46113 41.686895 95.63352 41.635178 C 95.815486 41.583461 96.315416 41.414903 97.131393 41.127587 L 97.340176 41.127587 C 97.878414 41.127587 98.146576 41.432142 98.146576 42.039336 C 98.146576 42.64653 97.861176 43.272879 97.286544 43.914551 C 96.723405 44.548561 96.003199 45.134686 95.125928 45.671009 C 94.258234 46.201585 93.308176 46.644052 92.273839 47.000324 C 91.250994 47.356595 90.27412 47.534731 89.345132 47.534731 C 87.921961 47.534731 86.736304 47.134404 85.790077 46.335666 C 84.853427 45.536928 84.384145 44.514083 84.384145 43.263302 C 84.384145 42.73464 84.435861 42.217472 84.541211 41.713711 Z M 93.446088 16.337971 C 94.69687 16.337971 95.694814 16.667427 96.441835 17.328253 C 97.186941 17.977587 97.560452 18.837619 97.560452 19.904519 C 97.560452 20.548107 97.399555 21.155301 97.079676 21.728017 C 96.757882 22.293072 96.311585 22.787255 95.738869 23.212483 C 95.173814 23.63771 94.526396 23.984405 93.798529 24.254482 C 93.068746 24.522643 92.314063 24.656724 91.532564 24.656724 C 90.394793 24.656724 89.48879 24.336846 88.810725 23.693258 C 88.134575 23.051586 87.795542 22.1973 87.795542 21.128485 C 87.795542 20.49639 87.946862 19.896857 88.251417 19.331803 C 88.555971 18.759086 88.971622 18.251495 89.502198 17.809029 C 90.040437 17.356985 90.6438 17.002629 91.310373 16.742129 C 91.988439 16.472052 92.700982 16.337971 93.446088 16.337971 Z M 106.246969 39.74847 C 106.246969 40.355665 106.501722 40.872833 107.01506 41.298061 C 107.536059 41.723288 108.168154 41.935902 108.915176 41.935902 C 109.418936 41.935902 109.89205 41.891847 110.334516 41.805652 C 110.776983 41.70988 111.263504 41.558561 111.792166 41.349778 C 112.330404 41.131418 112.926106 40.846017 113.577355 40.489745 C 114.236266 40.133474 115.031174 39.691007 115.960162 39.162346 C 116.385389 38.909508 116.810617 38.785004 117.235844 38.785004 C 117.5902 38.785004 117.881347 38.901846 118.107369 39.13553 C 118.341053 39.361552 118.45981 39.63546 118.45981 39.955338 C 118.45981 41.127587 117.500175 42.481802 115.580905 44.017985 C 112.456823 46.500394 109.206323 47.741599 105.829403 47.741599 C 104.475187 47.741599 103.247391 47.528985 102.144098 47.103757 C 101.04272 46.67853 100.083085 46.075166 99.267108 45.293667 C 98.451131 44.514083 97.81712 43.588926 97.366992 42.522027 C 96.924526 41.453211 96.702335 40.280963 96.702335 39.00528 C 96.702335 37.331186 97.085423 35.729879 97.847767 34.201358 C 98.612028 32.672838 99.640619 31.33203 100.93354 30.178936 C 102.236039 29.023926 103.741574 28.098769 105.452062 27.40538 C 107.162549 26.710075 108.959231 26.363381 110.842108 26.363381 C 112.864812 26.363381 114.523582 26.880549 115.816504 27.912971 C 117.117087 28.937731 117.768336 30.268961 117.768336 31.910493 C 117.768336 33.186175 117.295223 34.366086 116.348996 35.45214 C 115.412346 36.536279 114.037061 37.451859 112.223139 38.19888 C 111.372684 38.58963 110.39581 38.892269 109.292517 39.110629 C 108.19114 39.317497 107.175957 39.422846 106.246969 39.422846 Z M 106.779461 34.630417 C 109.627719 34.205189 111.050891 33.40262 111.050891 32.222709 C 111.050891 31.866438 110.941711 31.575291 110.725266 31.349269 C 110.516483 31.115585 110.252152 30.998744 109.930359 30.998744 C 109.254209 30.998744 108.629775 31.337776 108.057059 32.013926 C 107.492004 32.690077 107.066777 33.563517 106.779461 34.630417 Z M 128.808928 26.415097 C 129.979262 26.415097 131.065316 26.531939 132.06326 26.767538 C 133.061204 26.991645 133.925067 27.30003 134.654849 27.69078 C 135.382716 28.08153 135.951602 28.554643 136.35959 29.110121 C 136.767579 29.657936 136.970615 30.251722 136.970615 30.893395 C 136.970615 31.605938 136.712031 32.222709 136.191032 32.743709 C 135.677694 33.255131 135.066669 33.5118 134.354125 33.5118 C 133.859942 33.5118 133.39449 33.385381 132.961601 33.134458 C 132.536373 32.881621 131.967488 32.439154 131.254944 31.805144 C 130.404489 30.947027 129.697692 30.516053 129.132638 30.516053 C 128.847237 30.516053 128.603976 30.607994 128.404771 30.789961 C 128.213227 30.964266 128.117455 31.17688 128.117455 31.427802 C 128.117455 31.644247 128.151933 31.83196 128.222804 31.98711 C 128.29176 32.144176 128.439249 32.322312 128.665271 32.521518 C 128.898954 32.713062 129.245649 32.950576 129.70727 33.237892 C 130.174637 33.525208 130.818224 33.879564 131.634201 34.304792 C 134.377111 35.833312 135.748565 37.664472 135.748565 39.800187 C 135.748565 40.972436 135.488065 42.039336 134.967066 43.002802 C 134.453728 43.958606 133.733523 44.782245 132.804535 45.477549 C 131.885124 46.170938 130.781831 46.705346 129.498487 47.078857 C 128.222804 47.450452 126.803464 47.638165 125.240465 47.638165 C 123.955205 47.638165 122.788703 47.504084 121.739042 47.234007 C 120.697043 46.973508 119.798702 46.613405 119.042103 46.153699 C 118.296998 45.684417 117.718535 45.125109 117.310546 44.473859 C 116.902558 43.814948 116.699521 43.071758 116.699521 42.248119 C 116.699521 41.292315 117.011738 40.485915 117.636171 39.825088 C 118.26252 39.166177 119.034442 38.836721 119.953853 38.836721 C 120.951796 38.836721 121.92867 39.210232 122.884475 39.955338 C 122.961092 40.033871 123.131566 40.215838 123.392066 40.503154 C 123.660228 40.780892 124.008838 41.167811 124.434065 41.661994 C 125.32666 42.62546 126.165622 43.106236 126.945206 43.106236 C 127.267 43.106236 127.540908 42.993225 127.76693 42.769118 C 128.000613 42.533519 128.117455 42.25578 128.117455 41.935902 C 128.117455 41.75202 128.079146 41.593038 128.000613 41.453211 C 127.931657 41.3153 127.787999 41.150572 127.571555 40.959028 C 127.362772 40.759822 127.054386 40.516562 126.646398 40.229246 C 126.238409 39.943845 125.69634 39.587574 125.018274 39.162346 C 124.064385 38.555152 123.282886 38.003505 122.675692 37.509322 C 122.068498 37.013223 121.578145 36.536279 121.204634 36.076573 C 120.831124 35.607291 120.574455 35.126515 120.436543 34.630417 C 120.296716 34.126656 120.22776 33.559686 120.22776 32.925676 C 120.22776 32.031165 120.457613 31.194118 120.917319 30.412619 C 121.377024 29.63112 121.989965 28.949224 122.754225 28.368845 C 123.51657 27.77889 124.424488 27.305777 125.474149 26.949505 C 126.525725 26.593233 127.63668 26.415097 128.808928 26.415097 Z M 128.808928 26.415097 " stroke="#ffffff" stroke-width="3.999998" stroke-opacity="1" stroke-miterlimit="4"/><g fill="#ff1ba7" fill-opacity="1"><g transform="translate(60.166099, 207.878246)"><g><path d="M 62.21875 -63.515625 C 65.550781 -65.835938 69.101562 -67.578125 72.875 -68.734375 C 76.644531 -69.898438 80.488281 -70.484375 84.40625 -70.484375 C 87.445312 -70.484375 90.289062 -70.117188 92.9375 -69.390625 C 95.582031 -68.671875 97.863281 -67.65625 99.78125 -66.34375 C 101.707031 -65.039062 103.210938 -63.519531 104.296875 -61.78125 C 105.390625 -60.039062 105.9375 -58.15625 105.9375 -56.125 C 105.9375 -52.207031 104.320312 -49.085938 101.09375 -46.765625 C 97.863281 -44.441406 93.566406 -43.28125 88.203125 -43.28125 C 86.679688 -43.28125 85.335938 -43.332031 84.171875 -43.4375 C 83.015625 -43.550781 81.765625 -43.789062 80.421875 -44.15625 C 79.085938 -44.519531 77.550781 -45.046875 75.8125 -45.734375 C 74.070312 -46.421875 71.859375 -47.347656 69.171875 -48.515625 C 69.023438 -48.148438 68.953125 -47.835938 68.953125 -47.578125 C 68.953125 -47.328125 68.953125 -47.09375 68.953125 -46.875 C 68.953125 -44.84375 70.476562 -42.703125 73.53125 -40.453125 C 73.75 -40.316406 73.960938 -40.175781 74.171875 -40.03125 C 74.390625 -39.882812 74.828125 -39.609375 75.484375 -39.203125 C 76.140625 -38.804688 77.097656 -38.207031 78.359375 -37.40625 C 79.628906 -36.613281 81.460938 -35.53125 83.859375 -34.15625 C 88.066406 -31.613281 91.113281 -28.875 93 -25.9375 C 94.882812 -23 95.828125 -19.570312 95.828125 -15.65625 C 95.828125 -11.457031 94.882812 -7.613281 93 -4.125 C 91.113281 -0.644531 88.425781 2.34375 84.9375 4.84375 C 81.457031 7.34375 77.304688 9.28125 72.484375 10.65625 C 67.671875 12.03125 62.328125 12.71875 56.453125 12.71875 C 51.304688 12.71875 46.644531 12.15625 42.46875 11.03125 C 38.300781 9.914062 34.710938 8.34375 31.703125 6.3125 C 28.691406 4.28125 26.367188 1.816406 24.734375 -1.078125 C 23.109375 -3.984375 22.296875 -7.175781 22.296875 -10.65625 C 22.296875 -13.5625 22.910156 -16.28125 24.140625 -18.8125 C 25.378906 -21.351562 27.046875 -23.582031 29.140625 -25.5 C 31.242188 -27.425781 33.707031 -28.929688 36.53125 -30.015625 C 39.363281 -31.109375 42.414062 -31.65625 45.6875 -31.65625 C 47.78125 -31.65625 49.84375 -31.414062 51.875 -30.9375 C 53.90625 -30.46875 55.703125 -29.851562 57.265625 -29.09375 C 58.828125 -28.332031 60.097656 -27.460938 61.078125 -26.484375 C 62.054688 -25.503906 62.546875 -24.507812 62.546875 -23.5 C 62.546875 -23.132812 62.523438 -22.84375 62.484375 -22.625 C 62.453125 -22.40625 62.328125 -22.1875 62.109375 -21.96875 C 61.890625 -21.75 61.539062 -21.492188 61.0625 -21.203125 C 60.59375 -20.921875 59.960938 -20.5625 59.171875 -20.125 C 57.578125 -19.320312 56.78125 -17.976562 56.78125 -16.09375 C 56.78125 -14.425781 57.503906 -13.007812 58.953125 -11.84375 C 60.398438 -10.6875 62.175781 -10.109375 64.28125 -10.109375 C 66.601562 -10.109375 68.5625 -10.78125 70.15625 -12.125 C 71.75 -13.46875 72.546875 -15.117188 72.546875 -17.078125 C 72.546875 -17.941406 72.398438 -18.773438 72.109375 -19.578125 C 71.816406 -20.378906 71.328125 -21.195312 70.640625 -22.03125 C 69.953125 -22.863281 69.007812 -23.75 67.8125 -24.6875 C 66.613281 -25.632812 65.144531 -26.722656 63.40625 -27.953125 C 58.914062 -30.921875 55.726562 -33.726562 53.84375 -36.375 C 51.957031 -39.03125 51.015625 -42.023438 51.015625 -45.359375 C 51.015625 -46.804688 51.226562 -48.21875 51.65625 -49.59375 C 52.09375 -50.96875 52.894531 -52.816406 54.0625 -55.140625 C 52.175781 -55.941406 50.6875 -56.46875 49.59375 -56.71875 C 48.507812 -56.976562 47.457031 -57.109375 46.4375 -57.109375 C 44.695312 -57.109375 43.226562 -56.582031 42.03125 -55.53125 C 40.84375 -54.476562 40.25 -53.15625 40.25 -51.5625 C 40.25 -50.101562 40.738281 -48.921875 41.71875 -48.015625 C 42.695312 -47.109375 44.019531 -46.582031 45.6875 -46.4375 C 47.570312 -46.21875 48.515625 -45.492188 48.515625 -44.265625 C 48.515625 -43.398438 48.113281 -42.601562 47.3125 -41.875 C 46.507812 -41.144531 45.4375 -40.488281 44.09375 -39.90625 C 42.757812 -39.332031 41.203125 -38.878906 39.421875 -38.546875 C 37.648438 -38.222656 35.785156 -38.0625 33.828125 -38.0625 C 30.710938 -38.0625 27.882812 -38.476562 25.34375 -39.3125 C 22.800781 -40.144531 20.625 -41.320312 18.8125 -42.84375 C 17 -44.375 15.582031 -46.191406 14.5625 -48.296875 C 13.550781 -50.398438 13.046875 -52.71875 13.046875 -55.25 C 13.046875 -57.789062 13.585938 -60.164062 14.671875 -62.375 C 15.765625 -64.582031 17.234375 -66.503906 19.078125 -68.140625 C 20.929688 -69.773438 23.109375 -71.0625 25.609375 -72 C 28.109375 -72.945312 30.8125 -73.421875 33.71875 -73.421875 C 35.09375 -73.421875 36.394531 -73.347656 37.625 -73.203125 C 38.863281 -73.054688 40.207031 -72.78125 41.65625 -72.375 C 43.101562 -71.976562 44.710938 -71.4375 46.484375 -70.75 C 48.265625 -70.0625 50.351562 -69.175781 52.75 -68.09375 C 53.976562 -67.582031 55.007812 -67.125 55.84375 -66.71875 C 56.6875 -66.320312 57.453125 -65.960938 58.140625 -65.640625 C 58.828125 -65.316406 59.476562 -64.988281 60.09375 -64.65625 C 60.707031 -64.332031 61.414062 -63.953125 62.21875 -63.515625 Z M 76.46875 -56.234375 C 81.320312 -54.273438 84.691406 -53.296875 86.578125 -53.296875 C 87.378906 -53.296875 88.085938 -53.546875 88.703125 -54.046875 C 89.316406 -54.554688 89.625 -55.140625 89.625 -55.796875 C 89.625 -56.734375 89.0625 -57.492188 87.9375 -58.078125 C 86.8125 -58.660156 85.414062 -58.953125 83.75 -58.953125 C 81.207031 -58.953125 78.78125 -58.046875 76.46875 -56.234375 Z M 76.46875 -56.234375 "/></g></g></g><g fill="#ff1ba7" fill-opacity="1"><g transform="translate(155.325837, 207.878246)"><g><path d="M 10 -36.328125 C 10.21875 -37.128906 10.363281 -37.800781 10.4375 -38.34375 C 10.507812 -38.882812 10.546875 -39.335938 10.546875 -39.703125 C 10.546875 -40.492188 10.382812 -41.144531 10.0625 -41.65625 C 9.738281 -42.164062 9.140625 -42.742188 8.265625 -43.390625 C 11.160156 -45.640625 13.710938 -47.234375 15.921875 -48.171875 C 18.140625 -49.117188 20.445312 -49.59375 22.84375 -49.59375 C 24.875 -49.59375 26.429688 -49.15625 27.515625 -48.28125 C 28.609375 -47.414062 29.15625 -46.222656 29.15625 -44.703125 C 29.15625 -44.410156 29.132812 -44.03125 29.09375 -43.5625 C 29.0625 -43.09375 28.972656 -42.601562 28.828125 -42.09375 L 28.0625 -38.171875 C 30.164062 -39.628906 32.03125 -40.644531 33.65625 -41.21875 C 35.289062 -41.800781 37.050781 -42.09375 38.9375 -42.09375 C 42.851562 -42.09375 46.003906 -40.734375 48.390625 -38.015625 C 50.785156 -35.296875 51.984375 -31.757812 51.984375 -27.40625 C 51.984375 -23.488281 51.296875 -19.585938 49.921875 -15.703125 C 48.546875 -11.828125 46.660156 -8.367188 44.265625 -5.328125 C 42.597656 -3.222656 40.585938 -1.585938 38.234375 -0.421875 C 35.878906 0.734375 33.429688 1.3125 30.890625 1.3125 C 28.640625 1.3125 26.695312 0.890625 25.0625 0.046875 C 23.4375 -0.785156 21.789062 -2.144531 20.125 -4.03125 L 16.203125 13.484375 C 15.628906 16.242188 14.671875 18.21875 13.328125 19.40625 C 11.984375 20.601562 10.148438 21.203125 7.828125 21.203125 L 3.15625 21.203125 C 2.425781 21.203125 1.789062 21.238281 1.25 21.3125 C 0.707031 21.382812 0.179688 21.546875 -0.328125 21.796875 C -0.835938 22.054688 -1.378906 22.40625 -1.953125 22.84375 C -2.535156 23.28125 -3.191406 23.820312 -3.921875 24.46875 Z M 30.234375 -31 C 28.785156 -31 27.460938 -30.253906 26.265625 -28.765625 C 25.066406 -27.273438 24.394531 -25.554688 24.25 -23.609375 C 24.175781 -22.367188 24.484375 -21.347656 25.171875 -20.546875 C 25.867188 -19.753906 26.796875 -19.359375 27.953125 -19.359375 C 29.546875 -19.359375 30.941406 -20.132812 32.140625 -21.6875 C 33.335938 -23.25 33.9375 -25.046875 33.9375 -27.078125 C 33.9375 -28.242188 33.59375 -29.1875 32.90625 -29.90625 C 32.21875 -30.632812 31.328125 -31 30.234375 -31 Z M 30.234375 -31 "/></g></g></g><g fill="#ff1ba7" fill-opacity="1"><g transform="translate(203.721129, 207.878246)"><g><path d="M 7.71875 -28.5 C 8.082031 -30.164062 8.265625 -31.328125 8.265625 -31.984375 C 8.265625 -33.503906 7.429688 -34.734375 5.765625 -35.671875 C 10.835938 -39.878906 15.660156 -41.984375 20.234375 -41.984375 C 22.117188 -41.984375 23.625 -41.507812 24.75 -40.5625 C 25.875 -39.625 26.4375 -38.320312 26.4375 -36.65625 C 26.4375 -36.070312 26.4375 -35.671875 26.4375 -35.453125 C 26.4375 -35.234375 26.363281 -34.945312 26.21875 -34.59375 L 22.515625 -17.296875 C 22.367188 -16.710938 22.257812 -16.164062 22.1875 -15.65625 C 22.113281 -15.15625 22.078125 -14.722656 22.078125 -14.359375 C 22.078125 -13.265625 22.363281 -12.390625 22.9375 -11.734375 C 23.519531 -11.085938 24.320312 -10.765625 25.34375 -10.765625 C 25.78125 -10.765625 26.175781 -10.816406 26.53125 -10.921875 C 26.894531 -11.035156 27.910156 -11.382812 29.578125 -11.96875 L 30.015625 -11.96875 C 31.109375 -11.96875 31.65625 -11.347656 31.65625 -10.109375 C 31.65625 -8.878906 31.070312 -7.609375 29.90625 -6.296875 C 28.75 -4.992188 27.28125 -3.800781 25.5 -2.71875 C 23.726562 -1.632812 21.789062 -0.726562 19.6875 0 C 17.582031 0.726562 15.585938 1.09375 13.703125 1.09375 C 10.804688 1.09375 8.394531 0.273438 6.46875 -1.359375 C 4.550781 -2.992188 3.59375 -5.078125 3.59375 -7.609375 C 3.59375 -8.703125 3.703125 -9.753906 3.921875 -10.765625 Z M 22.078125 -62.546875 C 24.617188 -62.546875 26.648438 -61.875 28.171875 -60.53125 C 29.691406 -59.1875 30.453125 -57.425781 30.453125 -55.25 C 30.453125 -53.945312 30.125 -52.710938 29.46875 -51.546875 C 28.820312 -50.390625 27.914062 -49.375 26.75 -48.5 C 25.59375 -47.632812 24.269531 -46.929688 22.78125 -46.390625 C 21.300781 -45.847656 19.757812 -45.578125 18.15625 -45.578125 C 15.84375 -45.578125 13.992188 -46.226562 12.609375 -47.53125 C 11.234375 -48.832031 10.546875 -50.570312 10.546875 -52.75 C 10.546875 -54.050781 10.851562 -55.28125 11.46875 -56.4375 C 12.09375 -57.601562 12.945312 -58.640625 14.03125 -59.546875 C 15.113281 -60.453125 16.34375 -61.175781 17.71875 -61.71875 C 19.101562 -62.269531 20.554688 -62.546875 22.078125 -62.546875 Z M 22.078125 -62.546875 "/></g></g></g><g fill="#ff1ba7" fill-opacity="1"><g transform="translate(229.9305, 207.878246)"><g><path d="M 21.96875 -14.796875 C 21.96875 -13.554688 22.492188 -12.5 23.546875 -11.625 C 24.597656 -10.757812 25.882812 -10.328125 27.40625 -10.328125 C 28.425781 -10.328125 29.390625 -10.414062 30.296875 -10.59375 C 31.203125 -10.78125 32.195312 -11.09375 33.28125 -11.53125 C 34.363281 -11.96875 35.578125 -12.546875 36.921875 -13.265625 C 38.265625 -13.992188 39.878906 -14.898438 41.765625 -15.984375 C 42.640625 -16.492188 43.507812 -16.75 44.375 -16.75 C 45.101562 -16.75 45.703125 -16.515625 46.171875 -16.046875 C 46.640625 -15.578125 46.875 -15.015625 46.875 -14.359375 C 46.875 -11.960938 44.914062 -9.207031 41 -6.09375 C 34.625 -1.019531 27.988281 1.515625 21.09375 1.515625 C 18.34375 1.515625 15.84375 1.078125 13.59375 0.203125 C 11.34375 -0.660156 9.382812 -1.890625 7.71875 -3.484375 C 6.050781 -5.078125 4.765625 -6.960938 3.859375 -9.140625 C 2.953125 -11.316406 2.5 -13.707031 2.5 -16.3125 C 2.5 -19.71875 3.273438 -22.976562 4.828125 -26.09375 C 6.390625 -29.21875 8.492188 -31.957031 11.140625 -34.3125 C 13.796875 -36.664062 16.863281 -38.550781 20.34375 -39.96875 C 23.820312 -41.382812 27.484375 -42.09375 31.328125 -42.09375 C 35.460938 -42.09375 38.851562 -41.039062 41.5 -38.9375 C 44.144531 -36.832031 45.46875 -34.113281 45.46875 -30.78125 C 45.46875 -28.164062 44.503906 -25.753906 42.578125 -23.546875 C 40.660156 -21.335938 37.851562 -19.472656 34.15625 -17.953125 C 32.414062 -17.148438 30.421875 -16.53125 28.171875 -16.09375 C 25.921875 -15.65625 23.851562 -15.4375 21.96875 -15.4375 Z M 23.0625 -25.234375 C 28.863281 -26.097656 31.765625 -27.726562 31.765625 -30.125 C 31.765625 -30.851562 31.546875 -31.453125 31.109375 -31.921875 C 30.671875 -32.390625 30.125 -32.625 29.46875 -32.625 C 28.09375 -32.625 26.820312 -31.9375 25.65625 -30.5625 C 24.5 -29.1875 23.632812 -27.410156 23.0625 -25.234375 Z M 23.0625 -25.234375 "/></g></g></g><g fill="#ff1ba7" fill-opacity="1"><g transform="translate(272.888078, 207.878246)"><g><path d="M 25.015625 -41.984375 C 27.410156 -41.984375 29.625 -41.742188 31.65625 -41.265625 C 33.6875 -40.796875 35.441406 -40.160156 36.921875 -39.359375 C 38.410156 -38.566406 39.570312 -37.609375 40.40625 -36.484375 C 41.238281 -35.367188 41.65625 -34.15625 41.65625 -32.84375 C 41.65625 -31.394531 41.128906 -30.144531 40.078125 -29.09375 C 39.023438 -28.039062 37.773438 -27.515625 36.328125 -27.515625 C 35.316406 -27.515625 34.375 -27.769531 33.5 -28.28125 C 32.625 -28.789062 31.460938 -29.695312 30.015625 -31 C 28.273438 -32.738281 26.828125 -33.609375 25.671875 -33.609375 C 25.085938 -33.609375 24.597656 -33.425781 24.203125 -33.0625 C 23.804688 -32.695312 23.609375 -32.265625 23.609375 -31.765625 C 23.609375 -31.328125 23.675781 -30.941406 23.8125 -30.609375 C 23.957031 -30.285156 24.265625 -29.925781 24.734375 -29.53125 C 25.210938 -29.132812 25.921875 -28.644531 26.859375 -28.0625 C 27.804688 -27.476562 29.113281 -26.753906 30.78125 -25.890625 C 36.363281 -22.765625 39.15625 -19.03125 39.15625 -14.6875 C 39.15625 -12.289062 38.628906 -10.113281 37.578125 -8.15625 C 36.523438 -6.195312 35.054688 -4.507812 33.171875 -3.09375 C 31.285156 -1.6875 29.035156 -0.601562 26.421875 0.15625 C 23.816406 0.925781 20.921875 1.3125 17.734375 1.3125 C 15.117188 1.3125 12.738281 1.035156 10.59375 0.484375 C 8.457031 -0.0546875 6.628906 -0.796875 5.109375 -1.734375 C 3.585938 -2.679688 2.410156 -3.820312 1.578125 -5.15625 C 0.742188 -6.5 0.328125 -8.007812 0.328125 -9.6875 C 0.328125 -11.632812 0.960938 -13.28125 2.234375 -14.625 C 3.503906 -15.96875 5.082031 -16.640625 6.96875 -16.640625 C 8.988281 -16.640625 10.976562 -15.878906 12.9375 -14.359375 C 13.082031 -14.210938 13.425781 -13.847656 13.96875 -13.265625 C 14.519531 -12.691406 15.226562 -11.894531 16.09375 -10.875 C 17.90625 -8.914062 19.609375 -7.9375 21.203125 -7.9375 C 21.859375 -7.9375 22.421875 -8.171875 22.890625 -8.640625 C 23.367188 -9.117188 23.609375 -9.679688 23.609375 -10.328125 C 23.609375 -10.691406 23.535156 -11.019531 23.390625 -11.3125 C 23.242188 -11.601562 22.953125 -11.945312 22.515625 -12.34375 C 22.078125 -12.738281 21.441406 -13.226562 20.609375 -13.8125 C 19.773438 -14.394531 18.671875 -15.117188 17.296875 -15.984375 C 15.335938 -17.222656 13.738281 -18.347656 12.5 -19.359375 C 11.269531 -20.378906 10.273438 -21.359375 9.515625 -22.296875 C 8.753906 -23.234375 8.226562 -24.207031 7.9375 -25.21875 C 7.644531 -26.238281 7.5 -27.40625 7.5 -28.71875 C 7.5 -30.53125 7.96875 -32.234375 8.90625 -33.828125 C 9.851562 -35.421875 11.109375 -36.816406 12.671875 -38.015625 C 14.234375 -39.210938 16.082031 -40.171875 18.21875 -40.890625 C 20.351562 -41.617188 22.617188 -41.984375 25.015625 -41.984375 Z M 25.015625 -41.984375 "/></g></g></g><path fill="#ff1ba7" d="M 265.199219 221.261719 C 265.375 221.9375 265.484375 222.621094 265.523438 223.316406 C 265.566406 224.011719 265.542969 224.707031 265.449219 225.398438 C 265.355469 226.085938 265.195312 226.761719 264.972656 227.421875 C 264.746094 228.082031 264.460938 228.714844 264.113281 229.316406 C 263.765625 229.921875 263.363281 230.484375 262.90625 231.011719 C 262.445312 231.535156 261.941406 232.011719 261.390625 232.4375 C 260.839844 232.863281 260.253906 233.234375 259.628906 233.546875 C 259.007812 233.859375 258.359375 234.109375 257.6875 234.292969 C 237.132812 239.332031 216.292969 242.527344 195.171875 243.890625 C 194.476562 243.914062 193.785156 243.871094 193.097656 243.761719 C 192.410156 243.648438 191.738281 243.472656 191.085938 243.230469 C 190.429688 242.988281 189.808594 242.6875 189.210938 242.324219 C 188.617188 241.960938 188.0625 241.542969 187.550781 241.070312 C 187.039062 240.601562 186.574219 240.082031 186.164062 239.519531 C 185.75 238.960938 185.398438 238.363281 185.101562 237.730469 C 184.804688 237.101562 184.574219 236.449219 184.40625 235.773438 C 184.238281 235.09375 184.136719 234.410156 184.101562 233.714844 C 184.066406 233.003906 184.097656 232.296875 184.203125 231.59375 C 184.308594 230.890625 184.480469 230.207031 184.722656 229.539062 C 184.964844 228.867188 185.269531 228.230469 185.636719 227.621094 C 186.003906 227.015625 186.429688 226.449219 186.910156 225.925781 C 187.390625 225.402344 187.917969 224.929688 188.492188 224.511719 C 189.066406 224.09375 189.675781 223.738281 190.320312 223.4375 C 190.96875 223.140625 191.636719 222.910156 192.328125 222.746094 C 193.019531 222.582031 193.71875 222.488281 194.429688 222.464844 C 213.863281 221.175781 233.042969 218.230469 251.96875 213.632812 C 252.65625 213.441406 253.351562 213.320312 254.058594 213.269531 C 254.769531 213.21875 255.476562 213.238281 256.179688 213.328125 C 256.886719 213.417969 257.574219 213.578125 258.25 213.804688 C 258.921875 214.03125 259.566406 214.320312 260.183594 214.675781 C 260.796875 215.03125 261.371094 215.445312 261.90625 215.914062 C 262.4375 216.382812 262.921875 216.902344 263.351562 217.464844 C 263.78125 218.03125 264.152344 218.632812 264.464844 219.273438 C 264.773438 219.910156 265.019531 220.574219 265.199219 221.261719 Z M 265.199219 221.261719 " fill-opacity="1" fill-rule="nonzero"/><g fill="#ffffff" fill-opacity="1"><g transform="translate(191.798521, 236.711529)"><g><path d="M 1.015625 -8.03125 C 1.117188 -8.039062 1.226562 -8.019531 1.34375 -7.96875 C 1.457031 -7.914062 1.550781 -7.847656 1.625 -7.765625 L 4.65625 -3.71875 L 4.09375 -3.703125 L 6.609375 -8.109375 C 6.742188 -8.328125 6.925781 -8.441406 7.15625 -8.453125 C 7.332031 -8.472656 7.492188 -8.421875 7.640625 -8.296875 C 7.796875 -8.171875 7.882812 -8.003906 7.90625 -7.796875 L 8.359375 -1.265625 C 8.367188 -1.066406 8.3125 -0.898438 8.1875 -0.765625 C 8.070312 -0.628906 7.910156 -0.550781 7.703125 -0.53125 C 7.484375 -0.519531 7.300781 -0.570312 7.15625 -0.6875 C 7.019531 -0.8125 6.945312 -0.972656 6.9375 -1.171875 L 6.5625 -6.484375 L 7.015625 -6.421875 L 4.953125 -2.75 C 4.890625 -2.664062 4.8125 -2.585938 4.71875 -2.515625 C 4.625 -2.453125 4.519531 -2.421875 4.40625 -2.421875 C 4.3125 -2.410156 4.210938 -2.429688 4.109375 -2.484375 C 4.003906 -2.535156 3.910156 -2.597656 3.828125 -2.671875 L 1.453125 -5.921875 L 1.703125 -6.5625 L 2.109375 -0.84375 C 2.117188 -0.644531 2.066406 -0.472656 1.953125 -0.328125 C 1.835938 -0.191406 1.6875 -0.117188 1.5 -0.109375 C 1.300781 -0.0859375 1.132812 -0.140625 1 -0.265625 C 0.875 -0.390625 0.804688 -0.550781 0.796875 -0.75 L 0.34375 -7.28125 C 0.332031 -7.46875 0.390625 -7.632812 0.515625 -7.78125 C 0.648438 -7.9375 0.816406 -8.019531 1.015625 -8.03125 Z M 1.015625 -8.03125 "/></g></g></g><g fill="#ffffff" fill-opacity="1"><g transform="translate(200.525355, 236.097161)"><g><path d="M 3.171875 -6.453125 L 1.28125 -0.515625 C 1.238281 -0.367188 1.164062 -0.25 1.0625 -0.15625 C 0.957031 -0.0625 0.84375 -0.0078125 0.71875 0 C 0.507812 0.0195312 0.347656 -0.0195312 0.234375 -0.125 C 0.128906 -0.238281 0.0703125 -0.378906 0.0625 -0.546875 C 0.0507812 -0.617188 0.0546875 -0.691406 0.078125 -0.765625 L 2.265625 -7.75 C 2.304688 -7.90625 2.382812 -8.03125 2.5 -8.125 C 2.613281 -8.21875 2.742188 -8.265625 2.890625 -8.265625 C 3.023438 -8.273438 3.15625 -8.242188 3.28125 -8.171875 C 3.414062 -8.109375 3.515625 -8.007812 3.578125 -7.875 L 6.953125 -1.515625 C 6.992188 -1.429688 7.015625 -1.347656 7.015625 -1.265625 C 7.035156 -1.066406 6.984375 -0.894531 6.859375 -0.75 C 6.742188 -0.613281 6.609375 -0.539062 6.453125 -0.53125 C 6.316406 -0.519531 6.191406 -0.550781 6.078125 -0.625 C 5.960938 -0.695312 5.867188 -0.800781 5.796875 -0.9375 L 2.84375 -6.359375 Z M 1.5 -1.9375 L 1.984375 -3.265625 L 5.046875 -3.546875 L 5.375 -2.28125 Z M 1.5 -1.9375 "/></g></g></g><g fill="#ffffff" fill-opacity="1"><g transform="translate(207.204069, 235.490125)"><g><path d="M 6.265625 -0.703125 C 6.054688 -0.671875 5.878906 -0.738281 5.734375 -0.90625 L 2.75 -4.03125 L 3.640625 -5.1875 L 6.734375 -1.9375 C 6.847656 -1.8125 6.914062 -1.664062 6.9375 -1.5 C 6.957031 -1.28125 6.894531 -1.097656 6.75 -0.953125 C 6.613281 -0.804688 6.453125 -0.722656 6.265625 -0.703125 Z M 5.515625 -8.640625 C 5.691406 -8.648438 5.847656 -8.585938 5.984375 -8.453125 C 6.117188 -8.328125 6.191406 -8.191406 6.203125 -8.046875 C 6.222656 -7.878906 6.171875 -7.722656 6.046875 -7.578125 L 1.84375 -2.546875 L 1.609375 -4.15625 L 4.984375 -8.328125 C 5.148438 -8.503906 5.328125 -8.609375 5.515625 -8.640625 Z M 1.53125 -0.171875 C 1.332031 -0.148438 1.160156 -0.195312 1.015625 -0.3125 C 0.867188 -0.425781 0.785156 -0.582031 0.765625 -0.78125 L 0.046875 -7.28125 C 0.0234375 -7.46875 0.0703125 -7.632812 0.1875 -7.78125 C 0.3125 -7.9375 0.476562 -8.023438 0.6875 -8.046875 C 0.894531 -8.066406 1.066406 -8.015625 1.203125 -7.890625 C 1.347656 -7.773438 1.429688 -7.625 1.453125 -7.4375 L 2.171875 -0.9375 C 2.191406 -0.738281 2.144531 -0.566406 2.03125 -0.421875 C 1.914062 -0.273438 1.75 -0.191406 1.53125 -0.171875 Z M 1.53125 -0.171875 "/></g></g></g><g fill="#ffffff" fill-opacity="1"><g transform="translate(214.045245, 234.729457)"><g><path d="M 0.5 -8.0625 L 4.265625 -8.546875 C 4.460938 -8.566406 4.632812 -8.523438 4.78125 -8.421875 C 4.925781 -8.316406 5.007812 -8.164062 5.03125 -7.96875 C 5.0625 -7.78125 5.015625 -7.617188 4.890625 -7.484375 C 4.773438 -7.347656 4.617188 -7.269531 4.421875 -7.25 L 1.28125 -6.84375 L 1.375 -7.046875 L 1.65625 -4.875 L 1.546875 -4.9375 L 4.15625 -5.28125 C 4.351562 -5.300781 4.523438 -5.257812 4.671875 -5.15625 C 4.828125 -5.050781 4.921875 -4.898438 4.953125 -4.703125 C 4.972656 -4.515625 4.921875 -4.351562 4.796875 -4.21875 C 4.679688 -4.082031 4.523438 -4.003906 4.328125 -3.984375 L 1.75 -3.640625 L 1.796875 -3.75 L 2.09375 -1.484375 L 1.984375 -1.5625 L 5.109375 -1.96875 C 5.304688 -1.988281 5.476562 -1.945312 5.625 -1.84375 C 5.78125 -1.738281 5.867188 -1.597656 5.890625 -1.421875 C 5.910156 -1.234375 5.863281 -1.066406 5.75 -0.921875 C 5.632812 -0.785156 5.476562 -0.707031 5.28125 -0.6875 L 1.515625 -0.203125 C 1.328125 -0.171875 1.160156 -0.210938 1.015625 -0.328125 C 0.867188 -0.441406 0.78125 -0.597656 0.75 -0.796875 L -0.09375 -7.28125 C -0.113281 -7.46875 -0.0664062 -7.632812 0.046875 -7.78125 C 0.160156 -7.9375 0.3125 -8.03125 0.5 -8.0625 Z M 0.5 -8.0625 "/></g></g></g><g fill="#ffffff" fill-opacity="1"><g transform="translate(219.94586, 233.976197)"><g><path d="M 5.21875 -8.796875 C 5.414062 -8.828125 5.582031 -8.785156 5.71875 -8.671875 C 5.863281 -8.554688 5.953125 -8.398438 5.984375 -8.203125 L 6.578125 -4.15625 C 6.671875 -3.53125 6.625 -2.960938 6.4375 -2.453125 C 6.25 -1.941406 5.941406 -1.515625 5.515625 -1.171875 C 5.097656 -0.828125 4.582031 -0.613281 3.96875 -0.53125 C 3.351562 -0.4375 2.789062 -0.488281 2.28125 -0.6875 C 1.78125 -0.894531 1.359375 -1.210938 1.015625 -1.640625 C 0.671875 -2.078125 0.453125 -2.609375 0.359375 -3.234375 L -0.234375 -7.28125 C -0.265625 -7.476562 -0.222656 -7.648438 -0.109375 -7.796875 C 0.00390625 -7.953125 0.171875 -8.046875 0.390625 -8.078125 C 0.554688 -8.097656 0.71875 -8.050781 0.875 -7.9375 C 1.03125 -7.832031 1.125 -7.679688 1.15625 -7.484375 L 1.75 -3.4375 C 1.8125 -3.0625 1.941406 -2.75 2.140625 -2.5 C 2.335938 -2.257812 2.582031 -2.082031 2.875 -1.96875 C 3.175781 -1.851562 3.472656 -1.820312 3.765625 -1.875 C 4.085938 -1.914062 4.367188 -2.03125 4.609375 -2.21875 C 4.859375 -2.414062 5.050781 -2.660156 5.1875 -2.953125 C 5.332031 -3.253906 5.375 -3.59375 5.3125 -3.96875 L 4.71875 -8.015625 C 4.6875 -8.210938 4.710938 -8.382812 4.796875 -8.53125 C 4.890625 -8.675781 5.03125 -8.765625 5.21875 -8.796875 Z M 5.21875 -8.796875 "/></g></g></g><g fill="#ffffff" fill-opacity="1"><g transform="translate(227.31686, 232.876787)"><g><path d="M 2.734375 -8.5 C 3.117188 -8.5625 3.5 -8.507812 3.875 -8.34375 C 4.257812 -8.175781 4.585938 -7.921875 4.859375 -7.578125 C 5.128906 -7.242188 5.304688 -6.835938 5.390625 -6.359375 C 5.460938 -5.898438 5.425781 -5.460938 5.28125 -5.046875 C 5.132812 -4.628906 4.910156 -4.273438 4.609375 -3.984375 C 4.316406 -3.703125 3.976562 -3.53125 3.59375 -3.46875 L 1.53125 -3.125 L 1.625 -3.34375 L 2.015625 -1.03125 C 2.046875 -0.84375 2.007812 -0.671875 1.90625 -0.515625 C 1.800781 -0.367188 1.660156 -0.28125 1.484375 -0.25 C 1.285156 -0.21875 1.113281 -0.253906 0.96875 -0.359375 C 0.832031 -0.472656 0.75 -0.625 0.71875 -0.8125 L -0.375 -7.28125 C -0.40625 -7.457031 -0.363281 -7.625 -0.25 -7.78125 C -0.144531 -7.9375 0 -8.03125 0.1875 -8.0625 Z M 3.375 -4.75 C 3.507812 -4.769531 3.632812 -4.851562 3.75 -5 C 3.863281 -5.144531 3.953125 -5.316406 4.015625 -5.515625 C 4.078125 -5.722656 4.09375 -5.929688 4.0625 -6.140625 C 4.019531 -6.359375 3.9375 -6.550781 3.8125 -6.71875 C 3.6875 -6.882812 3.546875 -7.015625 3.390625 -7.109375 C 3.234375 -7.203125 3.085938 -7.238281 2.953125 -7.21875 L 0.875 -6.875 L 0.984375 -7.09375 L 1.46875 -4.234375 L 1.3125 -4.40625 Z M 3.375 -4.75 "/></g></g></g><g fill="#ffffff" fill-opacity="1"><g transform="translate(233.504908, 231.82238)"><g/></g></g><g fill="#ffffff" fill-opacity="1"><g transform="translate(236.095109, 231.367297)"><g><path d="M 4.8125 -8.609375 C 5.03125 -8.554688 5.175781 -8.425781 5.25 -8.21875 C 5.320312 -8.019531 5.304688 -7.828125 5.203125 -7.640625 C 5.128906 -7.492188 5.019531 -7.394531 4.875 -7.34375 C 4.726562 -7.300781 4.566406 -7.296875 4.390625 -7.328125 C 4.203125 -7.378906 4.003906 -7.410156 3.796875 -7.421875 C 3.597656 -7.429688 3.394531 -7.414062 3.1875 -7.375 C 2.78125 -7.289062 2.425781 -7.15625 2.125 -6.96875 C 1.832031 -6.78125 1.597656 -6.546875 1.421875 -6.265625 C 1.253906 -5.984375 1.144531 -5.675781 1.09375 -5.34375 C 1.039062 -5.007812 1.050781 -4.644531 1.125 -4.25 C 1.21875 -3.800781 1.359375 -3.421875 1.546875 -3.109375 C 1.734375 -2.796875 1.960938 -2.550781 2.234375 -2.375 C 2.515625 -2.207031 2.820312 -2.101562 3.15625 -2.0625 C 3.488281 -2.019531 3.84375 -2.035156 4.21875 -2.109375 C 4.40625 -2.140625 4.59375 -2.191406 4.78125 -2.265625 C 4.976562 -2.335938 5.160156 -2.4375 5.328125 -2.5625 C 5.472656 -2.675781 5.617188 -2.734375 5.765625 -2.734375 C 5.921875 -2.742188 6.0625 -2.691406 6.1875 -2.578125 C 6.382812 -2.429688 6.476562 -2.253906 6.46875 -2.046875 C 6.46875 -1.835938 6.382812 -1.675781 6.21875 -1.5625 C 6.050781 -1.425781 5.867188 -1.300781 5.671875 -1.1875 C 5.472656 -1.082031 5.273438 -0.992188 5.078125 -0.921875 C 4.878906 -0.859375 4.675781 -0.804688 4.46875 -0.765625 C 3.925781 -0.648438 3.398438 -0.632812 2.890625 -0.71875 C 2.378906 -0.800781 1.90625 -0.96875 1.46875 -1.21875 C 1.039062 -1.476562 0.664062 -1.835938 0.34375 -2.296875 C 0.03125 -2.753906 -0.191406 -3.3125 -0.328125 -3.96875 C -0.429688 -4.539062 -0.429688 -5.085938 -0.328125 -5.609375 C -0.222656 -6.128906 -0.03125 -6.597656 0.25 -7.015625 C 0.539062 -7.429688 0.910156 -7.785156 1.359375 -8.078125 C 1.816406 -8.378906 2.335938 -8.585938 2.921875 -8.703125 C 3.234375 -8.765625 3.550781 -8.785156 3.875 -8.765625 C 4.207031 -8.753906 4.519531 -8.703125 4.8125 -8.609375 Z M 4.8125 -8.609375 "/></g></g></g><g fill="#ffffff" fill-opacity="1"><g transform="translate(242.520947, 230.101241)"><g><path d="M 2.078125 -1.140625 C 2.117188 -0.941406 2.082031 -0.765625 1.96875 -0.609375 C 1.851562 -0.453125 1.703125 -0.351562 1.515625 -0.3125 C 1.304688 -0.269531 1.125 -0.296875 0.96875 -0.390625 C 0.820312 -0.492188 0.726562 -0.644531 0.6875 -0.84375 L -0.65625 -7.25 C -0.6875 -7.4375 -0.648438 -7.609375 -0.546875 -7.765625 C -0.453125 -7.921875 -0.296875 -8.023438 -0.078125 -8.078125 C 0.0976562 -8.109375 0.269531 -8.070312 0.4375 -7.96875 C 0.601562 -7.875 0.703125 -7.734375 0.734375 -7.546875 Z M 2.078125 -1.140625 "/></g></g></g><g fill="#ffffff" fill-opacity="1"><g transform="translate(245.042865, 229.590745)"><g><path d="M 3.453125 -0.765625 C 3.242188 -0.722656 3.0625 -0.75 2.90625 -0.84375 C 2.75 -0.9375 2.644531 -1.082031 2.59375 -1.28125 L 1.171875 -7.6875 L 2.59375 -8.015625 L 4.015625 -1.609375 C 4.066406 -1.410156 4.035156 -1.234375 3.921875 -1.078125 C 3.816406 -0.921875 3.660156 -0.816406 3.453125 -0.765625 Z M -0.4375 -6.6875 C -0.625 -6.644531 -0.796875 -6.664062 -0.953125 -6.75 C -1.109375 -6.84375 -1.207031 -6.988281 -1.25 -7.1875 C -1.289062 -7.363281 -1.257812 -7.523438 -1.15625 -7.671875 C -1.050781 -7.816406 -0.90625 -7.910156 -0.71875 -7.953125 L 4.1875 -9.046875 C 4.375 -9.085938 4.546875 -9.0625 4.703125 -8.96875 C 4.867188 -8.882812 4.972656 -8.75 5.015625 -8.5625 C 5.054688 -8.363281 5.019531 -8.191406 4.90625 -8.046875 C 4.800781 -7.910156 4.65625 -7.820312 4.46875 -7.78125 Z M -0.4375 -6.6875 "/></g></g></g><g fill="#ffffff" fill-opacity="1"><g transform="translate(251.442463, 228.169778)"><g><path d="M 3.84375 -9.125 C 4.019531 -9.164062 4.191406 -9.132812 4.359375 -9.03125 C 4.523438 -8.9375 4.632812 -8.789062 4.6875 -8.59375 C 4.695312 -8.53125 4.703125 -8.460938 4.703125 -8.390625 C 4.703125 -8.316406 4.6875 -8.238281 4.65625 -8.15625 L 3.03125 -3.96875 L 3.046875 -4.78125 L 3.8125 -1.625 C 3.851562 -1.425781 3.820312 -1.25 3.71875 -1.09375 C 3.625 -0.9375 3.492188 -0.835938 3.328125 -0.796875 C 3.140625 -0.753906 2.96875 -0.78125 2.8125 -0.875 C 2.65625 -0.96875 2.554688 -1.113281 2.515625 -1.3125 L 1.765625 -4.375 L 1.953125 -4.0625 L -1.203125 -6.640625 C -1.296875 -6.710938 -1.367188 -6.789062 -1.421875 -6.875 C -1.472656 -6.957031 -1.503906 -7.035156 -1.515625 -7.109375 C -1.566406 -7.296875 -1.53125 -7.472656 -1.40625 -7.640625 C -1.28125 -7.804688 -1.140625 -7.910156 -0.984375 -7.953125 C -0.773438 -8.003906 -0.570312 -7.941406 -0.375 -7.765625 L 2.4375 -5.375 L 2.140625 -5.34375 L 3.390625 -8.640625 C 3.484375 -8.910156 3.632812 -9.070312 3.84375 -9.125 Z M 3.84375 -9.125 "/></g></g></g><g clip-path="url(#4424486bec)"><path fill="#ff1ba7" d="M 60.414062 154.71875 L 62.597656 159.132812 C 62.9375 159.820312 63.589844 160.296875 64.347656 160.40625 L 69.222656 161.113281 C 71.128906 161.390625 71.890625 163.738281 70.511719 165.082031 L 66.984375 168.527344 C 66.4375 169.0625 66.183594 169.832031 66.3125 170.589844 L 67.144531 175.441406 C 67.46875 177.34375 65.472656 178.792969 63.765625 177.894531 L 59.410156 175.601562 C 58.730469 175.246094 57.921875 175.246094 57.246094 175.601562 L 52.886719 177.890625 C 51.183594 178.785156 49.179688 177.335938 49.511719 175.433594 L 50.339844 170.582031 C 50.46875 169.832031 50.222656 169.058594 49.671875 168.519531 L 46.144531 165.082031 C 44.761719 163.738281 45.527344 161.390625 47.433594 161.113281 L 52.304688 160.40625 C 53.0625 160.296875 53.71875 159.820312 54.058594 159.132812 L 56.238281 154.71875 C 57.09375 152.988281 59.558594 152.988281 60.414062 154.71875 Z M 60.414062 154.71875 " fill-opacity="1" fill-rule="nonzero"/></g><g clip-path="url(#f4e350f998)"><path fill="#ff1ba7" d="M 45.800781 178.433594 L 46.890625 180.640625 C 47.0625 180.984375 47.390625 181.222656 47.765625 181.277344 L 50.203125 181.628906 C 51.15625 181.769531 51.539062 182.941406 50.847656 183.613281 L 49.085938 185.335938 C 48.8125 185.601562 48.683594 185.988281 48.75 186.367188 L 49.164062 188.789062 C 49.328125 189.742188 48.328125 190.464844 47.476562 190.015625 L 45.300781 188.871094 C 44.957031 188.691406 44.554688 188.691406 44.21875 188.871094 L 42.039062 190.015625 C 41.1875 190.460938 40.1875 189.738281 40.351562 188.789062 L 40.765625 186.363281 C 40.832031 185.988281 40.707031 185.601562 40.433594 185.332031 L 38.667969 183.613281 C 37.980469 182.941406 38.359375 181.769531 39.3125 181.628906 L 41.75 181.277344 C 42.128906 181.222656 42.453125 180.984375 42.625 180.640625 L 43.714844 178.433594 C 44.140625 177.570312 45.375 177.570312 45.800781 178.433594 Z M 45.800781 178.433594 " fill-opacity="1" fill-rule="nonzero"/></g><g clip-path="url(#8d175ea040)"><path fill="#ff1ba7" d="M 281.460938 118.140625 L 283.257812 121.785156 C 283.539062 122.347656 284.078125 122.746094 284.707031 122.835938 L 288.726562 123.417969 C 290.296875 123.648438 290.929688 125.582031 289.789062 126.691406 L 286.878906 129.535156 C 286.429688 129.976562 286.21875 130.609375 286.324219 131.234375 L 287.011719 135.238281 C 287.277344 136.808594 285.632812 138.003906 284.222656 137.261719 L 280.628906 135.371094 C 280.070312 135.074219 279.402344 135.074219 278.84375 135.371094 L 275.25 137.257812 C 273.839844 138 272.191406 136.804688 272.464844 135.234375 L 273.148438 131.230469 C 273.253906 130.609375 273.050781 129.972656 272.59375 129.53125 L 269.683594 126.691406 C 268.546875 125.582031 269.175781 123.648438 270.75 123.417969 L 274.769531 122.835938 C 275.394531 122.746094 275.933594 122.347656 276.214844 121.785156 L 278.015625 118.140625 C 278.71875 116.714844 280.753906 116.714844 281.460938 118.140625 Z M 281.460938 118.140625 " fill-opacity="1" fill-rule="nonzero"/></g><g clip-path="url(#21ffe06bf4)"><path fill="#ff1ba7" d="M 308.988281 216.371094 L 310.078125 218.578125 C 310.246094 218.917969 310.574219 219.160156 310.953125 219.214844 L 313.386719 219.566406 C 314.34375 219.707031 314.722656 220.878906 314.03125 221.550781 L 312.269531 223.273438 C 311.996094 223.539062 311.871094 223.921875 311.933594 224.300781 L 312.351562 226.726562 C 312.511719 227.679688 311.515625 228.402344 310.664062 227.953125 L 308.484375 226.808594 C 308.144531 226.628906 307.742188 226.628906 307.402344 226.808594 L 305.226562 227.949219 C 304.371094 228.398438 303.371094 227.675781 303.539062 226.722656 L 303.953125 224.300781 C 304.015625 223.921875 303.894531 223.539062 303.617188 223.269531 L 301.855469 221.550781 C 301.164062 220.878906 301.546875 219.707031 302.5 219.566406 L 304.933594 219.214844 C 305.3125 219.160156 305.640625 218.917969 305.808594 218.578125 L 306.902344 216.371094 C 307.328125 215.503906 308.558594 215.503906 308.988281 216.371094 Z M 308.988281 216.371094 " fill-opacity="1" fill-rule="nonzero"/></g></svg>