<svg xmlns="http://www.w3.org/2000/svg" xmlns:xlink="http://www.w3.org/1999/xlink" width="500" zoomAndPan="magnify" viewBox="0 0 375 374.999991" height="500" preserveAspectRatio="xMidYMid meet" version="1.0"><defs><g/><clipPath id="83b165f93a"><path d="M 154 90.21875 L 253 90.21875 L 253 131 L 154 131 Z M 154 90.21875 " clip-rule="nonzero"/></clipPath><clipPath id="0d3583400d"><path d="M 167 225 L 168 225 L 168 225.21875 L 167 225.21875 Z M 167 225 " clip-rule="nonzero"/></clipPath><clipPath id="c7044763ac"><path d="M 90.941406 144.667969 L 120.191406 144.667969 L 120.191406 173.917969 L 90.941406 173.917969 Z M 90.941406 144.667969 " clip-rule="nonzero"/></clipPath><clipPath id="761e1020fc"><path d="M 112 121.917969 L 128.5 121.917969 L 128.5 138.417969 L 112 138.417969 Z M 112 121.917969 " clip-rule="nonzero"/></clipPath><clipPath id="c98204abd5"><path d="M 269.617188 159.277344 L 286 159.277344 L 286 175.777344 L 269.617188 175.777344 Z M 269.617188 159.277344 " clip-rule="nonzero"/></clipPath></defs><rect x="-37.5" width="450" fill="#ffffff" y="-37.499999" height="449.999989" fill-opacity="1"/><rect x="-37.5" width="450" fill="#ffffff" y="-37.499999" height="449.999989" fill-opacity="1"/><path fill="#ffc6d0" d="M 243.179688 219.675781 C 250.085938 172.085938 223.5 156.136719 223.5 156.136719 C 238.25 180.363281 226.914062 207.453125 226.695312 207.96875 C 233.605469 173.945312 212.335938 148.691406 177.246094 130.613281 C 160.160156 121.8125 154.085938 112.085938 152.351562 104.421875 C 151.980469 102.800781 151.804688 101.269531 151.765625 99.859375 C 151.636719 95.605469 152.703125 92.449219 153.226562 91.171875 C 155.78125 99.632812 167.710938 112.554688 208.882812 127.421875 C 282.0625 153.855469 243.179688 219.675781 243.179688 219.675781 " fill-opacity="1" fill-rule="nonzero"/><g clip-path="url(#83b165f93a)"><path fill="#ffc6d0" d="M 154.875 90.21875 C 154.875 90.21875 166.734375 110.054688 204.09375 111.644531 C 233.734375 112.910156 248.015625 125.0625 252.648438 130.027344 C 245.738281 124.351562 233.136719 118.644531 210.164062 116.699219 C 159.230469 112.378906 154.875 90.21875 154.875 90.21875 " fill-opacity="1" fill-rule="nonzero"/></g><g clip-path="url(#0d3583400d)"><path fill="#ffc6d0" d="M 167.820312 225.109375 C 167.804688 225.113281 167.785156 225.117188 167.769531 225.121094 C 167.753906 225.125 167.746094 225.128906 167.738281 225.128906 C 167.726562 225.128906 167.714844 225.128906 167.703125 225.136719 L 167.816406 225.042969 L 167.820312 225.109375 " fill-opacity="1" fill-rule="nonzero"/></g><path fill="#efee0e" d="M 151.570312 92.613281 C 151.234375 93.179688 150.917969 93.753906 150.613281 94.34375 C 150.496094 94.574219 150.375 94.8125 150.261719 95.046875 C 150.855469 93.507812 151.492188 92.707031 151.570312 92.613281 " fill-opacity="1" fill-rule="nonzero"/><path fill="#efee0e" d="M 153.09375 104.421875 C 152.722656 102.800781 152.550781 101.269531 152.507812 99.863281 L 153.09375 104.421875 " fill-opacity="1" fill-rule="nonzero"/><path fill="#ffc6d0" d="M 169.308594 224.367188 L 169.300781 224.296875 L 173.007812 221.132812 C 179.589844 215.300781 192.472656 202.871094 193.648438 193.933594 C 194.03125 191.035156 193.460938 189.167969 192.382812 188 C 189.183594 184.53125 181.457031 187.261719 180.535156 187.601562 C 180.476562 187.625 180.445312 187.632812 180.445312 187.632812 C 179.214844 188.15625 177.945312 188.617188 176.636719 188.984375 C 175.328125 189.347656 173.96875 189.617188 172.550781 189.691406 C 172.378906 189.714844 172.191406 189.707031 172.015625 189.707031 L 171.476562 189.707031 C 171.296875 189.707031 171.113281 189.683594 170.933594 189.675781 C 170.75 189.660156 170.570312 189.65625 170.386719 189.621094 L 169.835938 189.535156 C 169.742188 189.527344 169.65625 189.507812 169.558594 189.484375 L 169.289062 189.417969 L 169.007812 189.351562 C 168.921875 189.332031 168.832031 189.292969 168.738281 189.265625 C 168.554688 189.203125 168.371094 189.148438 168.191406 189.078125 C 167.46875 188.789062 166.777344 188.378906 166.160156 187.867188 C 165.542969 187.351562 165.019531 186.714844 164.617188 186.015625 C 164.507812 185.824219 164.410156 185.625 164.316406 185.425781 C 164.074219 184.898438 163.898438 184.34375 163.785156 183.777344 C 163.703125 183.382812 163.667969 182.980469 163.648438 182.578125 L 163.648438 182.273438 C 163.648438 182.167969 163.648438 182.066406 163.660156 181.960938 L 163.6875 181.644531 C 163.703125 181.527344 163.71875 181.398438 163.742188 181.273438 L 163.757812 181.183594 L 163.769531 181.140625 L 163.777344 181.109375 L 163.800781 180.992188 L 163.828125 180.871094 L 163.835938 180.84375 L 163.859375 180.75 L 163.875 180.699219 L 164 180.257812 L 164.101562 179.820312 L 164.191406 179.386719 C 164.304688 178.808594 164.375 178.246094 164.382812 177.699219 C 164.394531 177.152344 164.34375 176.617188 164.242188 176.050781 C 164.21875 175.914062 164.191406 175.765625 164.164062 175.625 C 164.128906 175.480469 164.105469 175.34375 164.0625 175.179688 L 164.039062 175.0625 L 164.019531 175 L 164.015625 174.988281 C 164.015625 174.972656 164.007812 174.960938 164.007812 174.945312 L 163.992188 174.921875 C 163.976562 174.886719 163.972656 174.871094 163.960938 174.863281 C 163.953125 174.863281 163.949219 174.855469 163.917969 174.835938 C 163.886719 174.8125 163.832031 174.78125 163.753906 174.738281 C 163.585938 174.664062 163.324219 174.574219 163.015625 174.46875 C 162.984375 174.457031 162.945312 174.449219 162.910156 174.433594 C 162.3125 174.242188 161.578125 173.984375 160.886719 173.539062 C 160.703125 173.421875 160.527344 173.296875 160.355469 173.160156 L 160.222656 173.054688 C 160.183594 173.019531 160.132812 172.96875 160.085938 172.933594 L 159.949219 172.804688 L 159.855469 172.71875 L 159.769531 172.632812 L 159.726562 172.582031 L 159.707031 172.5625 L 159.664062 172.515625 L 159.597656 172.425781 C 159.542969 172.367188 159.492188 172.300781 159.445312 172.242188 L 159.3125 172.03125 C 159.269531 171.960938 159.222656 171.890625 159.191406 171.8125 C 159.15625 171.734375 159.121094 171.65625 159.089844 171.578125 C 159.019531 171.417969 158.984375 171.253906 158.941406 171.09375 C 158.917969 171.007812 158.910156 170.929688 158.902344 170.851562 C 158.894531 170.769531 158.886719 170.6875 158.878906 170.605469 C 158.875 170.457031 158.875 170.300781 158.882812 170.148438 C 158.902344 170.011719 158.917969 169.867188 158.941406 169.730469 C 158.972656 169.605469 159 169.464844 159.039062 169.351562 C 159.179688 168.863281 159.378906 168.464844 159.589844 168.101562 C 159.8125 167.722656 160.042969 167.390625 160.289062 167.078125 C 159.96875 166.96875 159.652344 166.84375 159.339844 166.710938 C 158.671875 166.414062 158.035156 166.050781 157.417969 165.589844 C 157.113281 165.363281 156.808594 165.101562 156.519531 164.792969 C 156.226562 164.484375 155.941406 164.128906 155.703125 163.644531 L 155.613281 163.457031 C 155.585938 163.398438 155.5625 163.320312 155.535156 163.25 C 155.511719 163.183594 155.488281 163.113281 155.464844 163.035156 C 155.445312 162.957031 155.429688 162.875 155.410156 162.792969 L 155.386719 162.675781 C 155.382812 162.628906 155.378906 162.578125 155.375 162.535156 C 155.367188 162.445312 155.359375 162.359375 155.359375 162.269531 C 155.359375 162.171875 155.367188 162.074219 155.375 161.972656 C 155.378906 161.878906 155.390625 161.78125 155.417969 161.683594 C 155.4375 161.582031 155.464844 161.484375 155.496094 161.386719 C 155.53125 161.289062 155.570312 161.203125 155.609375 161.109375 C 155.632812 161.0625 155.652344 161.019531 155.675781 160.972656 C 155.703125 160.925781 155.726562 160.890625 155.753906 160.847656 C 155.800781 160.765625 155.859375 160.6875 155.914062 160.609375 C 155.980469 160.527344 156.058594 160.441406 156.136719 160.363281 C 156.175781 160.328125 156.210938 160.289062 156.253906 160.246094 L 156.3125 160.191406 C 156.328125 160.175781 156.328125 160.183594 156.328125 160.175781 L 156.34375 160.171875 L 156.429688 160.09375 L 156.476562 160.0625 L 156.601562 159.96875 C 157.007812 159.679688 157.386719 159.34375 157.710938 158.984375 C 157.902344 158.773438 158.078125 158.542969 158.222656 158.324219 C 158.171875 158.328125 158.125 158.328125 158.078125 158.328125 C 158.078125 158.328125 155.382812 158.28125 152.578125 157.78125 C 152.566406 157.777344 152.558594 157.773438 152.539062 157.769531 C 151.96875 157.65625 151.351562 157.523438 150.679688 157.359375 C 150.664062 157.351562 150.648438 157.347656 150.636719 157.347656 C 145.113281 156.015625 145.394531 154.824219 148.621094 148.949219 L 148.621094 148.945312 C 151.824219 143.121094 154.582031 134.433594 154.644531 134.234375 L 154.644531 134.230469 L 154.640625 134.167969 L 154.636719 134.136719 C 154.625 134.097656 154.609375 134.050781 154.578125 134.019531 C 154.5625 134 154.542969 133.988281 154.519531 133.972656 L 154.492188 133.949219 L 154.472656 133.941406 C 154.457031 133.933594 154.417969 133.921875 154.40625 133.921875 L 154.289062 133.890625 L 154.050781 133.832031 C 153.890625 133.792969 153.726562 133.761719 153.570312 133.707031 C 152.773438 133.414062 152.097656 133.085938 151.511719 132.742188 C 148.96875 131.222656 148.359375 129.425781 148.335938 129.359375 C 148.382812 129.421875 148.433594 129.480469 148.480469 129.539062 C 148.691406 129.773438 148.945312 129.992188 149.226562 130.191406 C 149.289062 130.238281 149.351562 130.277344 149.414062 130.320312 C 149.441406 130.335938 149.464844 130.351562 149.488281 130.371094 L 149.5 130.375 C 149.570312 130.417969 149.636719 130.457031 149.707031 130.496094 L 149.71875 130.5 L 149.894531 130.589844 L 149.894531 130.585938 C 149.871094 130.566406 149.832031 130.53125 149.777344 130.476562 C 149.761719 130.464844 149.746094 130.449219 149.730469 130.433594 C 149.332031 130.03125 148.390625 128.902344 148.480469 127.273438 C 148.480469 127.273438 148.703125 127.824219 149.320312 128.515625 L 149.332031 128.523438 C 149.917969 129.160156 150.855469 129.910156 152.300781 130.425781 L 152.308594 130.429688 C 152.617188 130.53125 152.929688 130.613281 153.230469 130.660156 C 153.488281 130.699219 153.738281 130.722656 153.964844 130.699219 C 154.191406 130.683594 154.390625 130.625 154.5 130.535156 C 154.558594 130.492188 154.59375 130.449219 154.625 130.390625 C 154.628906 130.378906 154.636719 130.363281 154.644531 130.347656 C 154.652344 130.328125 154.652344 130.320312 154.65625 130.304688 L 154.683594 130.164062 C 154.71875 129.917969 154.71875 129.714844 154.667969 129.542969 C 154.585938 129.207031 154.203125 128.738281 153.878906 128.269531 C 153.542969 127.789062 153.230469 127.289062 152.945312 126.777344 C 152.378906 125.753906 151.898438 124.699219 151.46875 123.628906 C 151.039062 122.558594 150.664062 121.46875 150.316406 120.378906 C 149.980469 119.28125 149.671875 118.183594 149.382812 117.074219 C 149.242188 116.523438 149.097656 115.964844 148.96875 115.417969 L 148.777344 114.589844 L 148.730469 114.378906 L 148.683594 114.164062 L 148.597656 113.742188 L 148.421875 112.890625 L 148.289062 112.03125 C 148.191406 111.460938 148.140625 110.882812 148.078125 110.308594 C 148.039062 110.019531 148.027344 109.730469 148.003906 109.445312 C 147.992188 109.15625 147.972656 108.867188 147.960938 108.578125 L 147.949219 107.710938 C 147.945312 107.570312 147.945312 107.425781 147.945312 107.277344 L 147.957031 106.847656 C 147.964844 106.554688 147.972656 106.269531 147.984375 105.980469 L 148.046875 105.117188 C 148.058594 104.972656 148.066406 104.832031 148.082031 104.6875 L 148.128906 104.257812 C 148.160156 103.96875 148.1875 103.683594 148.234375 103.394531 C 148.390625 102.257812 148.628906 101.125 148.90625 100.015625 C 149.199219 98.898438 149.550781 97.808594 149.964844 96.734375 C 150.277344 95.910156 150.625 95.097656 151.003906 94.304688 C 149.597656 97.957031 148.449219 105.773438 155.695312 118.1875 C 159.535156 124.757812 165.722656 132.621094 175.480469 141.832031 L 175.5 141.847656 C 180.515625 146.589844 184.882812 151.320312 188.5625 155.996094 C 211.601562 185.269531 207.804688 212.296875 169.308594 224.367188 " fill-opacity="1" fill-rule="nonzero"/><path fill="#ffc6d0" d="M 182.164062 140.902344 C 182.164062 140.902344 182.230469 140.929688 182.359375 140.980469 C 182.488281 141.03125 182.679688 141.109375 182.925781 141.21875 C 183.417969 141.4375 184.140625 141.757812 185.03125 142.21875 C 185.480469 142.449219 185.972656 142.703125 186.5 143.003906 C 187.035156 143.292969 187.597656 143.628906 188.199219 143.992188 C 189.394531 144.71875 190.726562 145.578125 192.125 146.601562 C 192.476562 146.855469 192.839844 147.105469 193.195312 147.378906 C 193.550781 147.65625 193.914062 147.941406 194.28125 148.226562 C 195.023438 148.796875 195.757812 149.425781 196.515625 150.070312 C 197.253906 150.738281 198.042969 151.398438 198.78125 152.140625 C 199.15625 152.507812 199.535156 152.875 199.921875 153.246094 C 200.292969 153.632812 200.667969 154.023438 201.039062 154.417969 C 201.230469 154.617188 201.417969 154.816406 201.605469 155.015625 C 201.792969 155.21875 201.972656 155.429688 202.15625 155.636719 C 202.523438 156.054688 202.890625 156.472656 203.261719 156.898438 C 203.625 157.324219 203.972656 157.777344 204.328125 158.21875 C 204.683594 158.667969 205.054688 159.105469 205.386719 159.574219 C 206.066406 160.503906 206.753906 161.441406 207.378906 162.425781 C 207.699219 162.917969 208.03125 163.398438 208.335938 163.898438 L 209.222656 165.417969 L 209.664062 166.179688 C 209.808594 166.4375 209.9375 166.703125 210.074219 166.960938 C 210.34375 167.484375 210.613281 168.003906 210.875 168.527344 L 211.070312 168.921875 L 211.25 169.320312 L 211.605469 170.125 C 211.839844 170.65625 212.074219 171.191406 212.308594 171.71875 C 212.507812 172.265625 212.707031 172.804688 212.90625 173.347656 C 213.003906 173.617188 213.101562 173.886719 213.203125 174.152344 L 213.347656 174.554688 L 213.476562 174.960938 C 213.644531 175.507812 213.796875 176.050781 213.953125 176.585938 C 214.109375 177.125 214.277344 177.65625 214.390625 178.199219 C 214.515625 178.734375 214.628906 179.269531 214.746094 179.800781 C 214.804688 180.0625 214.859375 180.328125 214.917969 180.589844 C 214.976562 180.851562 215.007812 181.117188 215.050781 181.375 C 215.136719 181.902344 215.210938 182.417969 215.285156 182.933594 C 215.355469 183.445312 215.449219 183.945312 215.476562 184.453125 C 215.5625 185.457031 215.625 186.433594 215.6875 187.375 C 215.699219 188.324219 215.6875 189.234375 215.683594 190.109375 C 215.683594 190.328125 215.683594 190.542969 215.683594 190.757812 C 215.664062 190.96875 215.648438 191.179688 215.632812 191.390625 C 215.601562 191.804688 215.566406 192.210938 215.535156 192.609375 C 215.507812 193.003906 215.46875 193.390625 215.433594 193.761719 C 215.417969 193.949219 215.398438 194.132812 215.382812 194.3125 C 215.355469 194.496094 215.328125 194.671875 215.300781 194.847656 C 215.183594 195.542969 215.074219 196.195312 214.972656 196.796875 C 214.863281 197.394531 214.78125 197.941406 214.640625 198.433594 C 214.394531 199.414062 214.175781 200.175781 214.035156 200.691406 C 213.964844 200.949219 213.902344 201.148438 213.863281 201.28125 C 213.824219 201.414062 213.804688 201.484375 213.804688 201.484375 L 213.742188 201.472656 C 213.742188 201.472656 213.738281 201.402344 213.730469 201.261719 C 213.722656 201.121094 213.710938 200.914062 213.703125 200.648438 C 213.6875 200.109375 213.652344 199.324219 213.636719 198.335938 C 213.640625 197.84375 213.59375 197.296875 213.550781 196.699219 C 213.511719 196.109375 213.472656 195.46875 213.429688 194.789062 C 213.421875 194.617188 213.414062 194.445312 213.40625 194.269531 C 213.386719 194.09375 213.363281 193.917969 213.34375 193.738281 C 213.304688 193.378906 213.257812 193.007812 213.21875 192.628906 C 213.183594 192.25 213.140625 191.863281 213.101562 191.46875 C 213.082031 191.269531 213.058594 191.070312 213.039062 190.867188 C 213.003906 190.667969 212.972656 190.464844 212.941406 190.257812 C 212.816406 189.4375 212.671875 188.585938 212.550781 187.703125 C 212.375 186.828125 212.171875 185.933594 211.996094 185.007812 C 211.921875 184.542969 211.78125 184.085938 211.664062 183.617188 C 211.539062 183.148438 211.417969 182.675781 211.304688 182.199219 C 211.238281 181.960938 211.195312 181.71875 211.117188 181.480469 C 211.042969 181.242188 210.96875 181.003906 210.894531 180.761719 C 210.742188 180.28125 210.589844 179.800781 210.449219 179.308594 C 210.316406 178.816406 210.128906 178.335938 209.953125 177.847656 C 209.777344 177.359375 209.597656 176.871094 209.425781 176.375 L 209.296875 176.003906 L 209.144531 175.636719 C 209.042969 175.390625 208.945312 175.148438 208.84375 174.902344 C 208.640625 174.410156 208.441406 173.917969 208.238281 173.421875 C 208.015625 172.933594 207.789062 172.445312 207.566406 171.957031 L 207.226562 171.21875 L 207.0625 170.851562 L 206.871094 170.488281 C 206.621094 170.011719 206.375 169.523438 206.128906 169.039062 C 206.003906 168.796875 205.890625 168.550781 205.757812 168.3125 L 205.355469 167.597656 L 204.550781 166.175781 C 204.269531 165.707031 203.980469 165.242188 203.699219 164.777344 C 203.148438 163.835938 202.519531 162.953125 201.929688 162.046875 C 201.640625 161.589844 201.316406 161.164062 201.007812 160.722656 C 200.691406 160.289062 200.390625 159.847656 200.070312 159.425781 C 199.75 159.003906 199.429688 158.585938 199.113281 158.167969 C 198.953125 157.957031 198.800781 157.746094 198.640625 157.542969 C 198.472656 157.339844 198.3125 157.140625 198.148438 156.9375 C 197.820312 156.539062 197.5 156.136719 197.183594 155.738281 C 196.851562 155.351562 196.527344 154.96875 196.203125 154.585938 C 196.039062 154.394531 195.878906 154.207031 195.71875 154.019531 C 195.554688 153.835938 195.390625 153.652344 195.226562 153.46875 C 194.902344 153.101562 194.582031 152.742188 194.265625 152.382812 C 193.941406 152.035156 193.617188 151.691406 193.300781 151.351562 C 192.984375 151.011719 192.675781 150.671875 192.359375 150.351562 C 191.730469 149.707031 191.125 149.078125 190.527344 148.492188 C 189.9375 147.894531 189.347656 147.347656 188.796875 146.808594 C 188.238281 146.285156 187.703125 145.789062 187.203125 145.320312 C 186.1875 144.398438 185.289062 143.605469 184.535156 142.957031 C 183.785156 142.316406 183.1875 141.804688 182.769531 141.472656 C 182.355469 141.136719 182.132812 140.957031 182.132812 140.957031 L 182.164062 140.902344 " fill-opacity="1" fill-rule="nonzero"/><g fill="#9b5e69" fill-opacity="1"><g transform="translate(86.381952, 257.11975)"><g><path d="M 28.796875 -10.1875 C 28.898438 -8.78125 28.617188 -7.46875 27.953125 -6.25 C 27.285156 -5.039062 26.335938 -3.976562 25.109375 -3.0625 C 23.878906 -2.144531 22.425781 -1.410156 20.75 -0.859375 C 19.082031 -0.316406 17.335938 -0.03125 15.515625 0 C 16.140625 -0.0703125 16.742188 -0.265625 17.328125 -0.578125 C 17.910156 -0.898438 18.425781 -1.296875 18.875 -1.765625 C 19.332031 -2.242188 19.691406 -2.789062 19.953125 -3.40625 C 20.222656 -4.019531 20.359375 -4.660156 20.359375 -5.328125 C 20.359375 -6.660156 19.890625 -7.925781 18.953125 -9.125 C 18.023438 -10.320312 16.847656 -11.488281 15.421875 -12.625 C 14.003906 -13.769531 12.476562 -14.921875 10.84375 -16.078125 C 9.207031 -17.242188 7.675781 -18.457031 6.25 -19.71875 C 4.820312 -20.988281 3.640625 -22.328125 2.703125 -23.734375 C 1.773438 -25.140625 1.3125 -26.671875 1.3125 -28.328125 C 1.3125 -29.910156 1.742188 -31.242188 2.609375 -32.328125 C 3.472656 -33.421875 4.5625 -34.3125 5.875 -35 C 7.195312 -35.6875 8.640625 -36.175781 10.203125 -36.46875 C 11.765625 -36.769531 13.269531 -36.921875 14.71875 -36.921875 L 15.515625 -36.921875 C 14.273438 -36.816406 13.179688 -36.359375 12.234375 -35.546875 C 11.285156 -34.742188 10.757812 -33.601562 10.65625 -32.125 C 10.550781 -30.75 10.910156 -29.484375 11.734375 -28.328125 C 12.554688 -27.171875 13.609375 -26.054688 14.890625 -24.984375 C 16.179688 -23.910156 17.609375 -22.84375 19.171875 -21.78125 C 20.734375 -20.726562 22.203125 -19.613281 23.578125 -18.4375 C 24.953125 -17.257812 26.128906 -16 27.109375 -14.65625 C 28.097656 -13.320312 28.660156 -11.832031 28.796875 -10.1875 Z M 26.421875 -26.953125 C 26.210938 -28.003906 25.832031 -29.078125 25.28125 -30.171875 C 24.738281 -31.265625 24.054688 -32.285156 23.234375 -33.234375 C 22.410156 -34.179688 21.460938 -34.976562 20.390625 -35.625 C 19.316406 -36.28125 18.144531 -36.675781 16.875 -36.8125 C 18 -36.707031 19.0625 -36.578125 20.0625 -36.421875 C 21.070312 -36.265625 22.140625 -36.1875 23.265625 -36.1875 C 23.859375 -36.1875 24.445312 -36.238281 25.03125 -36.34375 C 25.613281 -36.445312 26.078125 -36.640625 26.421875 -36.921875 Z M 9.5 -2.53125 C 9.601562 -1.9375 10.054688 -1.382812 10.859375 -0.875 C 11.671875 -0.363281 12.816406 -0.0703125 14.296875 0 C 12.503906 -0.0703125 10.820312 -0.351562 9.25 -0.84375 C 7.6875 -1.332031 6.316406 -1.984375 5.140625 -2.796875 C 3.960938 -3.609375 3.03125 -4.550781 2.34375 -5.625 C 1.65625 -6.695312 1.3125 -7.863281 1.3125 -9.125 C 1.3125 -9.894531 1.460938 -10.625 1.765625 -11.3125 C 2.066406 -12 2.472656 -12.597656 2.984375 -13.109375 C 3.492188 -13.617188 4.085938 -14.019531 4.765625 -14.3125 C 5.453125 -14.613281 6.1875 -14.765625 6.96875 -14.765625 C 7.738281 -14.765625 8.46875 -14.613281 9.15625 -14.3125 C 9.84375 -14.019531 10.4375 -13.617188 10.9375 -13.109375 C 11.445312 -12.597656 11.851562 -12 12.15625 -11.3125 C 12.457031 -10.625 12.609375 -9.894531 12.609375 -9.125 C 12.609375 -8.351562 12.457031 -7.613281 12.15625 -6.90625 C 11.851562 -6.207031 11.457031 -5.609375 10.96875 -5.109375 C 10.40625 -4.515625 10 -4.054688 9.75 -3.734375 C 9.507812 -3.421875 9.425781 -3.019531 9.5 -2.53125 Z M 9.5 -2.53125 "/></g></g></g><g fill="#9b5e69" fill-opacity="1"><g transform="translate(116.551417, 257.11975)"><g><path d="M 8.4375 -5.859375 C 8.4375 -5.046875 8.585938 -4.28125 8.890625 -3.5625 C 9.191406 -2.84375 9.601562 -2.21875 10.125 -1.6875 C 10.65625 -1.15625 11.269531 -0.738281 11.96875 -0.4375 C 12.675781 -0.144531 13.4375 0 14.25 0 L 1.3125 0 C 2.09375 -0.101562 2.84375 -0.347656 3.5625 -0.734375 C 4.28125 -1.117188 4.957031 -1.601562 5.59375 -2.1875 C 6.226562 -2.769531 6.789062 -3.410156 7.28125 -4.109375 C 7.769531 -4.816406 8.15625 -5.539062 8.4375 -6.28125 Z M 18.5625 0 C 19.300781 0 19.9375 -0.304688 20.46875 -0.921875 C 21 -1.535156 21.265625 -2.226562 21.265625 -3 C 21.265625 -3.144531 21.265625 -3.285156 21.265625 -3.421875 C 21.265625 -3.566406 21.226562 -3.707031 21.15625 -3.84375 L 19.625 -8.28125 L 19.515625 -8.59375 L 15.765625 -19.40625 C 15.523438 -20.007812 15.085938 -20.3125 14.453125 -20.3125 C 13.859375 -20.3125 13.4375 -20.007812 13.1875 -19.40625 L 19.515625 -36.921875 L 25.375 -20.09375 C 25.613281 -19.394531 25.890625 -18.5625 26.203125 -17.59375 C 26.523438 -16.625 26.8125 -15.789062 27.0625 -15.09375 L 31.390625 -2.75 C 31.628906 -2.039062 32.054688 -1.40625 32.671875 -0.84375 C 33.296875 -0.28125 34.007812 0 34.8125 0 Z M 18.5625 0 "/></g></g></g><g fill="#9b5e69" fill-opacity="1"><g transform="translate(152.680935, 257.11975)"><g><path d="M 7.703125 -6.640625 C 7.703125 -5.796875 7.867188 -4.96875 8.203125 -4.15625 C 8.535156 -3.351562 8.988281 -2.644531 9.5625 -2.03125 C 10.144531 -1.414062 10.820312 -0.921875 11.59375 -0.546875 C 12.375 -0.179688 13.1875 0 14.03125 0 L 1.3125 0 C 2.15625 0 2.960938 -0.179688 3.734375 -0.546875 C 4.515625 -0.921875 5.191406 -1.414062 5.765625 -2.03125 C 6.347656 -2.644531 6.816406 -3.351562 7.171875 -4.15625 C 7.523438 -4.96875 7.703125 -5.796875 7.703125 -6.640625 Z M 24.46875 -17.140625 C 25.144531 -17.140625 25.601562 -17.472656 25.84375 -18.140625 L 25.3125 -16.609375 L 19.515625 0 L 10.34375 -26.53125 C 10.09375 -27.164062 9.632812 -27.484375 8.96875 -27.484375 C 8.582031 -27.484375 8.25 -27.34375 7.96875 -27.0625 C 7.6875 -26.78125 7.546875 -26.445312 7.546875 -26.0625 L 7.546875 -33.4375 C 7.546875 -34.320312 7.207031 -35.125 6.53125 -35.84375 C 5.863281 -36.5625 5.09375 -36.921875 4.21875 -36.921875 L 16.5625 -36.921875 L 22.203125 -20.734375 L 23.109375 -18.140625 C 23.171875 -17.859375 23.332031 -17.617188 23.59375 -17.421875 C 23.863281 -17.234375 24.15625 -17.140625 24.46875 -17.140625 Z M 43.78125 -36.921875 C 42.90625 -36.921875 42.160156 -36.5625 41.546875 -35.84375 C 40.929688 -35.125 40.625 -34.320312 40.625 -33.4375 L 40.625 -3.484375 C 40.625 -2.597656 40.929688 -1.796875 41.546875 -1.078125 C 42.160156 -0.359375 42.90625 0 43.78125 0 L 28.109375 0 C 29.023438 0 29.789062 -0.359375 30.40625 -1.078125 C 31.019531 -1.796875 31.328125 -2.597656 31.328125 -3.484375 L 31.328125 -26.328125 C 31.328125 -26.710938 31.175781 -27.050781 30.875 -27.34375 C 30.582031 -27.644531 30.242188 -27.796875 29.859375 -27.796875 C 29.191406 -27.796875 28.734375 -27.460938 28.484375 -26.796875 L 29.375 -29.4375 L 31.90625 -36.921875 Z M 43.78125 -36.921875 "/></g></g></g><g fill="#9b5e69" fill-opacity="1"><g transform="translate(197.776899, 257.11975)"><g><path d="M 13.765625 -3.484375 C 13.765625 -2.597656 14.070312 -1.796875 14.6875 -1.078125 C 15.300781 -0.359375 16.066406 0 16.984375 0 L 1.3125 0 C 2.195312 0 2.945312 -0.359375 3.5625 -1.078125 C 4.175781 -1.796875 4.484375 -2.597656 4.484375 -3.484375 L 4.484375 -33.4375 C 4.484375 -34.320312 4.175781 -35.125 3.5625 -35.84375 C 2.945312 -36.5625 2.195312 -36.921875 1.3125 -36.921875 L 16.984375 -36.921875 C 16.066406 -36.921875 15.300781 -36.5625 14.6875 -35.84375 C 14.070312 -35.125 13.765625 -34.320312 13.765625 -33.4375 Z M 13.765625 -3.484375 "/></g></g></g><g fill="#9b5e69" fill-opacity="1"><g transform="translate(216.079002, 257.11975)"><g><path d="M 24.375 -17.03125 C 25.113281 -16.300781 25.742188 -15.34375 26.265625 -14.15625 C 26.796875 -12.976562 27.28125 -11.726562 27.71875 -10.40625 C 28.15625 -9.09375 28.601562 -7.769531 29.0625 -6.4375 C 29.519531 -5.101562 30.019531 -3.929688 30.5625 -2.921875 C 31.113281 -1.921875 31.75 -1.128906 32.46875 -0.546875 C 33.1875 0.0234375 34.054688 0.207031 35.078125 0 C 34.410156 0.707031 33.476562 1.242188 32.28125 1.609375 C 31.082031 1.972656 29.78125 2.175781 28.375 2.21875 C 26.375 2.21875 24.710938 1.707031 23.390625 0.6875 C 22.078125 -0.332031 21 -1.613281 20.15625 -3.15625 C 19.3125 -4.707031 18.632812 -6.378906 18.125 -8.171875 C 17.613281 -9.960938 17.160156 -11.632812 16.765625 -13.1875 C 16.378906 -14.738281 15.984375 -16.03125 15.578125 -17.0625 C 15.179688 -18.101562 14.664062 -18.625 14.03125 -18.625 L 17.25 -18.625 C 18.019531 -18.625 18.75 -18.859375 19.4375 -19.328125 C 20.125 -19.804688 20.722656 -20.445312 21.234375 -21.25 C 21.742188 -22.0625 22.144531 -23.007812 22.4375 -24.09375 C 22.738281 -25.1875 22.890625 -26.367188 22.890625 -27.640625 C 22.890625 -28.867188 22.738281 -30.046875 22.4375 -31.171875 C 22.144531 -32.296875 21.742188 -33.28125 21.234375 -34.125 C 20.722656 -34.96875 20.125 -35.644531 19.4375 -36.15625 C 18.75 -36.664062 18.019531 -36.921875 17.25 -36.921875 L 22.3125 -36.921875 C 23.6875 -36.921875 24.96875 -36.679688 26.15625 -36.203125 C 27.351562 -35.734375 28.398438 -35.078125 29.296875 -34.234375 C 30.191406 -33.390625 30.90625 -32.40625 31.4375 -31.28125 C 31.96875 -30.15625 32.234375 -28.957031 32.234375 -27.6875 C 32.234375 -26.425781 31.96875 -25.234375 31.4375 -24.109375 C 30.90625 -22.984375 30.191406 -22 29.296875 -21.15625 C 28.398438 -20.3125 27.351562 -19.648438 26.15625 -19.171875 C 24.96875 -18.703125 23.6875 -18.46875 22.3125 -18.46875 L 21.515625 -18.46875 C 21.796875 -18.46875 22.113281 -18.394531 22.46875 -18.25 C 22.75 -18.144531 23.054688 -17.992188 23.390625 -17.796875 C 23.722656 -17.609375 24.050781 -17.351562 24.375 -17.03125 Z M 13.765625 -3.484375 C 13.765625 -2.597656 14.070312 -1.796875 14.6875 -1.078125 C 15.300781 -0.359375 16.066406 0 16.984375 0 L 1.3125 0 C 2.195312 0 2.945312 -0.359375 3.5625 -1.078125 C 4.175781 -1.796875 4.484375 -2.597656 4.484375 -3.484375 L 4.484375 -33.4375 C 4.484375 -34.320312 4.175781 -35.125 3.5625 -35.84375 C 2.945312 -36.5625 2.195312 -36.921875 1.3125 -36.921875 L 13.765625 -36.921875 Z M 13.765625 -3.484375 "/></g></g></g><g fill="#9b5e69" fill-opacity="1"><g transform="translate(252.472235, 257.11975)"><g><path d="M 8.4375 -5.859375 C 8.4375 -5.046875 8.585938 -4.28125 8.890625 -3.5625 C 9.191406 -2.84375 9.601562 -2.21875 10.125 -1.6875 C 10.65625 -1.15625 11.269531 -0.738281 11.96875 -0.4375 C 12.675781 -0.144531 13.4375 0 14.25 0 L 1.3125 0 C 2.09375 -0.101562 2.84375 -0.347656 3.5625 -0.734375 C 4.28125 -1.117188 4.957031 -1.601562 5.59375 -2.1875 C 6.226562 -2.769531 6.789062 -3.410156 7.28125 -4.109375 C 7.769531 -4.816406 8.15625 -5.539062 8.4375 -6.28125 Z M 18.5625 0 C 19.300781 0 19.9375 -0.304688 20.46875 -0.921875 C 21 -1.535156 21.265625 -2.226562 21.265625 -3 C 21.265625 -3.144531 21.265625 -3.285156 21.265625 -3.421875 C 21.265625 -3.566406 21.226562 -3.707031 21.15625 -3.84375 L 19.625 -8.28125 L 19.515625 -8.59375 L 15.765625 -19.40625 C 15.523438 -20.007812 15.085938 -20.3125 14.453125 -20.3125 C 13.859375 -20.3125 13.4375 -20.007812 13.1875 -19.40625 L 19.515625 -36.921875 L 25.375 -20.09375 C 25.613281 -19.394531 25.890625 -18.5625 26.203125 -17.59375 C 26.523438 -16.625 26.8125 -15.789062 27.0625 -15.09375 L 31.390625 -2.75 C 31.628906 -2.039062 32.054688 -1.40625 32.671875 -0.84375 C 33.296875 -0.28125 34.007812 0 34.8125 0 Z M 18.5625 0 "/></g></g></g><g clip-path="url(#c7044763ac)"><path fill="#ffc6d0" d="M 90.941406 159.273438 L 96.09375 157.730469 C 97.027344 157.449219 97.914062 157.058594 98.753906 156.558594 C 99.59375 156.054688 100.355469 155.460938 101.046875 154.769531 C 101.738281 154.078125 102.332031 153.316406 102.835938 152.476562 C 103.335938 151.636719 103.726562 150.75 104.007812 149.816406 L 105.550781 144.667969 L 107.09375 149.816406 C 107.375 150.753906 107.765625 151.640625 108.265625 152.476562 C 108.769531 153.316406 109.363281 154.082031 110.054688 154.769531 C 110.746094 155.460938 111.507812 156.058594 112.347656 156.558594 C 113.1875 157.058594 114.074219 157.449219 115.007812 157.730469 L 120.15625 159.273438 L 115.007812 160.820312 C 114.074219 161.097656 113.1875 161.488281 112.347656 161.992188 C 111.511719 162.492188 110.746094 163.085938 110.054688 163.777344 C 109.363281 164.46875 108.769531 165.230469 108.269531 166.070312 C 107.765625 166.910156 107.375 167.796875 107.097656 168.730469 L 105.550781 173.882812 L 104.003906 168.734375 C 103.726562 167.796875 103.335938 166.910156 102.832031 166.070312 C 102.332031 165.234375 101.738281 164.46875 101.046875 163.777344 C 100.355469 163.089844 99.589844 162.492188 98.753906 161.992188 C 97.914062 161.492188 97.027344 161.101562 96.09375 160.820312 Z M 90.941406 159.273438 " fill-opacity="1" fill-rule="nonzero"/></g><g clip-path="url(#761e1020fc)"><path fill="#ffc6d0" d="M 112 130.078125 L 114.878906 129.214844 C 115.941406 128.898438 116.863281 128.347656 117.648438 127.5625 C 118.433594 126.777344 118.984375 125.855469 119.300781 124.792969 L 120.164062 121.917969 L 121.027344 124.792969 C 121.34375 125.855469 121.898438 126.78125 122.679688 127.5625 C 123.464844 128.347656 124.386719 128.898438 125.449219 129.214844 L 128.324219 130.078125 L 125.449219 130.941406 C 124.386719 131.261719 123.464844 131.8125 122.679688 132.59375 C 121.898438 133.378906 121.347656 134.300781 121.027344 135.363281 L 120.164062 138.242188 L 119.300781 135.363281 C 118.980469 134.300781 118.429688 133.378906 117.648438 132.597656 C 116.863281 131.8125 115.941406 131.261719 114.878906 130.941406 Z M 112 130.078125 " fill-opacity="1" fill-rule="nonzero"/></g><g clip-path="url(#c98204abd5)"><path fill="#ffc6d0" d="M 269.617188 167.441406 L 272.492188 166.578125 C 273.554688 166.257812 274.476562 165.707031 275.261719 164.921875 C 276.046875 164.140625 276.597656 163.21875 276.914062 162.15625 L 277.777344 159.277344 L 278.640625 162.15625 C 278.960938 163.21875 279.511719 164.140625 280.292969 164.925781 C 281.078125 165.707031 282 166.257812 283.0625 166.578125 L 285.941406 167.441406 L 283.0625 168.304688 C 282 168.621094 281.078125 169.171875 280.296875 169.957031 C 279.511719 170.742188 278.960938 171.664062 278.640625 172.726562 L 277.777344 175.601562 L 276.914062 172.726562 C 276.597656 171.664062 276.046875 170.742188 275.261719 169.957031 C 274.476562 169.171875 273.554688 168.621094 272.492188 168.304688 Z M 269.617188 167.441406 " fill-opacity="1" fill-rule="nonzero"/></g><g fill="#9b5e69" fill-opacity="1"><g transform="translate(108.860151, 281.343061)"><g><path d="M 8.03125 -2.9375 C 8.03125 -2.507812 7.929688 -2.097656 7.734375 -1.703125 C 7.546875 -1.304688 7.285156 -0.988281 6.953125 -0.75 C 6.316406 -0.25 5.457031 0 4.375 0 L 1.15625 0 L 1.15625 -10.53125 L 4.015625 -10.53125 C 5.546875 -10.53125 6.546875 -10.054688 7.015625 -9.109375 C 7.179688 -8.765625 7.265625 -8.414062 7.265625 -8.0625 C 7.265625 -7.71875 7.238281 -7.445312 7.1875 -7.25 C 7.125 -7.039062 7.039062 -6.84375 6.9375 -6.65625 C 6.695312 -6.25 6.390625 -5.96875 6.015625 -5.8125 C 6.640625 -5.644531 7.132812 -5.3125 7.5 -4.8125 C 7.851562 -4.3125 8.03125 -3.6875 8.03125 -2.9375 Z M 6.171875 -7.890625 C 6.171875 -8.953125 5.453125 -9.484375 4.015625 -9.484375 L 2.25 -9.484375 L 2.25 -6.203125 L 4.3125 -6.203125 C 4.875 -6.203125 5.328125 -6.34375 5.671875 -6.625 C 6.003906 -6.90625 6.171875 -7.328125 6.171875 -7.890625 Z M 6.953125 -3.140625 C 6.953125 -3.453125 6.894531 -3.726562 6.78125 -3.96875 C 6.65625 -4.195312 6.5 -4.398438 6.3125 -4.578125 C 5.90625 -4.941406 5.421875 -5.125 4.859375 -5.125 L 2.25 -5.125 L 2.25 -1.03125 L 4.6875 -1.03125 C 5.351562 -1.03125 5.894531 -1.222656 6.3125 -1.609375 C 6.738281 -2.003906 6.953125 -2.515625 6.953125 -3.140625 Z M 6.953125 -3.140625 "/></g></g></g><g fill="#9b5e69" fill-opacity="1"><g transform="translate(121.845711, 281.343061)"><g><path d="M 7.421875 0 L 1.15625 0 L 1.15625 -10.53125 L 7.421875 -10.53125 L 7.421875 -9.515625 L 2.25 -9.515625 L 2.25 -5.78125 L 7.265625 -5.78125 L 7.265625 -4.75 L 2.25 -4.75 L 2.25 -1 L 7.421875 -1 Z M 7.421875 0 "/></g></g></g><g fill="#9b5e69" fill-opacity="1"><g transform="translate(135.06338, 281.343061)"><g><path d="M 2.859375 -3.875 L 6.6875 -3.875 L 4.78125 -8.71875 Z M 9.40625 0 L 8.21875 0 L 7.09375 -2.859375 L 2.46875 -2.859375 L 1.328125 0 L 0.15625 0 L 4.78125 -11.25 Z M 9.40625 0 "/></g></g></g><g fill="#9b5e69" fill-opacity="1"><g transform="translate(149.255865, 281.343061)"><g><path d="M 8.78125 -3.484375 C 8.78125 -2.347656 8.410156 -1.453125 7.671875 -0.796875 C 6.960938 -0.171875 6.023438 0.140625 4.859375 0.140625 C 3.679688 0.140625 2.742188 -0.171875 2.046875 -0.796875 C 1.296875 -1.453125 0.921875 -2.347656 0.921875 -3.484375 L 0.921875 -10.53125 L 2.015625 -10.53125 L 2.015625 -3.328125 C 2.015625 -2.535156 2.300781 -1.925781 2.875 -1.5 C 3.375 -1.125 4.035156 -0.9375 4.859375 -0.9375 C 6.148438 -0.9375 7.019531 -1.375 7.46875 -2.25 C 7.625 -2.539062 7.703125 -2.898438 7.703125 -3.328125 L 7.703125 -10.53125 L 8.78125 -10.53125 Z M 8.78125 -3.484375 "/></g></g></g><g fill="#9b5e69" fill-opacity="1"><g transform="translate(163.603075, 281.343061)"><g><path d="M 0.3125 -9.546875 L 0.3125 -10.5625 L 6.5 -10.5625 L 6.5 -9.546875 L 3.953125 -9.546875 L 3.953125 -0.03125 L 2.859375 -0.03125 L 2.859375 -9.546875 Z M 0.3125 -9.546875 "/></g></g></g><g fill="#9b5e69" fill-opacity="1"><g transform="translate(175.056778, 281.343061)"><g><path d="M 5.234375 -4.953125 L 5.234375 0 L 4.15625 0 L 4.15625 -4.953125 L 0.15625 -10.53125 L 1.546875 -10.53125 L 4.6875 -6.015625 L 7.828125 -10.53125 L 9.21875 -10.53125 Z M 5.234375 -4.953125 "/></g></g></g><g fill="#9b5e69" fill-opacity="1"><g transform="translate(189.063578, 281.343061)"><g/></g></g><g fill="#9b5e69" fill-opacity="1"><g transform="translate(197.886835, 281.343061)"><g><path d="M 10.828125 -3.21875 C 10.429688 -2.207031 9.789062 -1.398438 8.90625 -0.796875 C 8.007812 -0.160156 7.023438 0.15625 5.953125 0.15625 C 4.492188 0.15625 3.25 -0.378906 2.21875 -1.453125 C 1.207031 -2.503906 0.703125 -3.769531 0.703125 -5.25 C 0.703125 -5.976562 0.832031 -6.675781 1.09375 -7.34375 C 1.363281 -7.988281 1.738281 -8.5625 2.21875 -9.0625 C 3.25 -10.132812 4.492188 -10.671875 5.953125 -10.671875 C 7.023438 -10.671875 8.003906 -10.363281 8.890625 -9.75 C 9.773438 -9.132812 10.414062 -8.328125 10.8125 -7.328125 L 9.609375 -7.328125 C 9.046875 -8.367188 8.203125 -9.0625 7.078125 -9.40625 C 6.703125 -9.5 6.273438 -9.546875 5.796875 -9.546875 C 5.304688 -9.546875 4.804688 -9.4375 4.296875 -9.21875 C 3.796875 -8.976562 3.359375 -8.660156 2.984375 -8.265625 C 2.179688 -7.429688 1.78125 -6.425781 1.78125 -5.25 C 1.78125 -4.082031 2.179688 -3.082031 2.984375 -2.25 C 3.804688 -1.382812 4.796875 -0.953125 5.953125 -0.953125 C 6.734375 -0.953125 7.453125 -1.160156 8.109375 -1.578125 C 8.765625 -1.992188 9.269531 -2.539062 9.625 -3.21875 Z M 10.828125 -3.21875 "/></g></g></g><g fill="#9b5e69" fill-opacity="1"><g transform="translate(213.812328, 281.343061)"><g><path d="M 2.25 -1.078125 L 6.015625 -1.078125 L 6.015625 0 L 1.15625 0 L 1.15625 -10.53125 L 2.25 -10.53125 Z M 2.25 -1.078125 "/></g></g></g><g fill="#9b5e69" fill-opacity="1"><g transform="translate(224.770894, 281.343061)"><g><path d="M 2.25 0 L 1.15625 0 L 1.15625 -10.53125 L 2.25 -10.53125 Z M 2.25 0 "/></g></g></g><g fill="#9b5e69" fill-opacity="1"><g transform="translate(232.820477, 281.343061)"><g><path d="M 2.25 -7.75 L 2.25 0 L 1.15625 0 L 1.15625 -11.1875 L 7.078125 -2.78125 L 7.078125 -10.53125 L 8.15625 -10.53125 L 8.15625 0.65625 Z M 2.25 -7.75 "/></g></g></g><g fill="#9b5e69" fill-opacity="1"><g transform="translate(246.780873, 281.343061)"><g><path d="M 2.25 0 L 1.15625 0 L 1.15625 -10.53125 L 2.25 -10.53125 Z M 2.25 0 "/></g></g></g><g fill="#9b5e69" fill-opacity="1"><g transform="translate(254.830456, 281.343061)"><g><path d="M 10.828125 -3.21875 C 10.429688 -2.207031 9.789062 -1.398438 8.90625 -0.796875 C 8.007812 -0.160156 7.023438 0.15625 5.953125 0.15625 C 4.492188 0.15625 3.25 -0.378906 2.21875 -1.453125 C 1.207031 -2.503906 0.703125 -3.769531 0.703125 -5.25 C 0.703125 -5.976562 0.832031 -6.675781 1.09375 -7.34375 C 1.363281 -7.988281 1.738281 -8.5625 2.21875 -9.0625 C 3.25 -10.132812 4.492188 -10.671875 5.953125 -10.671875 C 7.023438 -10.671875 8.003906 -10.363281 8.890625 -9.75 C 9.773438 -9.132812 10.414062 -8.328125 10.8125 -7.328125 L 9.609375 -7.328125 C 9.046875 -8.367188 8.203125 -9.0625 7.078125 -9.40625 C 6.703125 -9.5 6.273438 -9.546875 5.796875 -9.546875 C 5.304688 -9.546875 4.804688 -9.4375 4.296875 -9.21875 C 3.796875 -8.976562 3.359375 -8.660156 2.984375 -8.265625 C 2.179688 -7.429688 1.78125 -6.425781 1.78125 -5.25 C 1.78125 -4.082031 2.179688 -3.082031 2.984375 -2.25 C 3.804688 -1.382812 4.796875 -0.953125 5.953125 -0.953125 C 6.734375 -0.953125 7.453125 -1.160156 8.109375 -1.578125 C 8.765625 -1.992188 9.269531 -2.539062 9.625 -3.21875 Z M 10.828125 -3.21875 "/></g></g></g></svg>