<svg xmlns="http://www.w3.org/2000/svg" xmlns:xlink="http://www.w3.org/1999/xlink" width="500" zoomAndPan="magnify" viewBox="0 0 375 374.999991" height="500" preserveAspectRatio="xMidYMid meet" version="1.0"><defs><clipPath id="2ee5d61db9"><path d="M 17.007812 17.007812 L 357.988281 17.007812 L 357.988281 357.988281 L 17.007812 357.988281 Z M 17.007812 17.007812 " clip-rule="nonzero"/></clipPath><clipPath id="0622a44c1f"><path d="M 187.496094 17.007812 C 93.335938 17.007812 17.007812 93.335938 17.007812 187.496094 C 17.007812 281.65625 93.335938 357.988281 187.496094 357.988281 C 281.65625 357.988281 357.988281 281.65625 357.988281 187.496094 C 357.988281 93.335938 281.65625 17.007812 187.496094 17.007812 Z M 187.496094 17.007812 " clip-rule="nonzero"/></clipPath><clipPath id="ef555fb21c"><path d="M 79.667969 41 L 276.917969 41 L 276.917969 324.898438 L 79.667969 324.898438 Z M 79.667969 41 " clip-rule="nonzero"/></clipPath></defs><rect x="-37.5" width="450" fill="#ffffff" y="-37.499999" height="449.999989" fill-opacity="1"/><rect x="-37.5" width="450" fill="#000000" y="-37.499999" height="449.999989" fill-opacity="1"/><g clip-path="url(#2ee5d61db9)"><g clip-path="url(#0622a44c1f)"><path stroke-linecap="butt" transform="matrix(0.75, 0, 0, 0.75, 17.006202, 17.006198)" fill="none" stroke-linejoin="miter" d="M 227.319871 0.0021533 C 101.772987 0.0021533 0.0021473 101.772993 0.0021473 227.319877 C 0.0021473 352.86676 101.772987 454.642808 227.319871 454.642808 C 352.866754 454.642808 454.642802 352.86676 454.642802 227.319877 C 454.642802 101.772993 352.866754 0.0021533 227.319871 0.0021533 Z M 227.319871 0.0021533 " stroke="#ffffff" stroke-width="4" stroke-opacity="1" stroke-miterlimit="4"/></g></g><g clip-path="url(#ef555fb21c)"><path fill="#ffffff" d="M 110.953125 120.058594 C 110.832031 119.484375 110.703125 118.898438 110.550781 118.324219 C 108.261719 109.175781 99.996094 104.148438 90.871094 105.933594 C 89.863281 106.121094 82.183594 108.425781 80.691406 108.929688 C 80.351562 109.046875 80.175781 109.175781 80.140625 109.199219 C 79.894531 109.421875 79.859375 109.65625 79.847656 109.808594 C 79.835938 110.019531 79.90625 110.21875 80.035156 110.398438 C 83.78125 115.246094 90.800781 117.066406 96.296875 118.851562 C 100.59375 120.246094 105.011719 121.1875 109.472656 121.679688 C 110.964844 129.945312 110.269531 138.660156 110.269531 146.996094 C 110.269531 149.320312 109.964844 151.9375 110.210938 154.359375 C 110.492188 157 111.421875 159.40625 113.910156 161.015625 C 115.496094 162.046875 117.785156 162.636719 120.332031 162.765625 C 123.046875 162.894531 126.050781 162.519531 128.761719 161.648438 C 129.164062 165.148438 129.878906 168.859375 131.171875 172.179688 C 130.207031 172.214844 129.1875 172.296875 128.375 172.464844 C 127.730469 172.59375 127.203125 172.792969 126.824219 173.039062 C 126.449219 173.285156 126.191406 173.601562 126.074219 173.953125 C 125.6875 175.09375 125.921875 176.421875 126.484375 177.746094 C 127.203125 179.4375 128.421875 181.140625 129.023438 182.375 C 129.503906 183.371094 129.75 184.417969 130.042969 185.4375 C 130.382812 186.613281 130.792969 187.75 131.558594 188.808594 C 133.53125 191.554688 136.136719 192.707031 138.96875 192.953125 C 139.109375 193.316406 139.226562 193.65625 139.285156 193.972656 C 140.164062 198.917969 141.140625 202.355469 143.136719 205.105469 C 145.144531 207.875 148.183594 209.964844 153.257812 212.136719 C 161.722656 215.789062 169.542969 212.996094 177.761719 209.917969 C 189.9375 205.363281 200.433594 195.125 208.253906 183.335938 C 212.011719 189.980469 214.113281 196.792969 211.023438 203.976562 C 206.117188 215.449219 196.605469 220.617188 186.039062 224.492188 C 175.191406 228.472656 163.238281 231.089844 153.738281 237.394531 C 149.910156 239.929688 146.726562 243.171875 143.710938 246.589844 C 140.902344 249.769531 138.144531 253.035156 136.453125 256.980469 C 131.277344 269.085938 133.039062 280.6875 137.277344 291.898438 C 141.445312 302.914062 148.007812 313.5625 152.539062 323.953125 C 152.726562 324.398438 153.246094 324.601562 153.691406 324.398438 C 154.136719 324.210938 154.335938 323.695312 154.148438 323.25 C 149.628906 312.882812 143.078125 302.265625 138.917969 291.277344 C 134.84375 280.488281 133.097656 269.320312 138.074219 257.671875 C 139.695312 253.902344 142.347656 250.804688 145.039062 247.761719 C 147.949219 244.453125 151.015625 241.304688 154.710938 238.863281 C 164.09375 232.640625 175.929688 230.078125 186.648438 226.144531 C 197.664062 222.105469 207.515625 216.636719 212.644531 204.671875 C 216.074219 196.664062 213.609375 189.066406 209.324219 181.691406 C 214.148438 174.09375 217.859375 165.945312 220.21875 158.3125 C 221.746094 153.40625 223.578125 145.246094 223.4375 137.953125 C 223.332031 132.929688 222.273438 128.316406 219.632812 125.34375 C 216.507812 121.808594 213.398438 120.332031 210.460938 120.234375 C 207.503906 120.140625 204.695312 121.46875 202.183594 123.722656 C 195.007812 130.167969 190.230469 144.269531 190.957031 151.703125 C 191.816406 160.429688 198.894531 169.011719 204.789062 177.792969 C 205.648438 179.074219 206.480469 180.367188 207.269531 181.65625 C 199.613281 193.445312 189.246094 203.742188 177.140625 208.273438 C 169.367188 211.1875 161.96875 213.96875 153.949219 210.53125 C 149.265625 208.511719 146.421875 206.632812 144.566406 204.070312 C 142.699219 201.5 141.832031 198.28125 141.011719 193.667969 C 140.976562 193.457031 140.914062 193.222656 140.832031 192.988281 L 140.890625 192.988281 C 144.25 192.847656 147.796875 191.683594 150.824219 190.722656 C 151.121094 190.628906 159.632812 187.585938 161.125 186.625 C 161.898438 186.117188 161.746094 185.425781 161.605469 185.191406 C 161.5 185.027344 161.347656 184.863281 161.125 184.722656 C 160.839844 184.546875 160.417969 184.394531 159.902344 184.273438 C 158.5625 184.003906 156.519531 183.980469 155.933594 183.933594 C 153.492188 183.734375 148.984375 183.476562 145.085938 183.980469 C 142.300781 184.347656 139.835938 185.121094 138.496094 186.484375 C 137.582031 187.410156 137.476562 188.609375 137.792969 189.886719 C 137.886719 190.273438 138.027344 190.675781 138.179688 191.0625 C 136.195312 190.710938 134.398438 189.746094 132.980469 187.785156 C 132.34375 186.894531 132.027344 185.929688 131.734375 184.945312 C 131.417969 183.828125 131.136719 182.691406 130.605469 181.597656 C 130.019531 180.390625 128.808594 178.722656 128.105469 177.066406 C 127.742188 176.183594 127.496094 175.316406 127.730469 174.554688 C 127.777344 174.53125 127.953125 174.414062 128.09375 174.367188 C 128.492188 174.210938 129 174.117188 129.5625 174.058594 C 130.3125 173.964844 131.136719 173.917969 131.910156 173.894531 C 132.167969 174.449219 132.4375 174.988281 132.742188 175.503906 C 134.867188 179.226562 137.992188 182.03125 142.523438 182.890625 C 147.480469 183.828125 152.1875 182.21875 157.097656 181.902344 C 157.660156 181.867188 163.402344 181.246094 164.527344 181.082031 C 164.855469 181.035156 165.046875 180.929688 165.070312 180.90625 C 165.316406 180.742188 165.398438 180.554688 165.433594 180.402344 C 165.480469 180.222656 165.480469 180.035156 165.410156 179.871094 C 165.304688 179.589844 165.09375 179.296875 164.75 179.015625 C 164.410156 178.734375 163.917969 178.453125 163.320312 178.179688 C 161.300781 177.265625 158.082031 176.46875 157.144531 176.207031 C 150.179688 174.257812 141.609375 170.878906 134.328125 172.0625 C 134.082031 172.097656 133.625 172.109375 133.050781 172.121094 L 132.980469 171.980469 C 131.582031 168.554688 130.851562 164.667969 130.464844 161.027344 C 130.863281 160.863281 131.253906 160.6875 131.628906 160.5 C 135.550781 158.539062 138.167969 155.355469 137.488281 151.164062 C 137.242188 149.636719 136.054688 148.699219 134.644531 148.40625 C 133.308594 148.132812 131.804688 148.476562 130.851562 149.390625 C 128.988281 151.1875 128.28125 154.617188 128.410156 157.140625 C 128.445312 158.007812 128.503906 158.925781 128.585938 159.851562 C 125.980469 160.746094 123.046875 161.132812 120.425781 161.003906 C 118.21875 160.898438 116.234375 160.429688 114.871094 159.535156 C 112.875 158.242188 112.183594 156.292969 111.960938 154.167969 C 111.714844 151.820312 112.03125 149.261719 112.03125 146.996094 C 112.03125 138.71875 112.675781 130.085938 111.292969 121.855469 C 123.457031 122.878906 135.867188 120.613281 146.949219 115.386719 C 177.011719 101.191406 199.449219 75.253906 227.664062 57.898438 C 241.167969 49.585938 259.402344 41.695312 275.699219 43.046875 C 276.179688 43.09375 276.601562 42.730469 276.636719 42.25 C 276.683594 41.765625 276.320312 41.332031 275.839844 41.296875 C 259.191406 39.910156 240.542969 47.90625 226.746094 56.398438 C 198.578125 73.714844 176.199219 99.628906 146.199219 113.789062 C 135.246094 118.96875 122.964844 121.152344 110.953125 120.058594 Z M 158.667969 185.871094 C 157.519531 185.742188 156.238281 185.730469 155.792969 185.695312 C 153.433594 185.496094 149.078125 185.238281 145.308594 185.730469 C 142.980469 186.023438 140.867188 186.578125 139.742188 187.714844 C 139.121094 188.351562 139.378906 189.230469 139.695312 190.121094 C 139.824219 190.5 139.976562 190.875 140.140625 191.238281 C 140.363281 191.238281 140.585938 191.238281 140.820312 191.226562 C 144.015625 191.085938 147.398438 189.957031 150.285156 189.042969 C 150.519531 188.972656 155.851562 187.09375 158.667969 185.871094 Z M 162.144531 179.601562 C 160.21875 178.804688 157.507812 178.132812 156.671875 177.898438 C 149.933594 176.019531 141.65625 172.664062 134.609375 173.800781 C 134.445312 173.824219 134.175781 173.835938 133.847656 173.847656 C 135.726562 177.5 138.554688 180.339844 142.851562 181.164062 C 147.65625 182.066406 152.222656 180.460938 156.988281 180.140625 C 157.355469 180.117188 160.089844 179.824219 162.144531 179.601562 Z M 208.3125 180.011719 C 212.820312 172.769531 216.296875 165.042969 218.539062 157.796875 C 220.019531 153.019531 221.816406 145.082031 221.675781 137.988281 C 221.582031 133.421875 220.710938 129.207031 218.316406 126.507812 C 215.605469 123.453125 212.949219 122.078125 210.402344 121.996094 C 207.890625 121.914062 205.507812 123.113281 203.371094 125.039062 C 196.558594 131.144531 192.027344 144.496094 192.71875 151.527344 C 193.542969 160.003906 200.527344 168.28125 206.246094 176.820312 C 206.960938 177.875 207.65625 178.945312 208.3125 180.011719 Z M 130.300781 159.183594 C 130.476562 159.101562 130.652344 159.019531 130.839844 158.925781 C 134.023438 157.328125 136.300781 154.851562 135.75 151.445312 C 135.621094 150.695312 134.988281 150.269531 134.292969 150.128906 C 133.507812 149.976562 132.625 150.128906 132.074219 150.660156 C 130.535156 152.136719 130.066406 154.980469 130.160156 157.058594 C 130.195312 157.738281 130.242188 158.457031 130.300781 159.183594 Z M 109.109375 119.871094 C 109.027344 119.496094 108.941406 119.121094 108.847656 118.757812 C 106.792969 110.5625 99.386719 106.0625 91.214844 107.660156 C 90.367188 107.824219 84.777344 109.480469 82.253906 110.28125 C 85.941406 114.128906 92.035156 115.609375 96.835938 117.171875 C 100.839844 118.476562 104.960938 119.367188 109.109375 119.871094 Z M 109.109375 119.871094 " fill-opacity="1" fill-rule="evenodd"/></g></svg>