<svg xmlns="http://www.w3.org/2000/svg" xmlns:xlink="http://www.w3.org/1999/xlink" width="500" zoomAndPan="magnify" viewBox="0 0 375 374.999991" height="500" preserveAspectRatio="xMidYMid meet" version="1.0"><defs><clipPath id="4518635a63"><path d="M 108.050781 194.148438 L 266.945312 194.148438 L 266.945312 273.589844 L 108.050781 273.589844 Z M 108.050781 194.148438 " clip-rule="nonzero"/></clipPath><clipPath id="b241f59fe1"><path d="M 171 199 L 206 199 L 206 233.585938 L 171 233.585938 Z M 171 199 " clip-rule="nonzero"/></clipPath><clipPath id="9f6ea57585"><path d="M 108.050781 101.40625 L 266.945312 101.40625 L 266.945312 180.847656 L 108.050781 180.847656 Z M 108.050781 101.40625 " clip-rule="nonzero"/></clipPath></defs><rect x="-37.5" width="450" fill="#ffffff" y="-37.499999" height="449.999989" fill-opacity="1"/><rect x="-37.5" width="450" fill="#000000" y="-37.499999" height="449.999989" fill-opacity="1"/><g clip-path="url(#4518635a63)"><path fill="#ffffff" d="M 108.058594 194.148438 L 116.601562 194.148438 C 116.601562 233.242188 148.40625 265.046875 187.5 265.046875 C 226.59375 265.046875 258.402344 233.242188 258.402344 194.148438 L 266.941406 194.148438 C 266.941406 237.953125 231.304688 273.589844 187.5 273.589844 C 143.695312 273.589844 108.058594 237.953125 108.058594 194.148438 Z M 108.058594 194.148438 " fill-opacity="1" fill-rule="nonzero"/></g><path fill="#ffffff" d="M 215.292969 128.222656 C 215.292969 128.398438 216.140625 129.070312 217.167969 129.671875 C 218.15625 130.308594 220.246094 131.761719 221.765625 132.925781 C 224.949219 135.367188 225.40625 134.941406 222.472656 132.183594 L 220.421875 130.308594 L 222.863281 131.617188 C 224.207031 132.359375 225.621094 133.210938 225.972656 133.527344 C 228.308594 135.402344 230.183594 137.59375 231.421875 139.753906 C 232.730469 142.121094 232.800781 142.371094 232.800781 145.410156 L 232.800781 148.59375 L 227.882812 159.914062 C 225.195312 166.136719 222.789062 171.691406 222.507812 172.289062 C 222.261719 172.855469 220.988281 175.722656 219.75 178.65625 L 217.449219 183.960938 L 214.515625 183.820312 C 212.886719 183.75 211.472656 183.539062 211.332031 183.324219 C 211.226562 183.113281 211.402344 182.546875 211.792969 182.085938 C 212.144531 181.59375 212.464844 180.957031 212.464844 180.636719 C 212.464844 180.320312 212.710938 179.753906 212.992188 179.398438 C 213.277344 179.011719 213.523438 178.410156 213.523438 178.019531 C 213.523438 177.667969 213.84375 176.960938 214.230469 176.464844 C 214.621094 175.96875 214.9375 175.296875 214.9375 174.980469 C 214.9375 174.625 215.1875 174.058594 215.46875 173.671875 C 215.753906 173.316406 216 172.679688 216 172.328125 C 216 171.9375 216.246094 171.335938 216.566406 171.019531 C 216.882812 170.664062 217.203125 169.957031 217.238281 169.460938 C 217.308594 169 217.628906 168.328125 217.945312 168.011719 C 218.265625 167.65625 218.476562 167.054688 218.40625 166.632812 C 218.300781 166.136719 218.476562 165.710938 218.898438 165.429688 C 219.253906 165.21875 219.535156 164.652344 219.535156 164.191406 C 219.535156 163.730469 219.785156 163.167969 220.066406 162.917969 C 220.351562 162.671875 220.597656 162.175781 220.597656 161.785156 C 220.597656 161.398438 220.917969 160.691406 221.304688 160.195312 C 221.695312 159.699219 222.011719 158.957031 222.011719 158.53125 C 222.011719 158.144531 222.261719 157.472656 222.542969 157.117188 C 222.824219 156.730469 223.074219 156.164062 223.074219 155.808594 C 223.074219 155.492188 223.285156 155.03125 223.570312 154.820312 C 223.851562 154.570312 224.171875 153.96875 224.277344 153.441406 C 224.488281 152.519531 225.125 151.070312 226.152344 149.054688 C 226.398438 148.558594 226.609375 147.816406 226.609375 147.425781 C 226.609375 147.039062 226.859375 146.542969 227.175781 146.261719 C 227.53125 145.976562 227.671875 145.445312 227.601562 144.808594 C 227.496094 144.246094 227.636719 143.644531 227.917969 143.429688 C 228.484375 142.9375 228.519531 141.910156 227.953125 140.882812 C 227.742188 140.460938 227.566406 139.613281 227.601562 139.046875 C 227.636719 138.445312 227.460938 137.738281 227.210938 137.417969 C 226.46875 136.464844 223.320312 134.695312 218.828125 132.679688 C 214.867188 130.910156 214.550781 130.839844 214.230469 131.441406 C 213.773438 132.289062 213.773438 132.503906 214.230469 132.503906 C 214.445312 132.503906 217.203125 133.632812 220.386719 135.015625 C 224.984375 136.996094 226.257812 137.703125 226.574219 138.410156 C 226.824219 138.902344 226.929688 139.363281 226.894531 139.398438 C 226.824219 139.46875 223.78125 138.195312 220.066406 136.570312 C 213.808594 133.847656 213.3125 133.707031 213.03125 134.304688 C 212.851562 134.695312 212.78125 135.050781 212.851562 135.085938 C 212.921875 135.15625 216.105469 136.535156 219.890625 138.160156 C 223.675781 139.789062 226.929688 141.238281 227.070312 141.378906 C 227.246094 141.484375 227.316406 141.945312 227.246094 142.335938 C 227.140625 143.007812 226.609375 142.828125 220.246094 140.070312 C 216.460938 138.445312 213.066406 136.957031 212.746094 136.746094 C 212.25 136.464844 212.039062 136.570312 211.722656 137.136719 C 211.507812 137.523438 211.402344 137.914062 211.472656 137.949219 C 211.542969 137.984375 214.832031 139.433594 218.828125 141.132812 C 227.210938 144.667969 227.070312 144.597656 226.789062 145.304688 C 226.609375 145.765625 225.9375 145.589844 222.789062 144.175781 C 212.5 139.648438 211.011719 139.082031 210.660156 139.613281 C 210.484375 139.894531 210.339844 140.175781 210.339844 140.285156 C 210.339844 140.390625 213.84375 141.980469 218.121094 143.820312 C 222.402344 145.660156 225.902344 147.25 225.902344 147.355469 C 225.902344 147.464844 225.761719 147.746094 225.585938 148.027344 C 225.335938 148.417969 223.746094 147.851562 217.449219 145.128906 C 210.234375 142.015625 209.632812 141.804688 209.421875 142.476562 C 209.316406 142.867188 209.28125 143.21875 209.351562 143.253906 C 209.386719 143.324219 212.886719 144.847656 217.0625 146.648438 C 221.234375 148.417969 224.699219 149.9375 224.769531 150.007812 C 224.949219 150.1875 224.382812 151.246094 224.097656 151.246094 C 223.78125 151.246094 211.507812 146.046875 209.527344 145.058594 C 208.644531 144.632812 208.539062 144.632812 208.183594 145.304688 C 207.972656 145.695312 207.867188 146.046875 207.9375 146.082031 C 208.007812 146.15625 211.472656 147.640625 215.648438 149.410156 C 219.820312 151.175781 223.285156 152.769531 223.320312 152.910156 C 223.390625 153.050781 223.285156 153.40625 223.109375 153.6875 C 222.824219 154.113281 221.339844 153.582031 214.972656 150.824219 C 210.660156 148.984375 207.160156 147.570312 207.160156 147.746094 C 207.160156 147.886719 207.085938 148.242188 206.980469 148.488281 C 206.839844 148.84375 208.925781 149.902344 214.585938 152.308594 C 218.863281 154.148438 222.367188 155.738281 222.367188 155.84375 C 222.367188 155.953125 222.226562 156.234375 222.046875 156.515625 C 221.765625 156.941406 220.28125 156.410156 213.914062 153.652344 C 206.523438 150.433594 206.0625 150.292969 205.707031 150.929688 C 205.390625 151.53125 205.53125 151.707031 206.875 152.273438 C 207.722656 152.625 211.261719 154.148438 214.761719 155.667969 C 218.265625 157.152344 221.164062 158.425781 221.199219 158.460938 C 221.269531 158.53125 221.09375 158.816406 220.84375 159.167969 C 220.421875 159.769531 219.960938 159.628906 214.019531 157.082031 C 210.554688 155.5625 207.050781 154.042969 206.308594 153.6875 C 205.53125 153.335938 204.894531 153.050781 204.859375 153.121094 C 204.789062 153.15625 204.683594 153.511719 204.578125 153.898438 C 204.363281 154.535156 205.214844 154.960938 212.109375 157.933594 C 216.390625 159.769531 219.890625 161.363281 219.890625 161.539062 C 219.890625 161.679688 219.75 161.929688 219.535156 162.035156 C 219.289062 162.175781 213.417969 159.769531 204.117188 155.632812 C 203.796875 155.492188 203.089844 156.90625 203.375 157.082031 C 203.410156 157.117188 206.875 158.605469 211.046875 160.371094 C 215.222656 162.140625 218.6875 163.730469 218.722656 163.875 C 218.792969 164.015625 218.6875 164.367188 218.511719 164.617188 C 218.226562 165.074219 217.554688 164.792969 203.054688 158.460938 C 202.5625 158.25 202.066406 159.382812 202.453125 159.769531 C 202.597656 159.914062 206.097656 161.503906 210.164062 163.238281 C 217.167969 166.277344 217.945312 166.773438 217.097656 167.621094 C 216.957031 167.765625 213.382812 166.347656 209.105469 164.511719 C 204.859375 162.671875 201.359375 161.183594 201.289062 161.222656 C 201.253906 161.292969 201.144531 161.609375 201.074219 162 C 201.003906 162.53125 202.207031 163.203125 208.574219 165.925781 C 212.746094 167.726562 216.210938 169.355469 216.246094 169.496094 C 216.28125 169.671875 216.210938 170.027344 216.035156 170.273438 C 215.824219 170.628906 213.984375 169.992188 208.007812 167.410156 C 200.792969 164.296875 200.226562 164.085938 199.945312 164.722656 C 199.765625 165.109375 199.695312 165.464844 199.765625 165.5 C 199.835938 165.570312 203.269531 167.054688 207.335938 168.753906 C 211.4375 170.488281 214.867188 172.007812 215.046875 172.113281 C 215.1875 172.21875 215.082031 172.574219 214.867188 172.890625 C 214.445312 173.386719 213.59375 173.105469 206.804688 170.167969 C 199.90625 167.199219 199.164062 166.949219 198.742188 167.445312 C 198.316406 167.976562 198.597656 168.1875 201.039062 169.320312 C 202.5625 169.992188 206.0625 171.511719 208.820312 172.679688 C 211.578125 173.8125 213.84375 174.90625 213.878906 175.121094 C 213.878906 176.5 213.171875 176.324219 205.566406 173 C 199.871094 170.523438 197.75 169.746094 197.539062 170.097656 C 197.398438 170.308594 197.328125 170.664062 197.363281 170.839844 C 197.433594 171.019531 200.898438 172.644531 205.070312 174.449219 C 209.246094 176.253906 212.605469 177.84375 212.570312 177.949219 C 212.214844 179.152344 213.171875 179.433594 203.019531 175.015625 C 197.042969 172.398438 196.546875 172.253906 196.335938 172.890625 C 196.230469 173.28125 196.195312 173.636719 196.265625 173.671875 C 196.300781 173.742188 199.800781 175.261719 203.976562 177.066406 C 208.148438 178.871094 211.613281 180.355469 211.648438 180.425781 C 211.722656 180.460938 211.542969 180.742188 211.296875 181.0625 C 210.90625 181.628906 210.199219 181.378906 203.195312 178.339844 C 196.019531 175.226562 195.453125 175.050781 195.132812 175.652344 C 194.921875 176.003906 194.886719 176.394531 195.027344 176.464844 C 195.203125 176.535156 198.5625 178.019531 202.5625 179.71875 C 206.558594 181.414062 209.953125 182.972656 210.128906 183.113281 C 210.339844 183.324219 210.339844 183.574219 210.09375 183.820312 C 209.8125 184.105469 207.972656 183.46875 203.410156 181.488281 C 199.90625 179.964844 196.476562 178.445312 195.734375 178.125 C 194.460938 177.488281 194.425781 177.488281 194.035156 178.195312 C 193.824219 178.585938 193.71875 178.941406 193.789062 178.976562 C 193.859375 179.011719 197.289062 180.496094 201.429688 182.265625 C 208.46875 185.304688 209.03125 185.484375 210.269531 185.128906 C 211.507812 184.777344 215.753906 184.917969 217.238281 185.339844 C 217.875 185.554688 218.722656 183.785156 225.726562 167.480469 C 230.003906 157.542969 233.683594 148.664062 233.894531 147.746094 C 235.453125 140.921875 228.589844 131.832031 219.75 129 C 216.992188 128.117188 215.292969 127.835938 215.292969 128.222656 Z M 215.292969 128.222656 " fill-opacity="1" fill-rule="nonzero"/><path fill="#ffffff" d="M 201.074219 129.496094 C 200.578125 130.699219 192.726562 147.886719 188.449219 157.082031 C 187.742188 158.640625 186.1875 162 185.054688 164.582031 C 183.886719 167.164062 182.824219 169.214844 182.683594 169.179688 C 182.472656 169.109375 167.546875 150.789062 158.5625 139.539062 C 156.582031 137.066406 154.957031 135.085938 154.921875 135.121094 C 154.851562 135.15625 155.132812 136.324219 155.523438 137.703125 C 157.679688 145.484375 165.636719 158.921875 176.847656 173.8125 L 179.324219 177.066406 L 175.503906 185.484375 C 173.382812 190.082031 171.613281 193.9375 171.542969 194.007812 C 171.507812 194.078125 170.941406 193.652344 170.339844 193.050781 C 168.5 191.246094 166.308594 190.398438 163.019531 190.222656 C 159.660156 190.046875 157.820312 190.433594 154.425781 192.132812 C 142.789062 197.898438 139.535156 214.128906 148.871094 219.753906 C 156.511719 224.386719 168.429688 219.046875 172.675781 209.144531 C 173.101562 208.117188 175.042969 204.015625 177.027344 200.019531 C 179.007812 195.988281 181.410156 190.894531 182.402344 188.703125 C 183.390625 186.472656 184.347656 184.527344 184.488281 184.386719 C 184.628906 184.246094 185.550781 185.128906 186.503906 186.332031 C 188.554688 188.949219 199.945312 202.636719 201.179688 203.980469 C 201.640625 204.476562 202.667969 206.136719 203.410156 207.660156 C 207.015625 214.835938 214.902344 219.363281 222.011719 218.375 C 225.832031 217.878906 229.050781 215.582031 230.714844 212.257812 C 231.808594 209.957031 232.234375 205.785156 231.597656 202.882812 C 230.605469 198.285156 226.964844 193.050781 222.863281 190.328125 C 215.753906 185.589844 206.910156 186.4375 203.304688 192.132812 L 202.277344 193.6875 L 198.953125 189.550781 C 197.113281 187.25 193.894531 183.289062 191.808594 180.707031 L 188.023438 176.039062 L 189.332031 172.925781 C 197.609375 153.085938 202.101562 137.84375 201.78125 130.558594 L 201.675781 128.082031 Z M 200.085938 137.417969 C 199.695312 139.964844 198.636719 144.351562 197.960938 146.296875 C 197.785156 146.792969 197.253906 148.59375 196.726562 150.363281 C 195.59375 154.113281 192.019531 163.800781 189.296875 170.382812 C 188.238281 172.960938 187.351562 175.472656 187.351562 175.933594 C 187.351562 176.429688 187.953125 177.5625 188.660156 178.445312 C 189.402344 179.328125 190.183594 180.320312 190.429688 180.601562 C 190.640625 180.886719 192.09375 182.652344 193.613281 184.527344 C 195.132812 186.402344 197.148438 188.949219 198.105469 190.152344 C 199.058594 191.355469 200.402344 192.910156 201.074219 193.617188 L 202.3125 194.890625 L 203.054688 193.898438 C 205.777344 190.328125 208.324219 188.773438 211.933594 188.488281 C 219.714844 187.851562 227.847656 193.828125 230.324219 202.070312 C 231.03125 204.367188 230.960938 208.648438 230.21875 210.734375 C 229.40625 213.035156 227.425781 215.261719 225.335938 216.289062 C 221.589844 218.164062 215.328125 217.527344 211.226562 214.835938 C 208.394531 213 205.496094 209.78125 204.152344 206.949219 C 203.480469 205.570312 202.597656 204.015625 202.171875 203.554688 C 201.78125 203.097656 201.003906 202.210938 200.507812 201.644531 C 198.246094 199.097656 193.542969 193.511719 190.003906 189.089844 C 186.46875 184.703125 185.019531 183.078125 184.628906 183.078125 C 184.132812 183.078125 183.25 184.5625 181.515625 188.207031 C 180.457031 190.46875 179.570312 192.414062 179.570312 192.484375 C 179.570312 192.554688 177.875 196.09375 175.789062 200.335938 C 173.664062 204.582031 171.507812 209.039062 170.976562 210.238281 C 168.429688 215.722656 161.570312 220.214844 155.558594 220.285156 C 150.890625 220.320312 147.492188 218.480469 145.546875 214.835938 C 144.839844 213.492188 144.734375 212.820312 144.734375 209.074219 C 144.734375 204.898438 144.769531 204.792969 146.078125 202.105469 C 149.332031 195.421875 156.652344 190.789062 163.160156 191.320312 C 165.601562 191.496094 168.644531 192.734375 170.164062 194.148438 C 170.730469 194.679688 171.296875 195.101562 171.4375 195.101562 C 171.933594 195.101562 172.746094 193.828125 173.914062 191.210938 C 174.550781 189.761719 175.71875 187.214844 176.496094 185.554688 C 179.925781 178.125 180.242188 177.382812 180.03125 176.78125 C 179.890625 176.464844 178.652344 174.660156 177.273438 172.820312 C 168.644531 161.328125 159.730469 146.863281 157.855469 141.34375 L 157.289062 139.753906 L 158.03125 140.636719 C 158.421875 141.132812 159.199219 141.980469 159.730469 142.582031 C 160.261719 143.148438 161.535156 144.738281 162.59375 146.117188 C 165.25 149.585938 170.375 155.914062 171.15625 156.660156 C 171.507812 157.011719 171.792969 157.402344 171.792969 157.542969 C 171.792969 157.683594 172.320312 158.355469 172.957031 159.027344 C 173.984375 160.125 175.574219 162.070312 178.191406 165.429688 C 182.4375 170.875 182.507812 170.910156 183.53125 169.710938 C 183.816406 169.390625 185.726562 165.429688 187.777344 160.972656 C 198.386719 137.773438 200.226562 133.847656 200.367188 134.269531 C 200.472656 134.519531 200.332031 135.933594 200.085938 137.417969 Z M 200.085938 137.417969 " fill-opacity="1" fill-rule="nonzero"/><path fill="#ffffff" d="M 182.082031 175.507812 C 181.128906 176.710938 181.164062 177.703125 182.152344 178.90625 C 183.390625 180.390625 184.347656 180.460938 185.585938 179.222656 C 186.894531 177.914062 187 176.464844 185.832031 175.367188 C 184.664062 174.269531 183.003906 174.34375 182.082031 175.507812 Z M 185.550781 176.394531 C 186.46875 177.914062 184.0625 179.648438 182.824219 178.410156 C 182.152344 177.738281 182.332031 176.464844 183.144531 175.898438 C 184.027344 175.261719 184.949219 175.472656 185.550781 176.394531 Z M 185.550781 176.394531 " fill-opacity="1" fill-rule="nonzero"/><path fill="#ffffff" d="M 213.59375 193.546875 C 213.136719 194.042969 209.28125 202.566406 208.785156 204.191406 C 208.46875 205.183594 210.519531 208.402344 212.429688 209.921875 C 217.132812 213.671875 222.507812 213.953125 224.914062 210.59375 C 225.585938 209.640625 225.761719 208.859375 225.832031 206.527344 C 225.972656 203.910156 225.867188 203.449219 224.914062 201.398438 C 224.3125 200.195312 223.039062 198.355469 222.117188 197.367188 C 219.148438 194.324219 214.691406 192.308594 213.59375 193.546875 Z M 217.734375 195.207031 C 221.339844 196.871094 224.734375 201.75 225.089844 205.714844 C 225.300781 208.117188 224.347656 210.347656 222.71875 211.195312 C 219.996094 212.609375 215.1875 211.195312 212.109375 208.082031 C 209.28125 205.253906 209.28125 205.429688 211.578125 200.019531 C 212.710938 197.402344 213.738281 194.996094 213.949219 194.644531 C 214.300781 193.9375 215.257812 194.078125 217.734375 195.207031 Z M 217.734375 195.207031 " fill-opacity="1" fill-rule="nonzero"/><path fill="#ffffff" d="M 159.414062 196.128906 C 154.25 197.71875 149.546875 203.519531 149.226562 208.71875 C 149.050781 211.125 149.582031 212.574219 151.242188 214.273438 C 154.742188 217.949219 162.808594 214.835938 166.414062 208.4375 C 167.511719 206.527344 168.960938 202.28125 168.960938 201.007812 C 168.960938 200.125 166.734375 197.367188 165.285156 196.480469 C 164.152344 195.773438 161.144531 195.597656 159.414062 196.128906 Z M 164.683594 197.402344 C 165.25 197.683594 166.273438 198.570312 166.945312 199.347656 L 168.183594 200.796875 L 167.300781 203.695312 C 166.804688 205.289062 166.0625 207.234375 165.601562 208.011719 C 164.433594 210.027344 161.5 212.679688 159.304688 213.671875 C 156.867188 214.835938 153.578125 214.910156 152.199219 213.8125 C 147.5625 210.167969 151.5625 200.40625 158.882812 197.472656 C 160.6875 196.765625 163.410156 196.730469 164.683594 197.402344 Z M 164.683594 197.402344 " fill-opacity="1" fill-rule="nonzero"/><path fill="#ffffff" d="M 195.132812 181.203125 C 195.167969 182.160156 197.503906 183.820312 201.074219 185.339844 C 204.613281 186.898438 205.105469 187.039062 205.992188 186.648438 C 206.875 186.226562 206.734375 186.121094 201.816406 183.996094 C 199.023438 182.796875 196.371094 181.59375 195.945312 181.34375 C 195.488281 181.132812 195.132812 181.0625 195.132812 181.203125 Z M 195.132812 181.203125 " fill-opacity="1" fill-rule="nonzero"/><path fill="#ffffff" d="M 200.542969 187.886719 C 202.207031 189.480469 202.277344 189.515625 202.949219 188.878906 C 203.65625 188.242188 203.621094 188.242188 201.464844 187.25 C 200.261719 186.722656 199.199219 186.261719 199.058594 186.261719 C 198.953125 186.261719 199.625 187.003906 200.542969 187.886719 Z M 200.542969 187.886719 " fill-opacity="1" fill-rule="nonzero"/><path fill="#ffffff" d="M 187.953125 192.167969 C 187.457031 192.664062 187.742188 193.191406 188.765625 193.582031 L 189.792969 193.972656 L 189.050781 192.945312 C 188.167969 191.777344 188.273438 191.847656 187.953125 192.167969 Z M 187.953125 192.167969 " fill-opacity="1" fill-rule="nonzero"/><path fill="#ffffff" d="M 186.894531 194.785156 C 186.75 195.351562 186.964844 195.632812 187.917969 196.023438 C 188.589844 196.304688 190.039062 196.941406 191.136719 197.402344 C 192.234375 197.898438 193.152344 198.25 193.222656 198.214844 C 193.542969 197.863281 190.996094 195.738281 189.296875 194.960938 C 188.167969 194.464844 187.210938 194.042969 187.175781 194.042969 C 187.140625 194.042969 187 194.359375 186.894531 194.785156 Z M 186.894531 194.785156 " fill-opacity="1" fill-rule="nonzero"/><path fill="#ffffff" d="M 185.902344 197.226562 C 185.867188 197.402344 185.832031 197.753906 185.796875 197.933594 C 185.761719 198.285156 197.609375 203.695312 197.855469 203.484375 C 197.890625 203.414062 197.363281 202.777344 196.617188 202.105469 C 195.734375 201.222656 193.824219 200.160156 190.746094 198.851562 C 185.585938 196.625 185.972656 196.765625 185.902344 197.226562 Z M 185.902344 197.226562 " fill-opacity="1" fill-rule="nonzero"/><g clip-path="url(#b241f59fe1)"><path fill="#ffffff" d="M 184.417969 200.40625 C 184.277344 200.972656 184.523438 201.257812 185.691406 201.75 C 186.503906 202.105469 190.003906 203.554688 193.4375 205.003906 C 196.902344 206.457031 199.695312 207.800781 199.730469 208.011719 C 199.730469 209.390625 199.023438 209.214844 191.417969 205.890625 C 185.796875 203.484375 183.605469 202.671875 183.390625 202.988281 C 183.25 203.238281 183.179688 203.554688 183.214844 203.734375 C 183.320312 204.015625 192.410156 208.117188 197.363281 210.132812 C 198.492188 210.59375 198.636719 210.769531 198.351562 211.335938 C 198 211.9375 197.46875 211.761719 190.289062 208.683594 C 186.042969 206.84375 182.472656 205.359375 182.367188 205.359375 C 182.222656 205.359375 182.046875 205.640625 181.976562 205.996094 C 181.800781 206.667969 182.648438 207.09375 193.613281 211.761719 C 195.628906 212.609375 197.253906 213.457031 197.253906 213.671875 C 197.253906 215.015625 196.511719 214.800781 188.945312 211.511719 C 183.039062 208.929688 181.164062 208.257812 180.953125 208.613281 C 180.773438 208.859375 180.667969 209.214844 180.738281 209.355469 C 180.808594 209.640625 188.695312 213.140625 193.824219 215.191406 C 196.335938 216.183594 196.371094 216.21875 195.875 216.996094 C 195.628906 217.347656 193.929688 216.746094 187.847656 214.09375 C 180.632812 210.984375 180.066406 210.769531 179.785156 211.40625 C 179.605469 211.796875 179.535156 212.148438 179.605469 212.183594 C 179.679688 212.257812 183.179688 213.777344 187.386719 215.582031 C 194 218.410156 195.027344 218.976562 194.886719 219.542969 C 194.78125 219.894531 194.636719 220.214844 194.601562 220.214844 C 194.53125 220.214844 190.960938 218.691406 186.609375 216.855469 C 182.296875 214.980469 178.722656 213.527344 178.6875 213.566406 C 178.617188 213.636719 178.511719 213.953125 178.441406 214.308594 C 178.371094 214.835938 179.644531 215.507812 186.007812 218.199219 C 190.253906 220 193.71875 221.59375 193.71875 221.804688 C 193.71875 223.183594 193.011719 223.007812 185.40625 219.683594 C 179.714844 217.207031 177.589844 216.429688 177.378906 216.78125 C 177.238281 216.996094 177.167969 217.347656 177.203125 217.527344 C 177.273438 217.703125 180.738281 219.328125 184.914062 221.132812 C 192.054688 224.246094 192.835938 224.742188 192.019531 225.589844 C 191.878906 225.730469 188.34375 224.351562 184.167969 222.511719 C 177.378906 219.578125 176.53125 219.292969 176.105469 219.789062 C 175.894531 220.109375 175.789062 220.460938 175.929688 220.566406 C 176.105469 220.707031 179.464844 222.195312 183.460938 223.890625 C 187.457031 225.625 190.785156 227.074219 190.855469 227.144531 C 190.960938 227.25 190.785156 227.535156 190.5 227.816406 C 190.039062 228.277344 189.085938 227.960938 182.613281 225.128906 C 176.917969 222.6875 175.152344 222.050781 174.9375 222.40625 C 174.761719 222.652344 174.691406 223.007812 174.726562 223.183594 C 174.796875 223.324219 177.875 224.777344 181.625 226.367188 C 188.273438 229.160156 188.414062 229.230469 187.386719 229.65625 C 186.398438 230.082031 185.902344 229.941406 180.5625 227.605469 C 177.378906 226.226562 174.621094 225.023438 174.371094 224.917969 C 174.160156 224.847656 173.808594 225.058594 173.59375 225.449219 C 173.277344 226.085938 173.558594 226.296875 177.027344 227.746094 C 179.113281 228.667969 181.269531 229.550781 181.835938 229.761719 C 182.402344 229.976562 182.789062 230.222656 182.683594 230.292969 C 182.472656 230.539062 176.742188 229.515625 174.160156 228.808594 C 170.410156 227.78125 171.261719 229.019531 175.859375 231.355469 C 177.238281 232.027344 179.289062 232.839844 180.457031 233.121094 C 182.472656 233.617188 186.609375 233.867188 186.222656 233.441406 C 186.078125 233.335938 184.664062 232.945312 183.039062 232.59375 C 180.136719 231.957031 176.917969 230.894531 177.660156 230.859375 C 177.875 230.824219 178.898438 231 179.960938 231.175781 C 181.660156 231.496094 181.976562 231.460938 182.824219 230.824219 C 183.746094 230.152344 183.886719 230.117188 184.914062 230.648438 C 186.292969 231.390625 187.882812 231.035156 188.625 229.902344 C 188.945312 229.445312 189.332031 229.125 189.476562 229.230469 C 189.652344 229.339844 190.003906 229.304688 190.289062 229.195312 C 190.996094 228.949219 193.363281 225.34375 193.363281 224.5625 C 193.363281 224.246094 193.648438 223.679688 193.964844 223.324219 C 194.285156 222.972656 194.566406 222.40625 194.601562 222.050781 C 194.601562 221.699219 194.921875 221.027344 195.238281 220.566406 C 195.558594 220.070312 195.839844 219.363281 195.839844 218.941406 C 195.839844 218.515625 196.089844 217.984375 196.371094 217.738281 C 196.652344 217.492188 196.902344 216.996094 196.902344 216.605469 C 196.902344 216.253906 197.253906 215.472656 197.644531 214.910156 C 198.070312 214.34375 198.316406 213.671875 198.210938 213.386719 C 198.105469 213.070312 198.210938 212.75 198.492188 212.644531 C 198.777344 212.539062 199.09375 211.902344 199.199219 211.230469 C 199.660156 208.929688 200.226562 209.003906 201.886719 211.546875 C 202.738281 212.820312 203.550781 213.847656 203.691406 213.847656 C 203.832031 213.847656 203.976562 214.128906 203.976562 214.449219 C 203.976562 215.050781 200.402344 223.855469 199.058594 226.507812 C 197.46875 229.726562 194.957031 231.425781 189.722656 232.804688 L 186.46875 233.652344 L 189.367188 233.511719 C 192.726562 233.335938 195.273438 232.34375 197.503906 230.363281 C 199.058594 228.914062 199.484375 228.171875 202.878906 220.285156 L 205.355469 214.519531 L 203.796875 212.503906 C 202.949219 211.40625 201.78125 209.53125 201.214844 208.402344 L 200.191406 206.3125 L 192.515625 202.988281 C 188.308594 201.1875 184.804688 199.699219 184.734375 199.699219 C 184.664062 199.699219 184.523438 200.019531 184.417969 200.40625 Z M 184.417969 200.40625 " fill-opacity="1" fill-rule="nonzero"/></g><g clip-path="url(#9f6ea57585)"><path fill="#ffffff" d="M 266.941406 180.84375 L 258.398438 180.84375 C 258.398438 141.75 226.59375 109.945312 187.5 109.945312 C 148.40625 109.945312 116.597656 141.75 116.597656 180.84375 L 108.058594 180.84375 C 108.058594 137.042969 143.695312 101.40625 187.5 101.40625 C 231.304688 101.40625 266.941406 137.042969 266.941406 180.84375 Z M 266.941406 180.84375 " fill-opacity="1" fill-rule="nonzero"/></g></svg>